<svg width="65" height="65" viewBox="0 0 65 65" fill="none" xmlns="http://www.w3.org/2000/svg">
<circle cx="32.5" cy="32.5" r="32.5" fill="#88A550"/>
<path fill-rule="evenodd" clip-rule="evenodd" d="M25.2701 29.0316C30.513 23.3967 35.6108 17.8125 31.5994 15.681L32.8111 15.7839C39.2694 16.4725 42.0674 19.8776 43.2665 22.9762C43.2202 22.9586 43.1734 22.9421 43.1261 22.9268L42.1647 22.6163C41.726 22.4746 41.3919 22.116 41.2816 21.6684C41.1294 21.0506 40.5611 20.627 39.9256 20.6576L38.1408 20.7437C37.5138 20.7739 36.9971 21.2462 36.9108 21.8679C36.8468 22.329 36.5421 22.7211 36.1112 22.897L35.005 23.3484C34.6206 23.5053 34.1822 23.4503 33.8484 23.2034C33.3495 22.8342 32.6505 22.9108 32.2435 23.3794L31.1537 24.6339C30.7624 25.0844 30.7416 25.7478 31.1039 26.2219C31.3724 26.5732 31.4366 27.0396 31.2731 27.4503L30.7959 28.6495C30.6414 29.0378 30.3208 29.3362 29.9224 29.4626C29.335 29.6489 28.9397 30.199 28.9504 30.8152L28.9778 32.3945C28.9881 32.9935 29.4459 33.4895 30.0421 33.5478C30.4518 33.5879 30.8109 33.8386 30.9897 34.2094L31.4549 35.1743C31.6627 35.6052 31.6452 36.1108 31.408 36.5262C31.0734 37.1123 31.1862 37.8516 31.6803 38.3112L32.954 39.4959C33.3769 39.8893 34.0292 39.8981 34.4625 39.5161C34.8123 39.2077 35.3162 39.1474 35.7289 39.3645L36.5891 39.8169C34.788 40.4377 34.6235 41.4652 34.6235 41.4652L34.6384 43.4048C34.6384 43.4048 25.678 44.3087 25.678 45.9587C25.678 47.6086 31.7787 48.4538 31.7787 48.4538C30.7553 48.6646 29.9004 48.828 29.1871 48.9643L29.1869 48.9643C26.151 49.5445 25.678 49.6349 25.678 50.8085C25.678 52.2579 31.9879 53.6395 31.9879 53.6395C31.9879 53.6395 29.8339 53.6394 29.8339 54.4645V55.3711L33.2626 55.3448C33.9483 55.3396 34.9344 54.5824 34.9142 53.5865C34.894 52.5907 30.3863 50.8085 30.3863 50.8085C33.3233 50.5921 36.7981 50.2217 36.7981 48.8074C36.7981 47.3931 30.604 45.9587 30.604 45.9587C37.7495 45.225 36.7981 43.9702 36.7981 43.9702L36.8764 41.4481C40.0999 40.2593 42.62 36.8456 42.62 36.8456C48.2419 29.1405 43.8896 21.1105 43.8896 21.1105C40.0003 14.6283 33.4003 14.1005 31.0432 14.5105C30.187 14.6594 29.6602 14.8084 29.3401 14.9425L29.3391 14.9423C24.3722 16.3309 20.7915 21.8405 20.7915 26.297C20.4637 22.3636 22.0604 17.8225 27.2506 14.6164C24.3548 14.4102 22.1535 15.4043 19.7308 17.5763C17.0649 20.3104 15.707 27.7115 20.8623 37.1021C21.4161 38.1108 22.9629 37.4998 22.9366 36.3494C22.8689 33.3778 23.5485 30.8818 25.2701 29.0316ZM39.6679 37.9235C41.9169 35.8459 44.3531 32.2473 44.1217 28.3963C44.1217 28.3963 44.219 27.3638 44.0127 25.8869C42.0177 24.0957 39.0703 23.5611 36.4855 24.7632C33.0282 26.3711 31.529 30.4773 33.1369 33.9346C34.3466 36.5356 36.9703 38.0283 39.6679 37.9235Z" fill="white"/>
<path d="M30.4717 13.5323L32.4709 13.3248C33.2269 13.2463 33.6564 12.4207 33.2868 11.7566L32.0397 9.51604C31.586 8.7009 30.3763 8.82827 30.1023 9.72004L29.3502 12.1681C29.1274 12.8933 29.7171 13.6106 30.4717 13.5323Z" fill="white"/>
<path d="M39.8317 15.4762L38.0632 14.521C37.3945 14.1599 37.3127 13.2327 37.9079 12.7601L39.916 11.1655C40.6466 10.5854 41.716 11.165 41.6288 12.0938L41.3892 14.6436C41.3182 15.3989 40.4992 15.8367 39.8317 15.4762Z" fill="white"/>
<path d="M46.5143 29.5566V27.5467C46.5143 26.7867 47.2912 26.2741 47.9899 26.5732L50.3472 27.5823C51.2049 27.9494 51.2031 29.1659 50.3444 29.5305L47.987 30.5313C47.2887 30.8278 46.5143 30.3153 46.5143 29.5566Z" fill="white"/>
<path d="M45.175 21.5316L44.2303 19.7576C43.873 19.0867 44.3179 18.2692 45.0751 18.2047L47.6301 17.9874C48.5597 17.9083 49.1299 18.9828 48.5433 19.7082L46.9331 21.6997C46.4561 22.2896 45.5317 22.2013 45.175 21.5316Z" fill="white"/>
<path d="M44.6304 35.537L43.5398 37.2254C43.1275 37.8639 43.502 38.7159 44.2512 38.8438L46.7789 39.2751C47.6985 39.432 48.357 38.4092 47.8335 37.6371L46.3963 35.5173C45.9706 34.8894 45.042 34.8998 44.6304 35.537Z" fill="white"/>
</svg>
