<svg width="12" height="14" viewBox="0 0 12 14" fill="none" xmlns="http://www.w3.org/2000/svg">
<path fill-rule="evenodd" clip-rule="evenodd" d="M5.12433 0.422641C5.12433 0.422641 4.89695 0.265739 5.93953 0.109029C6.84612 -0.0272396 9.38457 0.14821 10.8805 2.30296C10.8805 2.30296 12.5544 4.97225 10.3922 7.53355C10.3922 7.53355 9.42288 8.66831 8.18306 9.06347L8.15297 9.90187C8.15297 9.90187 8.51888 10.3189 5.7706 10.5628C5.7706 10.5628 8.15297 11.0397 8.15297 11.5098C8.15297 11.9799 6.8165 12.1031 5.68686 12.175C5.68686 12.175 7.42063 12.7674 7.42838 13.0985C7.43613 13.4295 7.05686 13.6812 6.79314 13.6829L5.47442 13.6917V13.3903C5.47442 13.116 6.30289 13.1161 6.30289 13.1161C6.30289 13.1161 3.876 12.6568 3.87599 12.175C3.87599 11.7849 4.05791 11.7548 5.22558 11.562L5.22562 11.562C5.49999 11.5167 5.82878 11.4623 6.22242 11.3923C6.22242 11.3923 3.876 11.1113 3.87599 10.5628C3.87598 10.0144 7.3223 9.71392 7.3223 9.71392L7.31656 9.06915C7.31656 9.06915 7.37986 8.72756 8.07264 8.52123L7.7528 8.37583C7.58559 8.29982 7.39172 8.31693 7.25697 8.4196C7.08694 8.54914 6.82949 8.53908 6.65144 8.39594L6.2048 8.03686C6.00619 7.87719 5.95424 7.61773 6.08212 7.42413C6.1715 7.2888 6.17519 7.11629 6.09189 6.96698L5.9244 6.66676C5.91883 6.65677 5.91285 6.64703 5.90648 6.63755C5.33747 7.41986 4.53274 8.29134 3.71891 9.16601C2.95524 9.98677 1.17024 10.5507 0.908528 9.46061C0.369624 7.21595 0.847773 5.51974 1.58842 4.76012C2.52026 3.92473 3.36692 3.54242 4.48072 3.62173C2.48446 4.85484 1.87035 6.60141 1.99641 8.11425C1.99641 6.40024 3.37361 4.28117 5.28397 3.74705C5.43771 3.78253 5.59667 3.82499 5.76151 3.87443C5.81203 3.88959 5.8603 3.90559 5.90639 3.92242C5.82791 3.77929 5.84656 3.60915 5.96215 3.49414L6.41956 3.03904C6.5683 2.89105 6.82173 2.87276 7.01458 2.9961C7.14602 3.08016 7.31073 3.10076 7.45224 3.05085L7.90097 2.89257C8.06038 2.83634 8.17182 2.7081 8.19689 2.55205C8.23037 2.34357 8.41578 2.19161 8.64849 2.18191L9.3875 2.15111C9.6109 2.1418 9.81933 2.28424 9.87667 2.48539C9.9192 2.6346 10.0471 2.75606 10.2094 2.80136L10.5562 2.89816C10.5852 2.90626 10.6138 2.9154 10.6419 2.92554C10.1813 1.89488 9.1054 0.761404 6.61948 0.532317L5.12433 0.422641ZM10.9278 3.89061C10.1605 3.29529 9.02693 3.11762 8.03285 3.5172C7.40212 3.77072 6.94082 4.21109 6.69614 4.72666C6.7378 5.00076 6.66164 5.3195 6.49794 5.67138C6.5089 5.97207 6.58885 6.27584 6.74492 6.56587C7.21016 7.43045 8.21921 7.92666 9.25671 7.89187C10.1217 7.20124 11.0587 6.005 10.9697 4.72485C10.9697 4.72485 11.0072 4.38163 10.9278 3.89061Z" fill="white"/>
</svg>
