<?xml version="1.0" encoding="utf-8"?>
<!-- Generator: Adobe Illustrator 18.0.0, SVG Export Plug-In . SVG Version: 6.00 Build 0)  -->
<!DOCTYPE svg PUBLIC "-//W3C//DTD SVG 1.1//EN" "http://www.w3.org/Graphics/SVG/1.1/DTD/svg11.dtd">
<svg version="1.1" id="layer" xmlns="http://www.w3.org/2000/svg" xmlns:xlink="http://www.w3.org/1999/xlink" x="0px" y="0px"
	 viewBox="0 70.7 256 113.3" enable-background="new 0 70.7 256 113.3" xml:space="preserve">
<g>
	<path fill="#7FCB28" d="M178.7,102.4L178.7,102.4c-1.9-0.4,5.4-3.1,5.6-4.2c0-1.1-12.4,5.6-12.4,5.6c-4.2-1.1-11-1.5-11-1.5
		c0.2-2,0.2-3.7-0.2-5c0.8,0.2,1.7,0.8,3.5,1.1c1.1,0.4,12.3,2.7,12.7,2.2c0.2-0.4-3.9-1.6-3.5-2.4c0.4-0.5,6.4-1.5,6.4-2.3
		c0-0.6-5.6-0.2-5.4-0.8c0.2-0.4,3.5-2.9,3.3-3.3c-0.4-0.5-5.6,2.9-7.7,3.1c-2.2,0.2-6.8-0.6-6.8-0.6s0-0.2-0.2-0.2
		c0.6-0.2,0.9-0.5,1.1-0.6c0.5,0.2,10.8-2.7,11.6-5.1c-0.6,0.4-0.6,0.4,0-0.2v0.2c0.5-0.6,1.7-1.6,2.5-3.1c1.9-2.7-6.6-5.8-7.5-6.4
		c-0.6-0.4-0.8-1.1-1.1-2.5c-0.4-1.9-1.8-3.7-4.2-3.1c-2.9,0.8-2.1,3.5-6.8,2.9c-1.3-0.2-6.6,1.5-11.2,2.1c-4.6-0.4-9.4-0.6-12-0.6
		c-6.4,0-14.3,8.3-16.9,10.8c-1.5,0.6-2.7,1.1-3.5,1.3c0,0-11.6,0.2-22.9,10c0,0-9.5,15.5-11.2,17.9c0,0-8.8,0-15.2-2.3
		c-3.5-1.3-11.2-7.5-11.9-7.7c-1,0,2.7,3.1,1.9,3.1c-0.9-0.2-6.6-4.3-7.3-4.1c-0.6,0.3,3.6,3.7,2.7,3.5c-3.6-1.1-7.1-3.5-8.7-2.9
		c-0.5,0.2,4.3,2.9,2.7,3.5c-1.7,0.7-7.3,0-7.7,0.5c-0.9,1.3,41.3,11.4,44.7,10.2c3.5-1.1,16.2-18.3,19.5-19.7
		c4.6,0.2,10-0.4,10-0.4l2.3,2.9c0,0-0.2,7.3-1.3,10.6c-0.2,0.2-0.2,0.4-0.2,0.5c-1.7,1-13.7,8.1-20,12.8c0,0-4.1,10.8-4.3,16.2
		c-0.2,3.5,3.5,14.4,6.2,23.6c1.5,5.4,2.5,11.4,3.1,11.6c1,0-0.5-8.2,0-9.7c0.6-0.9,3.7,4.7,4.1,4.1c0.6-0.5-2.2-6.6-2.7-9.9
		c-0.4-1.7,2.9,4.1,3.1,3.3c0.2-0.4-2.7-6.6-3.1-9.3c-0.2-0.9,2.4,2.9,2.6,2.4c0.5-2-8.3-13.3-8.3-16.6c-0.2-3.3,0.4-10,2.5-12.2
		c2.3-2.1,13.3-4.4,19.5-9.8c0,0,4-1.5,11.3-16.8c8.8,2.9,20.1-1.7,28-6c1.3,2.6,3.8,5,4.8,5.6c2,1,9.1,3.7,11.8,3.9
		c2.5,0.4,7.1,0.5,7.7-0.2c0.5-0.8-6.2-0.4-3.1-2.7c3.3-2.5,8.9-2.3,9.1-2.9C184.9,102.4,180.5,102.6,178.7,102.4z"/>
</g>
<path d="M10.8,117.1L10.8,117.1c1.7-1.9,3.5-2.9,6-2.9c4.6,0,8.1,3.8,8.1,8.8c0,5.2-3.5,9-8.2,9c-2.4,0-4.3-0.9-5.8-2.9v2.3H7.9
	v-29.7h2.9L10.8,117.1L10.8,117.1z M10.6,123.1L10.6,123.1c0,3.6,2.3,6.4,5.6,6.4c3.2,0,5.5-2.7,5.5-6.2c0-3.7-2.3-6.4-5.5-6.4
	C12.9,116.9,10.6,119.4,10.6,123.1z"/>
<path d="M31.2,124.6L31.2,124.6c0,1.5,0.2,2.4,0.5,3.1c0.5,1.1,1.7,1.7,3.3,1.7c1.5,0,2.7-0.5,3.2-1.7c0.5-0.8,0.6-1.6,0.6-3.1v-10
	h2.9v10.2c0,2.6-0.4,3.9-1.5,5.2c-1.3,1.3-3.1,2.1-5.2,2.1c-2.1,0-3.8-0.8-5.2-2.1c-1.1-1.3-1.5-2.7-1.5-5.2v-10.2h2.9L31.2,124.6
	L31.2,124.6z"/>
<polygon points="49.3,131.5 49.3,131.5 46.4,131.5 46.4,101.9 49.3,101.9 "/>
<polygon points="57.2,131.5 57.2,131.5 54.3,131.5 54.3,101.9 57.2,101.9 "/>
<path d="M65.7,131.5L65.7,131.5h-2.9v-14.3h-1.6v-2.7h1.6v-7.1c0-2.2,0.4-3.5,1.1-4.5c0.7-1.1,2.1-1.7,3.8-1.7c0.7,0,1.4,0,2.2,0.4
	v2.9c-0.8-0.2-1.2-0.4-2-0.4c-1.7,0-2.3,0.8-2.3,3.9v6.6h4.2v2.7h-4.2C65.7,117.2,65.7,131.5,65.7,131.5z"/>
<path d="M75.5,114.6L75.5,114.6v1.9c1.6-1.9,2.2-2.3,3.9-2.3c1,0,1.5,0.2,2.5,0.8l-1.3,2.7c-0.8-0.6-0.9-0.6-1.7-0.6
	c-1.1,0-2.2,0.6-2.7,1.5c-0.4,0.8-0.5,2-0.5,4.1v8.8h-2.9v-16.9H75.5z"/>
<path d="M100.8,123.2L100.8,123.2c0,5-4,8.8-9.1,8.8c-4.9,0-9-4-9-9c0-4.8,4.1-8.8,9-8.8C96.7,114.2,100.8,118,100.8,123.2z
	 M85.7,123.1L85.7,123.1c0,3.6,2.5,6.4,5.9,6.4c3.5,0,6-2.5,6-6.2c0-3.7-2.5-6.4-6-6.4C88.2,116.9,85.7,119.6,85.7,123.1z"/>
<path d="M120.9,132.1L120.9,132.1c0,3.3-0.4,5-1.5,6.6c-1.5,2.2-4,3.3-6.8,3.3c-5.6,0-8.3-3.5-8.3-8.3h2.9c0,1.3,0.2,2.5,0.8,3.3
	c0.8,1.5,2.7,2.3,4.6,2.3c3.5,0,5.4-2.3,5.4-6.8v-3.2c-1.7,1.9-3.7,2.9-6,2.9c-4.6,0-8.1-3.8-8.1-8.8c0-5.2,3.5-9,8.3-9
	c2.3,0,4.1,0.9,5.8,2.9v-2.5h2.9L120.9,132.1L120.9,132.1z M106.9,123.1L106.9,123.1c0,3.6,2.4,6.4,5.6,6.4c3.3,0,5.8-2.7,5.8-6.2
	c0-3.9-2.5-6.4-5.8-6.4C109.4,116.9,106.9,119.6,106.9,123.1z"/>
<path d="M126.2,142.2L126.2,142.2v-28h4.8v2.3c1.5-1.9,3.2-2.9,5.7-2.9c4.8,0,8.5,4,8.5,9.2c0,5.2-3.6,9.2-8.5,9.2
	c-2.3,0-4-0.8-5.7-2.7v12.8L126.2,142.2L126.2,142.2z M130.4,122.9L130.4,122.9c0,2.7,2.3,5,5,5c2.6,0,4.8-2.3,4.8-4.8
	c0-2.9-2.1-5-5.1-5C132.5,118,130.4,120.2,130.4,122.9z"/>
<path d="M167.9,122.9L167.9,122.9c0,5.6-4.2,9.2-10.2,9.2c-5.8,0-9.8-3.8-9.8-9.4c0-5.2,4.2-9.1,10-9.1
	C163.9,113.6,167.9,117.4,167.9,122.9z M153.1,122.9L153.1,122.9c0,2.7,2.1,5,4.8,5c2.7,0,5-2.3,5-5c0-2.7-2.3-4.8-5-4.8
	C155.2,118,153.1,120.2,153.1,122.9z"/>
<polygon points="178.5,122.1 178.5,122.1 184.3,113.8 190.1,122.1 194.7,114.2 200.1,114.2 190.1,131.9 184.3,121.8 178.5,131.9 
	168.6,114.2 173.9,114.2 "/>
<path d="M205.9,123.6L205.9,123.6c0,3.1,1.6,4.6,4.2,4.6c1.7,0,3.1-0.5,4.1-2.4l4.6,0.8c-1.5,3.7-4.4,5.4-8.5,5.4
	c-5.8,0-9.4-3.6-9.4-9.2c0-5.6,3.7-9.2,9.1-9.2c5.6,0,9,3.7,9,9.4v0.5L205.9,123.6L205.9,123.6z M214.2,120.6L214.2,120.6
	c-0.4-2.2-2-3.5-4.1-3.5s-3.6,1.4-4.1,3.5H214.2z"/>
<path d="M227.5,114.2L227.5,114.2v2.7c1.1-2.3,2.9-3.3,5.1-3.3c0.7,0,1.3,0.2,2.1,0.6l-0.6,4.4c-0.9-0.4-1.3-0.5-2.3-0.5
	c-2.9,0-4.3,1.7-4.3,5.2v8.2h-4.8v-17.3H227.5z"/>
<path d="M240.8,112.4L240.8,112.4c1.5,0,2.7,1.2,2.7,2.7c0,1.5-1.1,2.7-2.7,2.7c-1.5,0-2.7-1.1-2.7-2.7
	C238.1,113.6,239.2,112.4,240.8,112.4z M240.8,112.8L240.8,112.8c-1.1,0-2.1,1.2-2.1,2.4c0,1.3,1,2.3,2.1,2.3s2.1-0.9,2.1-2.3
	C242.8,114,241.9,112.8,240.8,112.8z M240.2,116.7L240.2,116.7h-0.4v-2.9c0.2-0.2,0.4-0.2,0.8-0.2c0.5,0,0.8,0.2,0.9,0.2
	c0.2,0.2,0.2,0.4,0.2,0.8s-0.2,0.5-0.6,0.5v0.2c0.4,0,0.6,0.2,0.6,0.6c0,0.5,0.2,0.8,0.2,0.8h-0.5c0,0,0-0.4-0.2-0.8
	c0-0.4-0.2-0.6-0.5-0.6h-0.4L240.2,116.7L240.2,116.7z M240.2,115.2L240.2,115.2h0.4c0.4,0,0.8-0.2,0.8-0.5c0-0.2-0.2-0.6-0.8-0.6
	c-0.2,0-0.2,0-0.4,0V115.2z"/>
</svg>
