<svg width="100" height="100" viewBox="0 0 100 100" fill="none" xmlns="http://www.w3.org/2000/svg">
<path d="M80.8623 29.0527C81.9408 29.0527 82.8154 28.1783 82.8154 27.0996V5.85938C82.8154 2.62852 80.1869 0 76.9561 0H5.8623C2.63145 0 0.00292969 2.62852 0.00292969 5.85938V94.1406C0.00292969 97.3715 2.63145 100 5.8623 100H76.9561C80.1869 100 82.8154 97.3715 82.8154 94.1406V79.7516C82.8154 78.6729 81.9408 77.7984 80.8623 77.7984C79.7838 77.7984 78.9092 78.6729 78.9092 79.7516V94.1406C78.9092 95.2176 78.033 96.0938 76.9561 96.0938H5.8623C4.78535 96.0938 3.90918 95.2176 3.90918 94.1406V5.85938C3.90918 4.78242 4.78535 3.90625 5.8623 3.90625H76.9561C78.033 3.90625 78.9092 4.78242 78.9092 5.85938V27.0996C78.9092 28.1783 79.7838 29.0527 80.8623 29.0527Z" fill="#16353A"/>
<path d="M41.4072 10.5468C31.4992 10.5468 23.4385 18.6075 23.4385 28.5156C23.4385 33.6556 25.6084 38.2978 29.0795 41.5759C29.1445 41.6454 29.2137 41.7113 29.2893 41.7712C32.4867 44.6968 36.742 46.4841 41.407 46.4841C46.0721 46.4841 50.3273 44.6966 53.5248 41.7712C53.6004 41.7113 53.6695 41.6452 53.7346 41.5759C57.2061 38.2978 59.376 33.6556 59.376 28.5156C59.376 18.6075 51.3152 10.5468 41.4072 10.5468ZM41.4072 42.5781C38.218 42.5781 35.2746 41.5093 32.9129 39.7132C34.6295 36.6693 37.8328 34.7656 41.4072 34.7656C44.9816 34.7656 48.185 36.6693 49.9016 39.7132C47.5396 41.5093 44.5965 42.5781 41.4072 42.5781ZM38.2822 27.7343V26.4648C38.2822 24.7417 39.6842 23.3398 41.4072 23.3398C43.1303 23.3398 44.5322 24.7417 44.5322 26.4648V27.7343C44.5322 29.4573 43.1303 30.8593 41.4072 30.8593C39.6842 30.8593 38.2822 29.4573 38.2822 27.7343ZM52.7236 36.8521C51.2832 34.7157 49.2869 33.0542 46.9691 32.0284C47.8891 30.8396 48.4385 29.3503 48.4385 27.7343V26.4648C48.4385 22.5876 45.2844 19.4335 41.4072 19.4335C37.5301 19.4335 34.376 22.5876 34.376 26.4648V27.7343C34.376 29.3503 34.9254 30.8396 35.8453 32.0284C33.5275 33.0542 31.5313 34.7157 30.0908 36.8521C28.3664 34.5175 27.3447 31.6341 27.3447 28.5156C27.3447 20.7614 33.6531 14.453 41.4072 14.453C49.1613 14.453 55.4697 20.7614 55.4697 28.5156C55.4697 31.6341 54.448 34.5175 52.7236 36.8521Z" fill="#16353A"/>
<path d="M51.9541 85.5468H41.4072C40.3287 85.5468 39.4541 86.4213 39.4541 87.5C39.4541 88.5788 40.3287 89.4532 41.4072 89.4532H51.9541C53.0326 89.4532 53.9072 88.5788 53.9072 87.5C53.9072 86.4213 53.0326 85.5468 51.9541 85.5468Z" fill="#16353A"/>
<path d="M51.9541 74.6093H24.2197C23.1412 74.6093 22.2666 75.4837 22.2666 76.5624C22.2666 77.641 23.1412 78.5154 24.2197 78.5154H51.9541C53.0326 78.5154 53.9072 77.641 53.9072 76.5624C53.9072 75.4837 53.0326 74.6093 51.9541 74.6093Z" fill="#16353A"/>
<path d="M51.9541 63.6719H24.2197C23.1412 63.6719 22.2666 64.5462 22.2666 65.6249C22.2666 66.7036 23.1412 67.5779 24.2197 67.5779H51.9541C53.0326 67.5779 53.9072 66.7036 53.9072 65.6249C53.9072 64.5462 53.0326 63.6719 51.9541 63.6719Z" fill="#16353A"/>
<path d="M17.2596 53.3067C16.8965 52.9435 16.3926 52.7345 15.877 52.7345C15.3631 52.7345 14.8592 52.9435 14.4961 53.3067C14.1328 53.67 13.9238 54.1739 13.9238 54.6875C13.9238 55.2012 14.1326 55.7051 14.4961 56.0683C14.8613 56.4316 15.3631 56.6406 15.877 56.6406C16.3926 56.6406 16.8945 56.4316 17.2596 56.0683C17.6229 55.7051 17.832 55.2012 17.832 54.6875C17.832 54.1739 17.623 53.67 17.2596 53.3067Z" fill="#16353A"/>
<path d="M17.2596 64.2441C16.8945 63.8808 16.3926 63.6719 15.877 63.6719C15.3631 63.6719 14.8613 63.8808 14.4961 64.2441C14.1328 64.6074 13.9238 65.1113 13.9238 65.6249C13.9238 66.1385 14.1326 66.6424 14.4961 67.0057C14.8613 67.3689 15.3631 67.5779 15.877 67.5779C16.3926 67.5779 16.8945 67.3689 17.2596 67.0057C17.6229 66.6424 17.832 66.1385 17.832 65.6249C17.832 65.1113 17.623 64.6074 17.2596 64.2441Z" fill="#16353A"/>
<path d="M17.2596 75.1816C16.8945 74.8183 16.3926 74.6093 15.877 74.6093C15.3631 74.6093 14.8613 74.8183 14.4961 75.1816C14.1328 75.5448 13.9238 76.0487 13.9238 76.5624C13.9238 77.076 14.1326 77.5799 14.4961 77.9432C14.8592 78.3064 15.3631 78.5154 15.877 78.5154C16.3926 78.5154 16.8965 78.3064 17.2596 77.9432C17.6229 77.5799 17.832 77.076 17.832 76.5624C17.832 76.0487 17.623 75.5448 17.2596 75.1816Z" fill="#16353A"/>
<path d="M51.9541 52.7345H24.2197C23.1412 52.7345 22.2666 53.6089 22.2666 54.6875C22.2666 55.7662 23.1412 56.6406 24.2197 56.6406H51.9541C53.0326 56.6406 53.9072 55.7662 53.9072 54.6875C53.9072 53.6089 53.0326 52.7345 51.9541 52.7345Z" fill="#16353A"/>
<path d="M95.899 25.4533C94.0015 24.3578 91.791 24.0667 89.6742 24.6337C87.5578 25.2009 85.7886 26.5583 84.6933 28.4558L60.1148 71.0267C59.9802 71.2601 59.8951 71.5189 59.8652 71.7866L58.1351 87.2835C58.0492 88.0546 58.4277 88.8036 59.0996 89.1917C59.4029 89.3667 59.7398 89.4534 60.0759 89.4534C60.4845 89.4534 60.8916 89.3255 61.2343 89.073L73.7898 79.8261C74.0068 79.6663 74.1884 79.4634 74.323 79.23L98.9013 36.6591C101.163 32.7419 99.8162 27.715 95.899 25.4533ZM62.5125 83.2802L63.416 75.188L69.0687 78.4517L62.5125 83.2802ZM71.9168 75.5853L64.4744 71.2884L84.198 37.1263L91.6404 41.4232L71.9168 75.5853ZM95.5185 34.7058L93.5933 38.0404L86.1509 33.7435L88.0761 30.4089C88.6499 29.415 89.5765 28.704 90.6851 28.407C91.7941 28.1097 92.9519 28.2624 93.9457 28.8363C94.9396 29.4101 95.6505 30.3367 95.9476 31.4452C96.2447 32.5538 96.0923 33.7118 95.5185 34.7058Z" fill="#16353A"/>
</svg>
