<svg width="1440" height="533" viewBox="0 0 1440 533" fill="none" xmlns="http://www.w3.org/2000/svg">
<path d="M489 15.3501C206.5 -38.7516 57.5331 65.1325 0 96.093V532.321H1440V19.4467C889.5 285.858 835.945 81.7937 489 15.3501Z" fill="#16353A"/>
<path d="M1440 532.321H0V336.453H1440V532.321Z" fill="#88A550"/>
<path d="M1440 335.321V532.321L0 532.321V335.321H1440Z" fill="url(#paint0_linear)"/>
<path d="M350.754 466.117L361.277 462.189H370.138L361.277 466.117H379L361.277 478.769L271 481.225L327.492 466.117H350.754Z" fill="url(#paint1_linear)"/>
<path d="M478.754 442.072L489.277 438.144H498.138L489.277 442.072H507L489.277 454.724L399 457.18L455.492 442.072H478.754Z" fill="url(#paint2_linear)"/>
<path d="M396.754 405.003L407.277 401.075H416.138L407.277 405.003H425L407.277 417.654L317 420.11L373.492 405.003H396.754Z" fill="url(#paint3_linear)"/>
<rect x="358.376" y="431.259" width="10.2482" height="31.4065" fill="#547C83"/>
<rect x="321" y="442.131" width="85" height="1.81191" fill="#547C83"/>
<path d="M334.13 404.08H392.179L406 442.13H321L334.13 404.08Z" fill="white"/>
<path d="M336.674 406.496H389.422L400.574 438.507H326.425L336.674 406.496Z" fill="#547C83"/>
<path d="M400 437.142L389.5 406.585L340.5 406.585C334.183 435.362 380.073 438.279 400 437.142Z" fill="#C4DCDC"/>
<path d="M352.348 406.496H355.663L352.348 440.319H345.716L352.348 406.496Z" fill="white"/>
<path d="M374.351 406.496H371.036L374.351 440.319H380.982L374.351 406.496Z" fill="white"/>
<rect x="333.66" y="412.536" width="59.078" height="1.81191" fill="white"/>
<rect x="328.837" y="423.407" width="68.7234" height="1.81191" fill="white"/>
<rect x="487.376" y="407.214" width="10.2482" height="31.4065" fill="#547C83"/>
<rect x="450" y="418.085" width="85" height="1.81191" fill="#547C83"/>
<path d="M463.13 380.035H521.179L535 418.085H450L463.13 380.035Z" fill="white"/>
<path d="M465.674 382.451H518.422L529.574 414.462H455.425L465.674 382.451Z" fill="#547C83"/>
<path d="M529.092 412.596L518.592 382.039L469.592 382.039C463.275 410.816 509.164 413.733 529.092 412.596Z" fill="#C4DCDC"/>
<path d="M481.348 382.451H484.663L481.348 416.273H474.716L481.348 382.451Z" fill="white"/>
<path d="M503.351 382.451H500.036L503.351 416.273H509.982L503.351 382.451Z" fill="white"/>
<rect x="462.66" y="388.491" width="59.078" height="1.81191" fill="white"/>
<rect x="457.837" y="399.362" width="68.7234" height="1.81191" fill="white"/>
<rect x="405.66" y="374.003" width="8.68085" height="26.6032" fill="#547C83"/>
<rect x="374" y="383.211" width="72" height="1.5348" fill="#547C83"/>
<path d="M385.122 350.981H434.293L446 383.211H374L385.122 350.981Z" fill="white"/>
<path d="M387.277 353.027H431.957L441.404 380.142H378.596L387.277 353.027Z" fill="#547C83"/>
<path d="M440.5 377.531L432.566 352.985L390.5 352.984C384.71 374.785 422.233 378.392 440.5 377.531Z" fill="#C4DCDC"/>
<path d="M400.553 353.027H403.362L400.553 381.676H394.936L400.553 353.027Z" fill="white"/>
<path d="M419.192 353.027H416.383L419.192 381.676H424.809L419.192 353.027Z" fill="white"/>
<rect x="384.724" y="358.143" width="50.0426" height="1.5348" fill="white"/>
<rect x="380.638" y="367.352" width="58.2128" height="1.5348" fill="white"/>
<path d="M154 384.042H146.552L82 398.069H89.4483L154 384.042Z" fill="url(#paint4_linear)"/>
<path d="M104 346.973H99.2414L58 355.99H62.7586L104 346.973Z" fill="url(#paint5_linear)"/>
<path d="M216 355.99H211.241L170 365.007H174.759L216 355.99Z" fill="url(#paint6_linear)"/>
<path d="M317 355.99H312.241L271 365.007H275.759L317 355.99Z" fill="url(#paint7_linear)"/>
<path d="M270 406.084H260.172L175 425.12H184.828L270 406.084Z" fill="url(#paint8_linear)"/>
<path d="M148.593 296.534H149.062L151.871 384.042H145.783L148.593 296.534Z" fill="white"/>
<ellipse cx="148.828" cy="297.707" rx="1.63916" ry="1.64224" fill="white"/>
<path d="M158.984 262.34L149.613 296.256C149.521 295.054 149.356 292.169 149.43 290.243C149.523 287.835 156.947 263.725 157.315 262.853C157.61 262.155 158.55 262.221 158.984 262.34Z" fill="#547C83"/>
<path d="M158.924 262.325L149.57 296.245C150.265 295.261 151.887 292.87 152.811 291.179C153.967 289.065 159.962 264.559 160.093 263.622C160.198 262.872 159.357 262.445 158.924 262.325Z" fill="#547C83"/>
<path d="M113.482 307.211L147.48 298.368C146.487 299.049 144.076 300.636 142.374 301.536C140.246 302.661 115.696 308.285 114.759 308.402C114.009 308.496 113.595 307.647 113.482 307.211Z" fill="#547C83"/>
<path d="M113.498 307.271L147.495 298.427C146.297 298.316 143.42 298.104 141.496 298.147C139.09 298.202 114.91 305.253 114.035 305.608C113.334 305.892 113.385 306.835 113.498 307.271Z" fill="#547C83"/>
<path d="M174.839 324.25L150.196 299.174C151.281 299.695 153.859 300.993 155.488 302.02C157.524 303.304 174.66 321.793 175.23 322.548C175.686 323.152 175.159 323.934 174.839 324.25Z" fill="#547C83"/>
<path d="M174.883 324.208L150.239 299.131C150.742 300.227 151.998 302.829 152.998 304.477C154.248 306.536 172.433 323.991 173.177 324.573C173.773 325.039 174.563 324.524 174.883 324.208Z" fill="#547C83"/>
<ellipse cx="148.827" cy="297.707" rx="0.702495" ry="0.703817" fill="#547C83"/>
<path d="M211.464 300.759H211.76L213.534 355.99H209.691L211.464 300.759Z" fill="white"/>
<ellipse cx="211.613" cy="301.499" rx="1.03455" ry="1.0365" fill="white"/>
<path d="M218.022 279.178L212.108 300.583C212.05 299.825 211.946 298.004 211.993 296.788C212.051 295.269 216.737 280.051 216.97 279.501C217.155 279.061 217.749 279.102 218.022 279.178Z" fill="#547C83"/>
<path d="M217.985 279.168L212.081 300.576C212.52 299.955 213.543 298.447 214.127 297.379C214.856 296.045 218.639 280.578 218.722 279.987C218.788 279.513 218.258 279.244 217.985 279.168Z" fill="#547C83"/>
<path d="M189.305 307.498L210.762 301.916C210.135 302.346 208.614 303.348 207.539 303.916C206.196 304.626 190.702 308.176 190.11 308.25C189.637 308.309 189.376 307.773 189.305 307.498Z" fill="#547C83"/>
<path d="M189.314 307.536L210.772 301.954C210.015 301.883 208.199 301.75 206.985 301.777C205.467 301.812 190.206 306.262 189.653 306.486C189.211 306.665 189.243 307.26 189.314 307.536Z" fill="#547C83"/>
<path d="M228.029 318.252L212.476 302.425C213.161 302.754 214.788 303.573 215.816 304.221C217.101 305.032 227.916 316.701 228.276 317.177C228.564 317.558 228.231 318.052 228.029 318.252Z" fill="#547C83"/>
<path d="M228.057 318.225L212.504 302.398C212.821 303.09 213.613 304.732 214.245 305.772C215.033 307.072 226.511 318.088 226.981 318.456C227.357 318.75 227.855 318.424 228.057 318.225Z" fill="#547C83"/>
<ellipse cx="211.612" cy="301.5" rx="0.443378" ry="0.444213" fill="#547C83"/>
<path d="M314.464 300.759H314.76L316.534 355.99H312.691L314.464 300.759Z" fill="white"/>
<ellipse cx="314.613" cy="301.499" rx="1.03455" ry="1.0365" fill="white"/>
<path d="M321.022 279.178L315.108 300.583C315.05 299.825 314.946 298.004 314.993 296.788C315.051 295.269 319.737 280.051 319.97 279.501C320.155 279.061 320.749 279.102 321.022 279.178Z" fill="#547C83"/>
<path d="M320.985 279.168L315.081 300.576C315.52 299.955 316.543 298.447 317.127 297.379C317.856 296.045 321.639 280.578 321.722 279.987C321.788 279.513 321.258 279.244 320.985 279.168Z" fill="#547C83"/>
<path d="M292.305 307.498L313.762 301.916C313.135 302.346 311.614 303.348 310.539 303.916C309.196 304.626 293.702 308.176 293.11 308.25C292.637 308.309 292.376 307.773 292.305 307.498Z" fill="#547C83"/>
<path d="M292.314 307.536L313.772 301.954C313.015 301.883 311.199 301.75 309.985 301.777C308.467 301.812 293.206 306.262 292.653 306.486C292.211 306.665 292.243 307.26 292.314 307.536Z" fill="#547C83"/>
<path d="M331.029 318.252L315.476 302.425C316.161 302.754 317.788 303.573 318.816 304.221C320.101 305.032 330.916 316.701 331.276 317.177C331.564 317.558 331.231 318.052 331.029 318.252Z" fill="#547C83"/>
<path d="M331.057 318.225L315.504 302.398C315.821 303.09 316.613 304.732 317.245 305.772C318.033 307.072 329.511 318.088 329.981 318.456C330.357 318.75 330.855 318.424 331.057 318.225Z" fill="#547C83"/>
<ellipse cx="314.612" cy="301.5" rx="0.443378" ry="0.444213" fill="#547C83"/>
<path d="M99.6298 306.088H99.8486L101.161 346.973H98.3169L99.6298 306.088Z" fill="white"/>
<ellipse cx="99.7395" cy="306.636" rx="0.765835" ry="0.767277" fill="white"/>
<path d="M104.484 290.112L100.106 305.958C100.063 305.396 99.9858 304.048 100.021 303.148C100.064 302.023 103.533 290.759 103.705 290.351C103.842 290.026 104.282 290.056 104.484 290.112Z" fill="#547C83"/>
<path d="M104.456 290.105L100.086 305.953C100.411 305.493 101.168 304.376 101.6 303.586C102.14 302.598 104.941 291.149 105.002 290.711C105.051 290.361 104.658 290.161 104.456 290.105Z" fill="#547C83"/>
<path d="M83.2259 311.076L99.11 306.944C98.6462 307.263 97.5197 308.004 96.7244 308.425C95.7302 308.95 84.2602 311.578 83.8223 311.633C83.4719 311.676 83.2787 311.28 83.2259 311.076Z" fill="#547C83"/>
<path d="M83.2325 311.104L99.1166 306.972C98.5568 306.92 97.2125 306.821 96.3135 306.841C95.1898 306.867 83.8926 310.161 83.4834 310.327C83.156 310.46 83.1798 310.9 83.2325 311.104Z" fill="#547C83"/>
<path d="M111.892 319.037L100.378 307.321C100.885 307.564 102.089 308.171 102.85 308.651C103.802 309.251 111.808 317.889 112.075 318.241C112.288 318.524 112.041 318.889 111.892 319.037Z" fill="#547C83"/>
<path d="M111.913 319.017L100.399 307.302C100.634 307.813 101.221 309.029 101.688 309.799C102.272 310.761 110.768 318.916 111.116 319.188C111.394 319.406 111.763 319.165 111.913 319.017Z" fill="#547C83"/>
<ellipse cx="99.7389" cy="306.636" rx="0.328215" ry="0.328833" fill="#547C83"/>
<path d="M267.144 292.801H267.751L271.394 406.249H263.501L267.144 292.801Z" fill="white"/>
<ellipse cx="267.448" cy="294.321" rx="2.12505" ry="2.12905" fill="white"/>
<path d="M280.615 248.47L268.467 292.44C268.347 290.882 268.133 287.142 268.229 284.644C268.349 281.522 277.975 250.265 278.452 249.135C278.834 248.231 280.053 248.315 280.615 248.47Z" fill="#547C83"/>
<path d="M280.538 248.45L268.411 292.425C269.312 291.15 271.415 288.05 272.613 285.858C274.111 283.117 281.883 251.347 282.053 250.132C282.189 249.16 281.099 248.606 280.538 248.45Z" fill="#547C83"/>
<path d="M221.625 306.643L265.701 295.177C264.414 296.06 261.288 298.119 259.081 299.285C256.322 300.743 224.495 308.035 223.28 308.187C222.308 308.308 221.772 307.208 221.625 306.643Z" fill="#547C83"/>
<path d="M221.645 306.72L265.721 295.254C264.167 295.11 260.437 294.835 257.942 294.892C254.824 294.963 223.477 304.104 222.341 304.564C221.433 304.932 221.499 306.155 221.645 306.72Z" fill="#547C83"/>
<path d="M301.169 328.732L269.221 296.223C270.628 296.898 273.97 298.581 276.081 299.912C278.721 301.577 300.938 325.546 301.677 326.524C302.268 327.307 301.585 328.322 301.169 328.732Z" fill="#547C83"/>
<path d="M301.228 328.677L269.279 296.167C269.931 297.587 271.559 300.961 272.855 303.097C274.475 305.767 298.051 328.396 299.016 329.151C299.789 329.755 300.812 329.087 301.228 328.677Z" fill="#547C83"/>
<ellipse cx="267.448" cy="294.321" rx="0.910737" ry="0.912451" fill="#547C83"/>
<path d="M1022.26 350.981C822.246 350.981 889.978 352.454 773.745 359.342C685.143 366.1 530.807 389.497 573.231 407.259C573.231 420.804 719.064 418.625 730.252 423.185C737.464 426.125 729.743 431.166 715.505 433.446C703.561 435.359 654.518 446.029 702.283 449.027C896.029 461.188 865.009 461.188 1058.75 461.188C1252.5 461.188 1292.67 440.666 1303.86 433.066C1315.05 425.465 1289.62 419.385 1242.33 419.385C1204.5 419.385 1205.91 411.301 1211.35 407.259C1202.5 399.134 1367.04 390.784 1338.72 374.279C1310.4 357.774 1172.03 350.981 1022.26 350.981Z" fill="#16353A"/>
<path d="M1016.62 355.99C819.953 355.99 886.551 357.53 772.264 364.731C685.147 371.797 533.397 396.257 575.11 414.827C575.11 428.987 718.5 426.709 729.5 431.477C736.591 434.55 729 439.82 715 442.204C703.256 444.203 655.129 454.168 702 458.493C823.5 469.704 878.5 471.707 999 471.707C1119.5 471.707 1282.5 449.752 1293.5 441.806C1304.5 433.86 1279.5 427.504 1233 427.504C1195.8 427.504 1197.19 419.052 1202.54 414.827C1193.84 406.332 1355.62 397.602 1327.77 380.347C1299.93 363.092 1163.88 355.99 1016.62 355.99Z" fill="#547C83"/>
<path d="M1134.09 383.732C1072.16 371.105 1011.76 370.718 976.758 371.105C907.265 372.842 775.694 386.041 750.497 392.295C719 400.113 910.528 392.295 915.027 400.402C919.527 408.509 837.535 406.193 860.033 416.037C882.53 425.882 1056.41 428.782 1086.91 423.57C1117.41 418.359 1044.02 420.67 1011.02 416.037C984.621 412.331 1011.02 409.861 1027.52 409.088C1066.01 408.22 1168.35 390.717 1134.09 383.732Z" fill="#C4DCDC"/>
<path d="M792.165 406.834C738.984 406.834 696.092 396.414 726.599 391.721C742.624 389.255 722.501 389.756 717.037 391.721C709.296 394.505 690.264 394.743 696.092 406.834C701.92 418.926 797.477 416.645 844.528 413.994C849.233 411.607 845.347 406.834 792.165 406.834Z" fill="#C4DCDC"/>
<path d="M1164.1 397.139C1201.74 387.48 1142.55 376.701 1109 372.02C1091.37 369.561 1055.94 367.011 1090.5 367.011C1108.03 367.011 1212.08 378.336 1205.67 390.396C1199.26 402.455 1135.25 417.245 1083.5 414.6C1078.32 412.22 1119.5 408.589 1164.1 397.139Z" fill="#C4DCDC"/>
<circle cx="853.001" cy="370.853" r="13.4978" fill="white"/>
<circle cx="888.806" cy="352.383" r="22.3069" fill="white"/>
<circle cx="915.659" cy="364.175" r="11.6508" fill="white"/>
<circle cx="955.443" cy="362.755" r="16.1974" fill="white"/>
<ellipse cx="934.414" cy="369.291" rx="10.5141" ry="6.53579" fill="white"/>
<ellipse cx="871.046" cy="364.175" rx="10.5141" ry="6.81996" fill="white"/>
<path d="M827.124 387.761C825.586 376.736 838.766 372.653 845.548 371.99L871.503 363.891H897.137C918.498 364.839 951.781 363.891 967.804 363.891C991.105 363.891 1003.3 380.941 1004.32 387.761H827.124Z" fill="white"/>
<ellipse cx="865.854" cy="375.684" rx="12.3514" ry="9.64131" fill="#C4DCDC"/>
<ellipse cx="898.617" cy="362.491" rx="20.4123" ry="15.9335" fill="#C4DCDC"/>
<ellipse cx="923.19" cy="370.915" rx="10.6612" ry="8.32197" fill="#C4DCDC"/>
<ellipse cx="959.594" cy="369.899" rx="14.8217" ry="11.5696" fill="#C4DCDC"/>
<ellipse cx="940.352" cy="374.568" rx="9.62108" ry="4.66842" fill="#C4DCDC"/>
<ellipse cx="882.365" cy="370.914" rx="9.62108" ry="4.8714" fill="#C4DCDC"/>
<path d="M842.174 389.568C840.767 381.692 852.828 378.776 859.034 378.303L882.784 372.518H906.241C925.788 373.195 956.244 372.518 970.906 372.518C992.228 372.518 1003.39 384.696 1004.32 389.568H842.174Z" fill="#C4DCDC"/>
<circle cx="918.217" cy="335.759" r="5.6833" fill="white"/>
<circle cx="901.737" cy="314.447" r="3.12581" fill="white"/>
<defs>
<linearGradient id="paint0_linear" x1="720" y1="502.911" x2="720" y2="335.321" gradientUnits="userSpaceOnUse">
<stop stop-color="#88A550" stop-opacity="0.3"/>
<stop offset="1" stop-color="#16353A"/>
</linearGradient>
<linearGradient id="paint1_linear" x1="364.6" y1="462.189" x2="344.64" y2="511.641" gradientUnits="userSpaceOnUse">
<stop stop-color="#16353A"/>
<stop offset="1" stop-color="#16353A" stop-opacity="0"/>
</linearGradient>
<linearGradient id="paint2_linear" x1="492.6" y1="438.144" x2="472.64" y2="487.596" gradientUnits="userSpaceOnUse">
<stop stop-color="#16353A"/>
<stop offset="1" stop-color="#16353A" stop-opacity="0"/>
</linearGradient>
<linearGradient id="paint3_linear" x1="410.6" y1="401.075" x2="390.64" y2="450.526" gradientUnits="userSpaceOnUse">
<stop stop-color="#16353A"/>
<stop offset="1" stop-color="#16353A" stop-opacity="0"/>
</linearGradient>
<linearGradient id="paint4_linear" x1="138.483" y1="379.291" x2="135.397" y2="403.944" gradientUnits="userSpaceOnUse">
<stop stop-color="#16353A"/>
<stop offset="1" stop-color="#16353A" stop-opacity="0"/>
</linearGradient>
<linearGradient id="paint5_linear" x1="94.0862" y1="343.919" x2="92.0905" y2="359.763" gradientUnits="userSpaceOnUse">
<stop stop-color="#16353A"/>
<stop offset="1" stop-color="#16353A" stop-opacity="0"/>
</linearGradient>
<linearGradient id="paint6_linear" x1="206.086" y1="352.936" x2="204.09" y2="368.78" gradientUnits="userSpaceOnUse">
<stop stop-color="#16353A"/>
<stop offset="1" stop-color="#16353A" stop-opacity="0"/>
</linearGradient>
<linearGradient id="paint7_linear" x1="307.086" y1="352.936" x2="305.09" y2="368.78" gradientUnits="userSpaceOnUse">
<stop stop-color="#16353A"/>
<stop offset="1" stop-color="#16353A" stop-opacity="0"/>
</linearGradient>
<linearGradient id="paint8_linear" x1="249.526" y1="399.636" x2="245.222" y2="433.063" gradientUnits="userSpaceOnUse">
<stop stop-color="#16353A"/>
<stop offset="1" stop-color="#16353A" stop-opacity="0"/>
</linearGradient>
</defs>
</svg>
