<svg width="140" height="95" viewBox="0 0 140 95" fill="none" xmlns="http://www.w3.org/2000/svg">
<path d="M105.041 53.4198C103.89 53.4198 103.842 54.7389 103.962 55.3984H108.638C110.257 55.3984 112.236 61.5137 113.315 61.6936C114.394 61.8735 113.315 58.2762 113.315 56.8372C113.315 55.3983 113.135 55.3984 112.236 54.3191C111.336 53.2399 112.775 53.4198 113.854 52.5205C114.934 51.6212 116.732 52.5205 117.632 52.5205C118.351 52.5205 116.732 51.5612 115.833 51.0816C115.293 51.2015 113.818 51.6571 112.236 52.5205C110.257 53.5997 110.797 49.8225 109.178 47.3044C107.559 44.7863 107.02 46.4051 106.3 46.585C105.581 46.7648 106.84 51.2615 107.02 52.5205C107.199 53.7796 106.48 53.4198 105.041 53.4198Z" fill="#16353A"/>
<path d="M80.3994 61.8735C79.2483 62.0174 78.3609 63.6122 78.0612 64.3916H81.4786C82.198 64.3916 83.601 64.9312 83.4571 67.0896C83.3132 69.248 85.4356 72.6654 86.5148 74.1043C87.594 71.5263 89.2847 66.0464 87.4141 64.7514C85.0759 63.1326 87.0544 62.4131 87.7739 61.8735C88.3494 61.4418 90.7716 61.0941 91.9107 60.9742C92.1506 60.5545 92.0546 59.823 89.7524 60.2548C86.8745 60.7944 85.4356 59.7151 84.5363 59.7151C83.637 59.7151 84.7162 58.8158 84.5363 57.9165C84.3924 57.197 81.7184 58.8158 80.3994 59.7151C80.879 60.3746 81.5505 61.7296 80.3994 61.8735Z" fill="#16353A"/>
<path d="M54.1393 72.6647C52.9881 72.8086 52.1008 74.4034 51.801 75.1828H55.2185C55.9379 75.1828 58.42 75.5431 58.2762 77.7015C58.1323 79.8599 59.3553 80.7592 60.4345 82.1981C61.5137 79.62 61.3339 76.0827 60.9741 75.1828C59.9185 72.5421 60.7943 73.2043 61.5137 72.6647C62.0893 72.233 64.5115 71.8853 65.6506 71.7654C65.8904 71.3457 65.7945 70.6142 63.4922 71.046C60.6144 71.5856 59.1755 70.5063 58.2762 70.5063C57.3768 70.5063 58.456 69.607 58.2762 68.7077C58.1323 67.9882 55.4583 69.607 54.1393 70.5063C54.6189 71.1658 55.2904 72.5208 54.1393 72.6647Z" fill="#16353A"/>
<path d="M27.8791 83.4572C26.728 83.6011 25.8407 84.4759 25.5409 85.2553H28.9583C29.6778 85.2553 31.0807 86.6948 30.9368 88.8532C30.7929 91.0116 32.1959 93.17 33.2751 94.6089C34.3543 92.0308 35.0737 86.1552 34.714 85.2553C33.6583 82.6146 34.5341 83.2768 35.2536 82.7372C35.8292 82.3055 38.2513 81.9578 39.3905 81.8379C39.6303 81.4182 39.5344 80.6868 37.2321 81.1185C34.3543 81.6581 32.9153 80.5788 32.016 80.5788C31.1167 80.5788 32.1959 79.6795 32.016 78.7802C31.8721 78.0607 29.1981 79.6795 27.8791 80.5788C28.3588 81.2383 29.0303 83.3133 27.8791 83.4572Z" fill="#16353A"/>
<path d="M31.4764 8.09381L29.8577 9.71259L34.8939 12.4106C35.9131 14.1493 37.34 17.6266 34.8939 17.6266C32.4477 17.6266 32.3158 19.3054 32.5556 20.1447C33.3351 19.9649 35.5054 19.6052 37.9516 19.6052C40.3977 19.6052 38.1314 22.9626 36.6925 24.6414L41.7287 19.6052L39.7502 17.6266L46.5851 16.0079L44.4267 14.5689C43.7072 15.0486 41.7647 16.0079 39.7502 16.0079C37.7357 16.0079 37.7118 12.6504 37.9516 10.9716L31.4764 8.09381Z" fill="#16353A"/>
<path d="M6.1154 3.59729L0 0C1.73869 1.97851 4.89232 6.22332 3.59729 7.37445C2.30227 8.52559 1.13914 10.0125 0.719459 10.612H6.1154C8.21382 12.7704 12.5546 16.7994 13.1301 15.6482C13.8496 14.2093 11.3315 9.53283 9.35297 8.99324C7.37445 8.45364 14.2093 7.37445 13.1301 6.65499C12.0509 5.93554 10.9717 6.47513 9.35297 7.37445C8.05794 8.09391 6.65499 5.15612 6.1154 3.59729Z" fill="#16353A"/>
<path d="M61.8736 12.5906C60.7224 11.4394 60.5546 13.0702 60.6145 14.0295L66.3702 23.5623C65.351 24.4017 63.4204 26.2603 63.8521 26.9797C64.2838 27.6992 66.9098 26.68 68.1689 26.0804C68.5885 26.9797 69.6078 28.8144 70.3272 28.9582C71.0467 29.1021 72.1858 27.0996 72.6655 26.0804C72.5456 25.6607 72.1978 24.7134 71.7662 24.2818C71.3345 23.8501 73.1451 22.9028 74.1044 22.4831C74.7639 22.2433 75.8671 21.6557 75.0037 21.2241C73.9245 20.6845 73.3849 22.3032 71.7662 22.4831C70.1474 22.663 68.5286 19.2455 68.1689 17.8066C67.8091 16.3677 63.3125 14.0295 61.8736 12.5906Z" fill="#16353A"/>
<path d="M96.767 22.3033C95.472 21.2961 94.9084 22.723 94.7885 23.5624C95.448 25.421 96.5872 29.1741 95.8677 29.318C94.9684 29.4979 92.9899 31.1167 93.3496 31.6563C93.7093 32.1958 98.206 30.9368 98.9254 31.6563C99.6449 32.3757 101.264 32.016 101.983 31.6563C102.559 31.3685 101.743 30.4572 101.264 30.0375C101.743 29.6178 102.846 28.7784 103.422 28.7784C104.141 28.7784 105.401 29.318 105.401 28.2388C105.401 27.3755 104.082 27.3995 103.422 27.5194C103.242 27.6992 102.559 28.2029 101.264 28.7784C99.9686 29.354 99.8847 26.74 100.005 25.361C99.465 24.7615 98.0621 23.3106 96.767 22.3033Z" fill="#16353A"/>
<path d="M128.963 39.93C128.099 39.93 127.164 41.0092 126.804 41.5488C127.344 42.2683 131.661 41.5488 132.74 41.5488C133.819 41.5488 135.978 49.283 136.877 49.283C137.776 49.283 136.877 42.8079 136.877 41.5488C136.877 40.2898 135.978 40.2898 135.258 39.93C134.539 39.5703 135.798 39.3904 135.978 38.671C136.157 37.9515 138.855 38.8508 139.755 38.671C140.654 38.4911 138.855 37.9515 137.956 37.4119C137.057 36.8723 136.517 37.9515 135.258 37.9515C133.999 37.9515 133.459 36.3327 132.74 36.3327C132.164 36.3327 130.462 37.0522 129.682 37.4119C129.802 38.2513 129.826 39.93 128.963 39.93Z" fill="#16353A"/>
</svg>
