<svg width="134" height="134" viewBox="0 0 134 134" fill="none" xmlns="http://www.w3.org/2000/svg">
<circle cx="67" cy="67" r="67" fill="#547C83"/>
<path d="M54.3423 110C53.5928 110 52.9861 109.393 52.9861 108.644V100.508H41.5901C39.662 100.508 38.0529 99.0634 37.8481 97.1462L36.3623 83.2876L30.9475 82.085C29.8954 81.8507 28.9907 81.1749 28.4693 80.2299C27.9472 79.2856 27.8556 78.1606 28.2203 77.1435L34.0548 60.8083C34.3605 54.9877 36.2234 49.3603 39.4541 44.5134C39.8692 43.8896 40.7087 43.7228 41.3348 44.1379C41.9586 44.5538 42.127 45.394 41.7111 46.0178C38.6953 50.5412 36.9799 55.8078 36.7479 61.2474C36.737 61.4856 36.6641 61.716 36.5384 61.9147L30.7729 78.0559C30.634 78.4454 30.7574 78.7643 30.8435 78.9194C30.9296 79.0746 31.1329 79.3485 31.5356 79.4369L37.9008 80.8514C38.4688 80.9786 38.8932 81.4519 38.9545 82.0307L40.5442 96.8576C40.6024 97.3922 41.0509 97.7964 41.5901 97.7964H54.3415C55.091 97.7964 55.6978 98.4031 55.6978 99.1526V108.644C55.6978 109.393 55.091 110 54.3423 110Z" fill="white"/>
<path d="M80.1029 35.826C79.9042 35.826 79.701 35.7826 79.5093 35.6887C76.1304 34.0415 72.5272 33.067 68.7984 32.7932C63.7149 32.4223 58.5996 33.3409 54.0297 35.4544C53.3524 35.7733 52.5447 35.4746 52.2304 34.7941C51.9154 34.1145 52.2118 33.3083 52.8907 32.9941C57.8765 30.6859 63.4511 29.6796 68.997 30.0892C73.0711 30.3887 77.0079 31.4517 80.6987 33.2525C81.3714 33.5807 81.6507 34.3922 81.3225 35.0657C81.0874 35.5467 80.6041 35.826 80.1029 35.826Z" fill="white"/>
<path d="M86.885 109.998C86.1355 109.998 85.5288 109.392 85.5288 108.642V91.0152C85.5288 87.8264 86.7035 84.7508 88.8363 82.3526C94.0587 76.4839 96.7246 68.9145 96.339 61.0425C96.0993 56.1289 94.6003 51.2929 92.0058 47.0566C91.6132 46.4189 91.8149 45.5833 92.4527 45.1922C93.0928 44.802 93.9268 45.0029 94.3171 45.6399C97.1498 50.2626 98.7861 55.5431 99.0484 60.9106C99.4681 69.4972 96.5601 77.7525 90.8629 84.1557C89.1715 86.0558 88.2413 88.4913 88.2413 91.0144V108.641C88.2405 109.391 87.6337 109.998 86.885 109.998Z" fill="white"/>
<path d="M77.9467 57.3507C75.8666 57.3507 73.7702 56.9798 71.7576 56.2148C71.396 56.0767 71.1097 55.7912 70.9724 55.4296C68.5369 49.0233 70.0894 41.758 74.9247 36.9205C79.7599 32.0844 87.0236 30.5288 93.4339 32.9666C93.7954 33.1039 94.0817 33.3902 94.219 33.7518C96.6529 40.1589 95.1012 47.425 90.2652 52.261C86.9483 55.5794 82.4886 57.3507 77.9467 57.3507ZM73.3 53.8872C78.572 55.6384 84.4136 54.2814 88.348 50.3438C92.2848 46.4055 93.6433 40.5608 91.8914 35.2942C86.6225 33.5423 80.7794 34.8985 76.8426 38.8376C72.9059 42.776 71.5473 48.6222 73.3 53.8872Z" fill="white"/>
<path d="M67.2565 61.286C66.9097 61.286 66.5629 61.1534 66.2983 60.8888C65.7684 60.3596 65.7684 59.5008 66.2983 58.9716L84.0417 41.2267L83.0471 33.6099C82.9493 32.8674 83.4738 32.1862 84.2155 32.09C84.9619 31.9829 85.6385 32.5159 85.7355 33.2577L86.817 41.5362C86.8721 41.9544 86.7293 42.3734 86.4314 42.6713L68.2155 60.8888C67.9509 61.1541 67.6041 61.286 67.2565 61.286Z" fill="white"/>
<path d="M90.2693 51.6976C90.2003 51.6976 90.1304 51.6922 90.0583 51.6821L78.4458 49.8704C77.7056 49.7548 77.1998 49.0612 77.3146 48.321C77.4302 47.5824 78.1122 47.0788 78.864 47.1906L90.4773 49.0014C91.2174 49.1171 91.7233 49.8107 91.6077 50.5509C91.503 51.2197 90.9257 51.6976 90.2693 51.6976Z" fill="white"/>
<path d="M56.1947 57.35C51.6512 57.35 47.1915 55.5787 43.8731 52.2603C39.0378 47.4243 37.4861 40.159 39.9192 33.7511C40.0573 33.3895 40.3436 33.104 40.7044 32.9659C47.1162 30.5367 54.3791 32.083 59.2136 36.9198C64.0496 41.7558 65.6014 49.021 63.1674 55.429C63.0301 55.7905 62.7438 56.0768 62.383 56.2141C60.3712 56.9784 58.2732 57.35 56.1947 57.35ZM42.2476 35.2935C40.4957 40.5601 41.8543 46.4048 45.791 50.3431C49.7301 54.2822 55.5732 55.6384 60.8398 53.8865C62.5917 48.6207 61.2332 42.7753 57.2964 38.8369C53.3597 34.8978 47.5119 33.5432 42.2476 35.2935Z" fill="white"/>
<path d="M66.5445 70.675C65.795 70.675 65.189 70.0691 65.189 69.3196V60.3839L47.7017 42.6645C47.4084 42.3681 47.2687 41.9507 47.323 41.5364L48.4038 33.2578C48.4993 32.5161 49.1774 31.9823 49.9238 32.0902C50.6655 32.1864 51.19 32.8668 51.0914 33.6101L50.0968 41.2315L67.5097 58.8763C67.7603 59.1285 67.8999 59.4722 67.8999 59.8283V69.3196C67.9007 70.0683 67.294 70.675 66.5445 70.675Z" fill="white"/>
<path d="M43.8715 51.6983C43.2144 51.6983 42.6371 51.2204 42.5324 50.5516C42.4175 49.8114 42.9234 49.1178 43.6636 49.0022L54.8897 47.2518C55.6454 47.151 56.3235 47.6452 56.4391 48.383C56.5539 49.1232 56.048 49.8168 55.3079 49.9317L44.0818 51.6828C44.0104 51.6937 43.9406 51.6983 43.8715 51.6983Z" fill="white"/>
<path d="M66.5454 77.4565C63.5544 77.4565 61.1221 75.0234 61.1221 72.0324C61.1221 69.0414 63.5544 66.6083 66.5454 66.6083C69.5364 66.6083 71.9695 69.0414 71.9695 72.0324C71.9695 75.0234 69.5364 77.4565 66.5454 77.4565ZM66.5454 69.3207C65.0503 69.3207 63.8337 70.5373 63.8337 72.0324C63.8337 73.5275 65.0503 74.7441 66.5454 74.7441C68.0405 74.7441 69.2571 73.5275 69.2571 72.0324C69.2571 70.5373 68.0405 69.3207 66.5454 69.3207Z" fill="white"/>
<path d="M80.104 69.3212C77.113 69.3212 74.6807 66.8889 74.6807 63.8971C74.6807 60.9061 77.113 58.4738 80.104 58.4738C83.0958 58.4738 85.5281 60.9061 85.5281 63.8971C85.5281 66.8889 83.0958 69.3212 80.104 69.3212ZM80.104 61.1854C78.6097 61.1854 77.3923 62.402 77.3923 63.8971C77.3923 65.3922 78.6097 66.6088 80.104 66.6088C81.5991 66.6088 82.8165 65.3922 82.8165 63.8971C82.8165 62.402 81.5991 61.1854 80.104 61.1854Z" fill="white"/>
<path d="M82.8162 82.8796C79.8244 82.8796 77.3921 80.4472 77.3921 77.4562C77.3921 74.4645 79.8244 72.0321 82.8162 72.0321C85.8072 72.0321 88.2396 74.4645 88.2396 77.4562C88.2396 80.4472 85.8072 82.8796 82.8162 82.8796ZM82.8162 74.7438C81.3211 74.7438 80.1038 75.9611 80.1038 77.4562C80.1038 78.9506 81.3211 80.1679 82.8162 80.1679C84.3105 80.1679 85.5279 78.9506 85.5279 77.4562C85.5279 75.9611 84.3105 74.7438 82.8162 74.7438Z" fill="white"/>
<path d="M51.6294 70.6764C48.6384 70.6764 46.2061 68.2441 46.2061 65.2531C46.2061 62.2621 48.6384 59.829 51.6294 59.829C54.6212 59.829 57.0535 62.2621 57.0535 65.2531C57.0535 68.2441 54.6212 70.6764 51.6294 70.6764ZM51.6294 62.5414C50.1351 62.5414 48.9177 63.758 48.9177 65.2531C48.9177 66.7482 50.1351 67.9648 51.6294 67.9648C53.1245 67.9648 54.3418 66.7482 54.3418 65.2531C54.3418 63.758 53.1245 62.5414 51.6294 62.5414Z" fill="white"/>
</svg>
