<svg width="98" height="99" viewBox="0 0 98 99" fill="none" xmlns="http://www.w3.org/2000/svg">
<path d="M9.79985 98.8981H76.7666C82.1768 98.8928 86.5612 94.5105 86.5664 89.1028C86.5664 88.2008 85.8352 87.4699 84.9328 87.4699C84.031 87.4699 83.2998 88.2008 83.2998 89.1028C83.2998 92.7094 80.3749 95.633 76.7666 95.633H9.79985C6.19154 95.633 3.26662 92.7094 3.26662 89.1028V82.5726C3.26662 78.966 6.19154 76.0424 9.79985 76.0424C13.4082 76.0424 16.3331 78.966 16.3331 82.5726C16.3331 83.4739 17.0643 84.2048 17.966 84.2048C18.8685 84.2048 19.5997 83.4739 19.5997 82.5726V23.8001H24.5V60.941C24.4992 61.1503 24.5396 61.3573 24.6174 61.5516L29.6351 74.0014C30.1315 75.2383 31.333 76.0469 32.6662 76.0424H37.5665C38.4682 76.0424 39.1994 75.3115 39.1994 74.4095C39.1994 73.5082 38.4682 72.7773 37.5665 72.7773H36.1907L40.7157 61.5516C40.7934 61.3573 40.8331 61.1503 40.8331 60.941V9.06119C40.8331 4.55253 37.1769 0.898071 32.6662 0.898071C28.1561 0.898071 24.5 4.55253 24.5 9.06119V20.535H19.5997V17.2699C19.5997 11.8599 15.2123 7.47385 9.79985 7.47385C4.38739 7.47385 0 11.8599 0 17.2699V89.1028C0.00523381 94.5105 4.38963 98.8928 9.79985 98.8981V98.8981ZM37.5665 57.6446C36.5533 57.0878 35.446 56.7231 34.2998 56.5706V28.6974C34.2998 27.7961 33.5686 27.0652 32.6662 27.0652C31.7645 27.0652 31.0332 27.7961 31.0332 28.6974V56.5706C29.887 56.7231 28.779 57.0878 27.7666 57.6446V17.2699H37.5665V57.6446ZM32.6662 72.7773L28.0933 61.4455C29.3046 60.2498 30.9659 59.622 32.6662 59.7162C34.3664 59.6212 36.0277 60.249 37.2397 61.4455L32.6662 72.7773ZM32.6662 4.20876C35.3586 4.19904 37.5508 6.37004 37.5665 9.06119V14.004H27.7666V9.06119C27.7816 6.37004 29.9738 4.19904 32.6662 4.20876ZM9.79985 10.739C13.4082 10.739 16.3331 13.6633 16.3331 17.2699V75.2913C12.6231 71.9388 6.97661 71.9388 3.26662 75.2913V17.2699C3.26662 13.6633 6.19154 10.739 9.79985 10.739V10.739Z" fill="#547C83"/>
<path d="M44.0996 23.5056V27.3589C44.0996 28.9148 45.198 30.2548 46.7247 30.5604L49.8179 31.1792L48.0683 33.8023C47.21 35.0989 47.3804 36.82 48.4773 37.9231L51.2048 40.6479C52.3076 41.7435 54.0288 41.9138 55.3253 41.0559L57.9504 39.3094L58.5695 42.3996C58.8753 43.9249 60.2158 45.0235 61.7725 45.0235H65.6268C67.1835 45.0235 68.5241 43.9249 68.8299 42.3996L69.4489 39.3094L72.0733 41.0574C73.3705 41.9168 75.0932 41.7464 76.196 40.6494L78.922 37.9231C80.0189 36.8208 80.1894 35.1004 79.3303 33.8038L77.583 31.1792L80.6746 30.5604C82.2014 30.2548 83.2997 28.9148 83.2997 27.3589V23.5056C83.2997 21.9497 82.2014 20.6105 80.6746 20.3048L77.583 19.686L79.3303 17.0622C80.1894 15.7655 80.0189 14.0444 78.922 12.9414L76.1945 10.2166C75.0917 9.12029 73.3698 8.94989 72.0733 9.80858L69.4489 11.5558L68.8299 8.46488C68.5241 6.93958 67.1835 5.84175 65.6268 5.84175H61.7725C60.2158 5.84175 58.8753 6.93958 58.5695 8.46488L57.9504 11.5558L55.3253 9.80858C54.028 8.95064 52.3061 9.12103 51.2033 10.2166L48.4773 12.9429C47.3804 14.0459 47.21 15.7663 48.0683 17.0622L49.8164 19.686L46.7247 20.3048C45.198 20.6105 44.0996 21.9497 44.0996 23.5056V23.5056ZM47.3662 23.5056L50.4601 22.8868C51.5278 22.6739 52.4198 21.9415 52.837 20.9356C53.2535 19.9289 53.1413 18.7818 52.5372 17.8752L50.7861 15.2499L53.5144 12.5251L56.1387 14.2754C57.0457 14.8792 58.1941 14.9913 59.2005 14.5743C60.2069 14.158 60.9396 13.2665 61.1534 12.1985L61.7725 9.10683H65.6268L66.2459 12.1985C66.4597 13.2665 67.1924 14.158 68.1988 14.5743C69.2052 14.9913 70.3536 14.8792 71.2606 14.2754L73.8864 12.5251L76.6125 15.2514L74.8614 17.8752C74.258 18.7818 74.1451 19.9289 74.5623 20.9356C74.9795 21.9415 75.8708 22.6739 76.9392 22.8868L80.0331 23.5056V27.3589L76.9392 27.9776C75.8708 28.1914 74.9795 28.923 74.5623 29.9297C74.1451 30.9356 74.258 32.0835 74.8614 32.9892L76.6125 35.6146L73.8849 38.3394L71.2606 36.5891C70.3536 35.9853 69.2052 35.8732 68.1988 36.2902C67.1924 36.7072 66.4597 37.598 66.2459 38.666L65.6268 41.7584H61.7725L61.1534 38.666C60.9396 37.598 60.2069 36.7072 59.2005 36.2902C58.1941 35.8732 57.0457 35.9853 56.1387 36.5891L53.5122 38.3394L50.7861 35.6131L52.5372 32.9892C53.1413 32.0835 53.2535 30.9356 52.837 29.9297C52.4198 28.923 51.5278 28.1914 50.4601 27.9776L47.3662 27.3589V23.5056Z" fill="#547C83"/>
<path d="M63.6997 35.2275C69.1122 35.2275 73.5003 30.8422 73.5003 25.4323C73.5003 20.0224 69.1122 15.637 63.6997 15.637C58.2873 15.637 53.8999 20.0224 53.8999 25.4323C53.9051 30.84 58.2895 35.2223 63.6997 35.2275V35.2275ZM63.6997 18.9021C67.308 18.9021 70.2337 21.8257 70.2337 25.4323C70.2337 29.0389 67.308 31.9625 63.6997 31.9625C60.0914 31.9625 57.1665 29.0389 57.1665 25.4323C57.1665 21.8257 60.0914 18.9021 63.6997 18.9021V18.9021Z" fill="#547C83"/>
<path d="M95.3753 61.1186L92.2837 60.4998L94.0325 57.876C94.8916 56.5801 94.7211 54.8583 93.6243 53.756L90.8952 51.0312C89.7924 49.9349 88.0705 49.7645 86.774 50.6232L84.1496 52.3697L83.5306 49.2795C83.2248 47.7534 81.8842 46.6556 80.3275 46.6556H76.4725C74.9158 46.6556 73.576 47.7534 73.2702 49.2795L72.6511 52.3697L70.026 50.6232C68.7287 49.7637 67.0068 49.9341 65.9033 51.0312L63.1772 53.7574C62.0811 54.8598 61.9106 56.5801 62.769 57.876L64.5171 60.4998L61.4247 61.1186C59.8986 61.4243 58.8003 62.7642 58.8003 64.3202V68.1726C58.8003 69.7286 59.8986 71.0685 61.4247 71.3742L64.5186 71.993L62.769 74.6168C61.9106 75.9127 62.0811 77.6345 63.1772 78.7368L65.9055 81.4616C67.0083 82.5572 68.7295 82.7275 70.026 81.8696L72.6511 80.1231L73.2702 83.2133C73.576 84.7394 74.9158 85.8372 76.4725 85.8372H80.3275C81.8842 85.8372 83.2248 84.7394 83.5306 83.2133L84.1496 80.1231L86.774 81.8719C88.0712 82.7305 89.7939 82.5601 90.8967 81.4638L93.6228 78.7368C94.7189 77.6345 94.8893 75.9142 94.031 74.6183L92.2837 71.993L95.3753 71.3742C96.9013 71.0685 98.0004 69.7286 98.0004 68.1726V64.3202C98.0004 62.7642 96.9013 61.4243 95.3753 61.1186V61.1186ZM94.7338 68.1726L91.6399 68.7914C90.5715 69.0051 89.6802 69.7375 89.263 70.7434C88.8458 71.7493 88.958 72.8972 89.5621 73.8037L91.3132 76.4283L88.5856 79.1531L85.9605 77.4036C85.0543 76.7998 83.9059 76.6877 82.8995 77.1039C81.8924 77.5209 81.1604 78.4117 80.9466 79.4797L80.3275 82.5721H76.4725L75.8534 79.4797C75.6403 78.4117 74.9076 77.5209 73.9012 77.1039C72.8941 76.6877 71.7464 76.7998 70.8394 77.4036L68.2128 79.1531L65.4868 76.4268L67.2379 73.8037C67.842 72.8972 67.9541 71.7493 67.5369 70.7434C67.1205 69.7375 66.2285 69.0051 65.1601 68.7914L62.0669 68.1726V64.3202L65.1601 63.7014C66.2285 63.4876 67.1205 62.7553 67.5369 61.7494C67.9541 60.7435 67.842 59.5956 67.2379 58.6891L65.4868 56.0644L68.2143 53.3397L70.8394 55.0892C71.7464 55.693 72.8941 55.8051 73.9012 55.3889C74.9076 54.9719 75.6403 54.081 75.8534 53.0131L76.4725 49.9207H80.3275L80.9466 53.0131C81.1604 54.081 81.8924 54.9719 82.8995 55.3889C83.9059 55.8051 85.0543 55.693 85.9605 55.0892L88.5871 53.3397L91.3132 56.0659L89.5621 58.6891C88.958 59.5956 88.8458 60.7435 89.263 61.7494C89.6802 62.7553 90.5715 63.4876 91.6399 63.7014L94.7338 64.3202V68.1726Z" fill="#547C83"/>
<path d="M78.3994 56.4509C72.987 56.4509 68.5996 60.8369 68.5996 66.2469C68.5996 71.656 72.987 76.0421 78.3994 76.0421C83.8119 76.0421 88.1993 71.656 88.1993 66.2469C88.194 60.8392 83.8097 56.4569 78.3994 56.4509V56.4509ZM78.3994 72.777C74.7911 72.777 71.8662 69.8527 71.8662 66.2469C71.8662 62.6402 74.7911 59.716 78.3994 59.716C82.0077 59.716 84.9327 62.6402 84.9327 66.2469C84.9327 69.8527 82.0077 72.777 78.3994 72.777V72.777Z" fill="#547C83"/>
<path d="M42.4663 74.4093C42.4663 75.3113 43.1975 76.0421 44.1 76.0421H55.5335C56.4352 76.0421 57.1664 75.3113 57.1664 74.4093C57.1664 73.5081 56.4352 72.7773 55.5335 72.7773H44.1C43.1975 72.7773 42.4663 73.5081 42.4663 74.4093V74.4093Z" fill="#547C83"/>
<path d="M31.0331 82.5724H39.1993C40.1017 82.5724 40.8329 81.8415 40.8329 80.9394C40.8329 80.0381 40.1017 79.3072 39.1993 79.3072H31.0331C30.1306 79.3072 29.3994 80.0381 29.3994 80.9394C29.3994 81.8415 30.1306 82.5724 31.0331 82.5724Z" fill="#547C83"/>
<path d="M44.0996 80.9394C44.0996 81.8415 44.8308 82.5724 45.7333 82.5724H58.7997C59.7014 82.5724 60.4327 81.8415 60.4327 80.9394C60.4327 80.0381 59.7014 79.3072 58.7997 79.3072H45.7333C44.8308 79.3072 44.0996 80.0381 44.0996 80.9394V80.9394Z" fill="#547C83"/>
<path d="M29.3994 87.4698C29.3994 88.3719 30.1306 89.1029 31.0331 89.1029H63.6992C64.6017 89.1029 65.3329 88.3719 65.3329 87.4698C65.3329 86.5684 64.6017 85.8374 63.6992 85.8374H31.0331C30.1306 85.8374 29.3994 86.5684 29.3994 87.4698V87.4698Z" fill="#547C83"/>
</svg>
