<svg width="342" height="327" viewBox="0 0 342 327" fill="none" xmlns="http://www.w3.org/2000/svg">
<path d="M217.404 11.1174C161.224 -28.5383 163.584 51.2461 79.0797 43.4054C-26.199 40.3879 -9.96322 161.219 33.7573 176.352C70.582 189.099 65.8609 196.967 70.5819 207.038C80.9681 226.394 57.3631 320.342 174.916 287.767C292.468 255.192 391.137 173.047 313.24 139.056C235.344 105.065 263.113 43.3817 217.404 11.1174Z" fill="#16353A"/>
<path d="M255.652 96.4657C250.944 89.6939 249.999 94.2044 247.884 98.3308C243.212 98.3308 245.191 139.995 245.191 139.995C245.191 139.995 246.89 183.241 249.999 183.241C253.108 183.241 255.652 142.256 255.652 142.256C255.652 142.256 260.36 103.237 255.652 96.4657Z" fill="#547C83"/>
<path d="M266.407 96.1668C261.699 89.395 264.734 98.4168 258.639 98.032C251.283 101.495 258.639 145.632 258.639 145.632C258.639 145.632 263.298 182.66 266.407 182.66C269.516 182.66 269.516 139.696 269.516 139.696C269.516 139.696 271.115 102.939 266.407 96.1668Z" fill="#547C83"/>
<path d="M283.216 82.251C284.121 79.7636 269.931 71.6985 262.582 66.1396V79.1418C265.692 79.9897 272.306 81.7987 273.889 82.251C275.867 82.8163 270.779 89.8827 267.953 92.4266C265.692 94.4617 270.874 94.5936 272.758 94.6879C276.244 93.3688 282.312 84.7384 283.216 82.251Z" fill="#C4DCDC"/>
<path d="M250.89 66.3336C253.217 65.7476 253.799 59.7416 253.799 56.8119H259.134C259.619 59.172 259.134 66.3336 262.043 66.3336C264.871 66.3336 266.436 68.1219 268.105 72.6406C270.649 79.5253 269.318 101.491 268.105 103.688C266.893 105.885 250.89 106.129 247.253 103.688C243.616 101.247 243.858 72.4373 244.828 69.9958C245.798 67.5543 247.98 67.066 250.89 66.3336Z" fill="#C4DCDC"/>
<ellipse cx="259.779" cy="50.6523" rx="8.76234" ry="11.8716" transform="rotate(15.0846 259.779 50.6523)" fill="white"/>
<path d="M257.691 48.6258C256.053 48.1844 253.735 52.4388 250.341 53.0852C250.542 45.8209 251.846 43.6042 254.964 40.2794C258.25 36.7741 266.348 38.0997 268.704 42.5193C271.621 47.9893 267.262 57.6459 266.716 57.4988C266.279 57.3811 265.087 51.5952 263.863 48.533C262.044 48.0426 259.019 48.9837 257.691 48.6258Z" fill="#547C83"/>
<path d="M204.999 123.064L208.047 131.298C217.44 123.868 221.442 118.98 244.948 100.332C254.079 91.9461 256.453 99.3921 260.746 97.5476C271.25 89.755 264.459 77.4553 259.273 77.7898C257.986 78.6249 257.082 79.6341 256.509 80.789C255.076 82.1989 253.506 83.6296 252.564 84.4591C205.063 123.351 221.011 111.39 204.999 123.064Z" fill="#547C83"/>
<path fill-rule="evenodd" clip-rule="evenodd" d="M284.142 85.1845L295.021 89.9333L295.776 88.2026L287.763 84.7046L295.802 83.6391L295.554 81.767L284.416 83.2434L275.833 79.4967L266.467 85.3488L258.696 86.0455L272.237 78.1099L277.432 66.0218L275.697 65.2761L270.747 76.7943L252.501 87.487L253.456 89.1162L255.275 88.05L255.293 88.2465L262.924 87.5623L258.765 90.161L251.817 89.8564L251.734 91.743L255.938 91.9273L254.429 92.8703L255.43 94.4718L259.269 92.0733L269.321 92.514L282.7 89.4219L282.274 87.582L269.147 90.6161L262.095 90.307L267.085 87.1893L273.056 86.6539L284.142 85.1845ZM280.795 83.7233L272.848 84.7767L270.628 84.9757L275.99 81.6255L280.795 83.7233Z" fill="white"/>
<path d="M259.888 80.3767C258.722 83.9831 256.356 87.058 260.288 96.0959L245.746 92.4887C252.878 85.7022 261.054 76.7703 259.888 80.3767Z" fill="#547C83"/>
<path d="M217.513 63.5707C210.602 50.9017 183.289 72.697 178.767 81.9738L182.159 83.6697C185.033 79.4104 197.444 63.6729 209.083 67.3265C220.723 70.9801 212.069 91.6234 206.287 101.488C206.496 109.24 208.093 121.544 212.811 108.751C218.709 92.7598 226.151 79.4069 217.513 63.5707Z" fill="#547C83"/>
<path d="M234.317 94.9705C233.412 92.257 241.477 76.1268 245.623 68.4008C249.467 68.4008 250.616 76.5036 249.58 80.555C246.659 84.7949 240.818 88.7521 240.818 92.9919C240.818 97.2317 246.471 101.472 242.514 104.298C239.404 106.519 235.447 98.3624 234.317 94.9705Z" fill="#C4DCDC"/>
<path d="M273.889 94.1225C273.889 94.9705 270.779 97.2317 268.518 94.6878C267.953 93.5572 268.97 91.7482 270.779 91.2959C273.041 90.7306 273.889 93.2745 273.889 94.1225Z" fill="white"/>
<path d="M268.236 179.202C268.009 178.749 265.692 179.013 264.561 179.202C264.184 179.955 263.43 181.689 263.43 182.594C263.43 183.724 267.105 184.007 268.801 183.159C270.497 182.311 268.518 179.767 268.236 179.202Z" fill="white"/>
<mask id="mask0" mask-type="alpha" maskUnits="userSpaceOnUse" x="76" y="46" width="192" height="192">
<path fill-rule="evenodd" clip-rule="evenodd" d="M181.047 47.0729L191.07 61.8996V85.3601H208.312L217.357 107.125L249.015 120.975L251.841 131.15L265.693 124.164C266.805 129.996 267.388 136.017 267.388 142.174C267.388 194.938 224.614 237.711 171.85 237.711C119.086 237.711 76.3122 194.938 76.3122 142.174C76.3122 89.4096 119.086 46.6359 171.85 46.6359C174.952 46.6359 178.02 46.7838 181.047 47.0729Z" fill="#3E5E00"/>
</mask>
<g mask="url(#mask0)">
<circle cx="171.85" cy="142.174" r="95.5378" fill="#88A550"/>
<path d="M202.98 99.7754C200.719 100.68 199.777 103.167 199.588 104.298C199.588 107.124 201.002 108.255 202.98 108.538C204.959 108.82 206.655 107.124 208.068 100.623C209.481 94.1223 204.959 93.8397 202.98 94.1223C201.002 94.405 205.807 98.6448 202.98 99.7754Z" fill="#3E5E00"/>
<path d="M171.04 63.3129C161.09 57.2075 164.444 55.8696 167.365 55.9638L193.37 47.7668C202.509 54.4563 220.957 69.4748 221.635 76.0324C222.483 84.2294 216.265 84.2294 215.134 83.6641C214.003 83.0988 205.241 83.6641 203.545 86.7733C201.849 89.8825 192.522 98.3622 195.631 89.0346C198.74 79.7069 191.391 77.7283 190.26 77.7283C189.13 77.7283 178.106 85.36 180.367 77.7283C182.629 70.0966 183.477 70.9446 171.04 63.3129Z" fill="#3E5E00"/>
<path d="M95.2881 81.1201C104.239 81.7796 126.154 84.3989 124.119 87.3385C121.575 91.013 115.922 93.5569 117.618 97.5141C119.314 101.471 124.119 103.45 124.119 101.471C124.119 99.4927 128.642 97.5141 130.62 97.5141C132.599 97.5141 134.012 93.2743 135.991 93.8396C137.969 94.4049 140.796 94.9702 141.644 93.8396C142.492 92.709 141.361 99.7754 135.991 104.015C130.62 108.255 139.1 103.733 138.817 115.039C138.534 126.345 132.153 124.572 128.642 128.041C125.494 131.15 126.586 138.448 124.119 138.782C121.048 139.198 123.049 136.628 122.639 134.44L122.385 133.694C121.21 131.45 118.536 129.819 117.618 130.019C111.412 131.373 104.901 134.321 103.768 142.739C101.789 157.437 118.183 165.352 116.487 166.482C114.791 167.613 113.095 164.504 111.117 164.786C109.138 165.069 106.029 166.2 104.898 164.786C103.768 163.373 93.5922 153.48 94.1575 151.784C94.7228 150.088 97.5493 143.87 94.1575 141.043C90.7656 138.217 93.0269 137.934 92.1789 135.955C91.3309 133.977 87.0911 133.411 86.8084 131.15C86.5258 128.889 88.5044 127.476 86.8084 125.214C85.1125 122.953 81.7206 118.996 85.1125 113.626C88.5044 108.255 85.1125 109.668 85.1125 106.842C85.1125 104.015 88.787 98.6447 95.2881 96.9488C100.489 95.592 96.1361 90.7304 93.3095 88.4691C91.0103 88.4691 90.3134 83.8336 95.2881 81.1201Z" fill="#3E5E00"/>
<path d="M159.734 159.416C154.533 160.546 147.956 163.467 145.318 164.786C141.637 166.482 142.492 171.287 143.622 173.831C144.753 176.375 141.078 176.658 137.121 177.506C133.164 178.354 139.382 185.42 139.382 186.551C139.382 187.681 138.817 191.574 140.23 191.921C152.967 195.05 157.19 202.38 160.864 206.337C165.424 211.247 166.8 221.883 166.8 225.84C166.8 229.797 170.757 230.08 172.453 231.493C174.149 232.906 173.867 241.103 175.562 241.951C177.258 242.799 178.106 236.016 178.672 232.906C179.237 229.797 182.629 229.232 183.759 228.101C184.89 226.971 182.629 221.883 185.455 221.035C188.282 220.187 193.37 211.707 194.783 207.185C196.196 202.662 217.396 175.81 205.524 171.287C193.652 166.765 199.871 163.09 190.543 163.373C181.216 163.656 181.498 159.416 172.171 156.307C162.843 153.197 166.235 158.003 159.734 159.416Z" fill="#3E5E00"/>
<path d="M220.787 99.7754C229.832 95.2529 233.036 89.9767 233.507 87.9039L249.901 94.1223L255.837 117.3L266.012 146.131C264.505 148.675 260.585 153.932 256.967 154.611C252.445 155.459 255.271 150.088 251.597 148.392C247.922 146.696 243.682 148.675 236.616 148.392C229.549 148.11 236.051 133.129 229.549 138.499C223.048 143.87 210.046 138.782 208.068 133.129C206.089 127.476 207.785 124.084 207.22 118.431C206.654 112.778 214.003 113.626 217.113 110.234C220.222 106.842 209.481 105.429 220.787 99.7754Z" fill="#3E5E00"/>
</g>
<path d="M185.653 266.34C180.248 262.206 183.401 219.299 185.653 198.363C224.439 180.554 273.479 185.642 268.71 193.195C268.71 193.195 268.71 219.432 271.094 233.743C273.479 248.054 268.71 247.656 268.71 247.656C239.302 230.563 192.409 271.508 185.653 266.34Z" fill="white"/>
<path d="M199.144 219.985C198.468 220.661 197.455 239.981 197.032 249.557L205.059 246.177L206.326 217.028C204.214 217.732 199.82 219.309 199.144 219.985Z" fill="#C4DCDC"/>
<path d="M212.471 222.635C211.856 223.144 210.935 237.697 210.55 244.91L217.847 242.364L219 220.407C217.079 220.938 213.085 222.126 212.471 222.635Z" fill="#88A550"/>
<path d="M225.759 210.691L224.914 239.418C226.886 238.995 231.166 237.981 232.518 237.305C233.87 236.629 233.082 218.154 232.518 209.001L225.759 210.691Z" fill="#3E5E00"/>
<path d="M239.7 216.183V235.616L245.614 234.771V216.183C245.614 213.648 239.7 215.338 239.7 216.183Z" fill="#547C83"/>
<path d="M252.487 228.245C252.487 230.705 252.233 232.236 251.951 234.771H257.443C257.584 230.405 257.781 221.421 257.443 220.407C257.105 219.393 253.641 219.421 251.951 219.562C251.669 220.125 252.487 225.855 252.487 228.245Z" fill="#C4DCDC"/>
<path d="M193.167 212.803C192.365 225.11 191.22 248.984 191.54 251.669C191.941 255.025 236.07 228.326 262.935 236.297" stroke="#547C83" stroke-width="2" stroke-linecap="round"/>
<path d="M226.567 302.999C223.342 300.336 206.549 298.967 198.557 298.616L222.896 311.3C225.463 309.643 229.792 305.663 226.567 302.999Z" fill="#295259"/>
<path d="M197.232 298.063C204.771 299.434 218.363 305.487 224.217 308.343L240.922 305.773C246.062 299.348 256.604 287.543 259.34 288.64C270.497 293.112 250.156 315.571 246.49 320.336C242.207 325.905 233.627 327.706 227.644 326.761C219.505 325.476 193.377 308.343 188.666 302.775C183.954 297.206 187.809 296.35 197.232 298.063Z" fill="#547C83"/>
<path d="M243.65 270.626C241.796 268.386 243.28 265.428 244.253 264.229C241.335 263.237 235.91 261.462 237.551 262.306C239.603 263.36 237.374 268.743 236.827 269.982C236.279 271.221 229.151 269.257 226.696 272.467C224.242 275.678 216.068 302.278 223.275 308.714C226.696 311.77 238.879 310.255 242.787 307.114C255.85 296.615 250.394 275.844 245.905 274.174C244.067 273.49 245.967 273.426 243.65 270.626Z" fill="#C4DCDC"/>
<ellipse cx="240.152" cy="255.036" rx="10.28" ry="13.2783" transform="rotate(10.7314 240.152 255.036)" fill="white"/>
<path d="M243.076 236.706C243.076 238.41 239.073 241.676 237.071 243.096C236.238 246.296 238.169 250.325 237.929 254.598C237.55 261.323 235.895 268.021 240.931 268.229C251.227 268.655 252.942 254.172 252.942 252.468C252.942 251.105 254.658 248.776 255.516 247.782C253.943 248.35 250.883 248.804 251.227 246.078C251.655 242.67 249.082 237.984 249.082 238.836C249.082 239.518 247.652 239.972 246.937 240.114V236.706C246.937 235.684 246.079 236.28 245.65 236.706L244.792 237.984C244.22 236.848 243.076 235.002 243.076 236.706Z" fill="#547C83"/>
<path d="M207.94 274.504C215.479 274.847 228.5 269.364 235.354 271.078V283.499C235.354 279.644 220.362 282.214 211.367 283.499C204.171 284.527 189.522 272.791 183.097 266.794L188.237 264.224C194.519 267.223 200.402 274.162 207.94 274.504Z" fill="#C4DCDC"/>
<path d="M183.097 260.798C181.726 261.826 182.812 265.224 183.525 266.794L188.237 264.224C187.095 262.654 184.468 259.77 183.097 260.798Z" fill="white"/>
<path d="M269.192 262.511C267.136 268.679 250.346 271.078 242.207 271.506C243.207 273.791 245.977 278.531 249.061 279.216C252.916 280.073 269.192 273.22 273.904 269.793C278.616 266.366 275.617 241.523 273.904 239.81C272.533 238.439 270.192 242.38 269.192 244.521C270.049 247.948 271.248 256.343 269.192 262.511Z" fill="#C4DCDC"/>
<path d="M274.332 242.052C273.047 244.093 270.547 244.95 269.336 244.95C264.249 244.063 267.671 238.726 269.336 235.955C271.001 236.878 275.75 239.8 274.332 242.052Z" fill="white"/>
<path d="M125.777 254.213V250.539C102.599 249.031 64.0447 253.365 63.5924 253.365C63.0271 253.365 57.9392 256.852 60.4832 258.453C68.115 263.258 100.62 284.458 104.86 283.61C106.428 283.296 119.464 264.106 125.777 254.213Z" fill="#295259"/>
<path d="M168.74 252.8C155.455 272.021 134.821 257.417 122.385 258.736C122.102 258.171 119.275 262.41 119.841 262.976C121.683 264.818 163.408 284 175.524 254.779C180.329 243.19 172.415 237.994 171.849 237.711C170.436 237.711 167.892 237.711 165.348 237.429C165.819 238.183 174.45 244.54 168.74 252.8Z" fill="#547C83"/>
<path d="M83.3781 234.428V204.749C83.3781 200.905 111.644 209.177 125.777 213.794C127.567 226.325 130.073 251.387 125.777 251.387C119.747 260.715 106.895 279.483 103.729 279.935C100.564 280.387 75.9348 266.273 61.0482 254.779L83.3781 234.428Z" fill="#547C83"/>
<path d="M74.0506 244.555C77.026 242.712 81.0725 236.406 82.5006 236.406C83.9288 236.406 109.874 246.496 122.668 251.54C119.791 256.197 113.623 265.568 111.956 265.801C111.327 265.889 104.173 261.236 98.8649 257.361L102.138 254.16C96.7809 250.263 88.6457 248.207 82.7982 244.555C82.0835 244.109 80.6779 247.298 79.9864 246.865C77.368 246.445 76.1329 245.876 74.0506 244.555Z" fill="#295259"/>
<path d="M98.8649 252.996C94.4019 250.958 87.6579 247.175 82.5006 244.846C82.5006 244.846 81.3417 247.274 80.5517 247.43C80.1393 247.511 97.9723 256.779 97.9723 256.779L100.65 254.16C100.253 253.966 100.551 253.765 98.8649 252.996Z" fill="#295259"/>
<path d="M82.5304 251.104C81.852 250.652 76.6887 256.757 74.3333 258.736L89.3141 268.064C91.7637 266.462 97.2284 260.715 95.5326 258.736C94.6128 257.663 83.3783 251.67 82.5304 251.104Z" fill="#295259"/>
<path d="M85.1426 231.86C84.8708 228.602 84.5113 214.38 85.1426 207.575C97.6428 210.039 122.868 216.768 124.081 217.331C125.596 218.035 125.671 242.805 126.052 244.883C126.667 248.228 85.479 235.892 85.1426 231.86Z" fill="#295259"/>
<path d="M92.0419 208.896L85.0742 207.576C84.2262 213.888 84.5089 231.392 85.1272 231.995C86.3142 233.154 89.9565 235.295 92.0419 235.955V208.896Z" fill="#16353A"/>
<path d="M85.6373 212.763C85.3062 212.763 85.4166 211.745 85.6373 211.542L86.6307 211.847L86.6307 213.068C86.41 213.068 85.9685 212.763 85.6373 212.763Z" fill="#A1BFC4"/>
<path d="M85.6373 214.594C85.3062 214.594 85.4166 213.577 85.6373 213.373L86.6307 213.678L86.6307 214.899C86.41 214.899 85.9685 214.594 85.6373 214.594Z" fill="#A1BFC4"/>
<path d="M87.082 212.915V212.305L89.0359 212.915V213.526L87.082 212.915Z" fill="#A1BFC4"/>
<path d="M86.9314 214.594V213.983L88.8853 214.594V215.204L86.9314 214.594Z" fill="#A1BFC4"/>
<path d="M85.6373 224.359C85.3062 224.359 85.4166 223.342 85.6373 223.138L86.6307 223.443L86.6307 224.664C86.41 224.664 85.9685 224.359 85.6373 224.359Z" fill="#A1BFC4"/>
<path d="M86.9314 224.359V223.749L88.8853 224.359V224.969L86.9314 224.359Z" fill="#A1BFC4"/>
<path d="M86.8398 220.697C86.5087 220.697 86.6191 219.68 86.8399 219.476L87.8332 219.782L87.8333 221.002C87.6125 221.002 87.171 220.697 86.8398 220.697Z" fill="#A1BFC4"/>
<path d="M86.8398 222.528C86.5087 222.528 86.6191 221.511 86.8399 221.307L87.8332 221.612L87.8333 222.833C87.6125 222.833 87.171 222.528 86.8398 222.528Z" fill="#A1BFC4"/>
<path d="M88.2842 220.85V220.239L90.2381 220.85V221.46L88.2842 220.85Z" fill="#A1BFC4"/>
<path d="M88.1339 222.528V221.918L90.0878 222.528V223.138L88.1339 222.528Z" fill="#A1BFC4"/>
<path d="M86.8398 217.035C86.5087 217.035 86.6191 216.018 86.8399 215.815L87.8332 216.12L87.8333 217.34C87.6125 217.34 87.171 217.035 86.8398 217.035Z" fill="#A1BFC4"/>
<path d="M86.8398 218.866C86.5087 218.866 86.6191 217.849 86.8399 217.646L87.8332 217.951L87.8333 219.171C87.6125 219.171 87.171 218.866 86.8398 218.866Z" fill="#A1BFC4"/>
<path d="M88.2842 217.188V216.577L90.2381 217.188V217.798L88.2842 217.188Z" fill="#A1BFC4"/>
<path d="M88.1339 218.866V218.256L90.0878 218.866V219.476L88.1339 218.866Z" fill="#A1BFC4"/>
<path d="M93.0329 215.032L93.0678 214.137L110.571 217.852L110.536 218.747L93.0329 215.032Z" fill="#E5E5E5"/>
<path d="M92.964 217.23L92.964 216.442L102.432 218.578L102.432 219.32L92.964 217.23Z" fill="#E5E5E5"/>
<path d="M103.15 219.566L103.15 218.779L117.863 221.935L117.863 222.851L103.15 219.566Z" fill="#DF8D8D"/>
<path d="M95.2766 220.177L95.2766 219.389L104.745 221.525L104.745 222.266L95.2766 220.177Z" fill="#E5E5E5"/>
<path d="M104.724 226.28L104.724 225.492L114.192 227.628L114.192 228.369L104.724 226.28Z" fill="#DF8D8D"/>
<path d="M97.1662 222.618L97.1662 221.83L106.634 223.966L106.634 224.708L97.1662 222.618Z" fill="#E5E5E5"/>
<path d="M97.1662 224.449L97.1662 223.661L104.164 225.292L104.164 226.055L97.1662 224.449Z" fill="#E5E5E5"/>
<path d="M97.1662 226.333L97.1662 225.545L115.817 229.717L115.817 230.632L97.1662 226.333Z" fill="#E5E5E5"/>
<path d="M94.9616 228.13L94.9616 227.342L99.1255 228.13L99.1255 229.107L94.9616 228.13Z" fill="#E5E5E5"/>
<path d="M107.559 224.827L107.559 224.039L111.723 224.827L111.723 225.803L107.559 224.827Z" fill="#DF8D8D"/>
<path d="M116.377 228.794L116.357 228.008L119.123 228.794L119.123 229.564L116.377 228.794Z" fill="#ECDD3C"/>
<path d="M119.526 223.301L119.526 222.513L123.69 223.301L123.69 224.277L119.526 223.301Z" fill="#E5E5E5"/>
<ellipse cx="104.295" cy="209.837" rx="0.847968" ry="1.13062" fill="#295259"/>
<path d="M52.748 268.067C57.0788 267.353 73.7597 274.674 81.5587 278.423L52.3561 277.261C50.6823 274.494 48.4172 268.781 52.748 268.067Z" fill="#295259"/>
<path d="M82.967 278.826C75.0969 276.257 59.1559 274.918 52.1693 274.569L37.4702 263.723C35.701 255.208 42.6969 248.507 39.5686 248.864C35.6581 249.309 23.8622 268.039 25.0343 274.28C26.404 281.573 30.9 288.783 37.0766 290.953C45.4776 293.906 80.3697 295.146 87.5913 292.422C94.8129 289.697 92.8047 282.038 82.967 278.826Z" fill="#547C83"/>
<path d="M43.373 234.206C45.8621 232.704 45.4373 229.422 44.9138 227.969C47.9959 227.995 53.703 228.111 51.8753 228.365C49.5907 228.683 49.9187 234.5 50.0264 235.85C50.1341 237.2 57.5114 237.699 58.7688 241.539C60.0262 245.379 58.9652 273.188 50.0376 276.885C45.7998 278.64 30.6302 277.406 27.9777 273.151C19.1109 258.93 35.2845 236.908 40.0725 236.812C42.0341 236.773 40.2617 236.085 43.373 234.206Z" fill="#C4DCDC"/>
<path d="M61.0485 208.14C63.762 208.819 63.875 216.337 63.5924 220.012H60.4832C59.3525 220.012 56.0549 215.49 54.5474 213.228C55.5838 211.25 58.335 207.462 61.0485 208.14Z" fill="#547C83"/>
<ellipse rx="10.28" ry="13.2783" transform="matrix(-0.988922 -0.148435 -0.148435 0.988922 51.8187 220.644)" fill="white"/>
<path d="M50.3077 228.209C55.6782 225.948 56.8088 212.663 59.918 207.293C46.8028 200.735 41.2627 212.851 40.1321 219.729C40.1321 230.47 46.7101 229.724 50.3077 228.209Z" fill="#547C83"/>
<path d="M36.1747 192.029C45.4459 186.602 49.0827 200.32 49.7422 207.858C51.6266 210.496 52.8515 218.26 42.6758 228.209C32.5002 238.158 19.7807 233.297 22.6072 225.948C22.6072 227.078 21.9288 229.113 27.1297 229.34C33.6308 229.622 24.5858 198.813 36.1747 192.029Z" fill="#547C83"/>
<path d="M81.0392 256.899C73.8097 254.735 61.5823 239.877 54.5475 239.233C52.7572 244.354 51.1756 259.256 52.1932 256.345C53.4653 252.705 66.7692 260.078 74.8363 264.26C81.29 267.605 98.9912 261.36 107.035 257.819L103.031 253.697C96.1113 254.454 88.2687 259.063 81.0392 256.899Z" fill="#C4DCDC"/>
<path d="M109.014 252.158C109.968 253.581 107.823 256.431 106.631 257.678L103.031 253.697C104.627 252.591 108.059 250.736 109.014 252.158Z" fill="white"/>
<circle cx="138.779" cy="111.93" r="1.41328" fill="#ECDD3C"/>
<circle cx="126.06" cy="112.212" r="1.13062" fill="#ECDD3C"/>
<circle cx="113.057" cy="117.866" r="1.13062" fill="#ECDD3C"/>
<circle cx="104.578" cy="125.78" r="1.13062" fill="#ECDD3C"/>
<circle cx="111.927" cy="131.433" r="1.13062" fill="#ECDD3C"/>
<circle cx="127.19" cy="121.823" r="1.13062" fill="#ECDD3C"/>
<circle cx="124.929" cy="128.041" r="1.13062" fill="#ECDD3C"/>
<circle cx="153.76" cy="160.829" r="1.13062" fill="#ECDD3C"/>
<circle cx="118.71" cy="120.692" r="1.13062" fill="#ECDD3C"/>
<circle cx="86.4877" cy="109.386" r="1.13062" fill="#ECDD3C"/>
<circle cx="101.751" cy="152.915" r="1.13062" fill="#ECDD3C"/>
<circle cx="132.278" cy="108.255" r="1.13062" fill="#ECDD3C"/>
<circle cx="136.235" cy="117.3" r="0.565312" fill="#ECDD3C"/>
<circle cx="136.8" cy="120.692" r="0.565312" fill="#ECDD3C"/>
<circle cx="135.67" cy="119.561" r="0.565312" fill="#ECDD3C"/>
<circle cx="127.755" cy="110.516" r="0.565312" fill="#ECDD3C"/>
<circle cx="116.449" cy="109.951" r="0.565312" fill="#ECDD3C"/>
<circle cx="110.231" cy="123.519" r="0.565312" fill="#ECDD3C"/>
<circle cx="102.317" cy="104.864" r="0.565312" fill="#ECDD3C"/>
<circle cx="105.708" cy="111.647" r="0.565312" fill="#ECDD3C"/>
<circle cx="94.9674" cy="112.778" r="0.565312" fill="#ECDD3C"/>
<circle cx="94.4018" cy="122.388" r="0.565312" fill="#ECDD3C"/>
<circle cx="105.708" cy="132.564" r="0.565312" fill="#ECDD3C"/>
<circle cx="119.841" cy="128.607" r="0.565312" fill="#ECDD3C"/>
<circle cx="121.537" cy="125.78" r="0.565312" fill="#ECDD3C"/>
<circle cx="107.969" cy="120.127" r="0.565312" fill="#ECDD3C"/>
<circle cx="106.839" cy="122.954" r="0.565312" fill="#ECDD3C"/>
<circle cx="124.778" cy="121.414" r="0.565312" transform="rotate(75.6646 124.778 121.414)" fill="#ECDD3C"/>
<circle cx="127.504" cy="118.383" r="0.565312" transform="rotate(75.6646 127.504 118.383)" fill="#ECDD3C"/>
<circle cx="124.486" cy="117.988" r="0.565312" transform="rotate(75.6646 124.486 117.988)" fill="#ECDD3C"/>
<circle cx="143.898" cy="178.306" r="0.565312" transform="rotate(75.6646 143.898 178.306)" fill="#ECDD3C"/>
<circle cx="152.751" cy="197.697" r="0.565312" transform="rotate(75.6646 152.751 197.697)" fill="#ECDD3C"/>
<circle cx="142.01" cy="183.564" r="0.565312" transform="rotate(75.6646 142.01 183.564)" fill="#ECDD3C"/>
<circle cx="140.88" cy="177.911" r="0.565312" transform="rotate(75.6646 140.88 177.911)" fill="#ECDD3C"/>
<circle cx="130.896" cy="116.687" r="0.565312" transform="rotate(75.6646 130.896 116.687)" fill="#ECDD3C"/>
<circle cx="127.878" cy="116.292" r="0.565312" transform="rotate(75.6646 127.878 116.292)" fill="#ECDD3C"/>
<circle cx="96.6633" cy="91.8612" r="0.565312" fill="#ECDD3C"/>
<circle cx="97.2286" cy="90.1653" r="0.565312" fill="#ECDD3C"/>
<circle cx="102.882" cy="89.6" r="0.565312" fill="#ECDD3C"/>
<circle cx="86.4877" cy="106.559" r="0.565312" fill="#ECDD3C"/>
<circle cx="86.4877" cy="103.168" r="0.565312" fill="#ECDD3C"/>
<circle cx="136.235" cy="115.039" r="1.13062" fill="#ECDD3C"/>
<circle cx="121.254" cy="113.061" r="1.41328" fill="#ECDD3C"/>
<circle cx="122.385" cy="136.238" r="1.41328" fill="#ECDD3C"/>
<circle cx="83.9436" cy="118.148" r="1.41328" fill="#ECDD3C"/>
<circle cx="87.901" cy="126.063" r="1.41328" fill="#ECDD3C"/>
<circle cx="136.8" cy="103.168" r="0.565312" fill="#ECDD3C"/>
<circle cx="141.888" cy="94.6876" r="0.565312" fill="#ECDD3C"/>
<circle cx="151.373" cy="162.742" r="0.565312" transform="rotate(32.9046 151.373 162.742)" fill="#ECDD3C"/>
<circle cx="148.888" cy="164.5" r="0.565312" transform="rotate(32.9046 148.888 164.5)" fill="#ECDD3C"/>
<path d="M142.736 94.4049C142.51 93.9526 145.845 91.2014 147.541 89.8824C148.672 89.8824 148.201 90.6361 147.824 91.013C147.353 91.5783 146.298 92.7655 145.845 92.9916C145.393 93.2177 144.715 94.4049 144.432 94.9702C143.961 94.9702 142.962 94.8571 142.736 94.4049Z" fill="#3E5E00"/>
<path d="M131.723 104.298C131.497 103.846 134.833 101.094 136.529 99.7754C137.659 99.7754 137.188 100.529 136.811 100.906C136.34 101.471 135.285 102.658 134.833 102.885C134.38 103.111 133.702 104.298 133.419 104.863C132.948 104.863 131.95 104.75 131.723 104.298Z" fill="#2C2C2C"/>
<path d="M136.518 100.623L130.582 90.7303H127.19C129.169 95.2528 133.239 104.072 133.691 103.167C134.144 102.263 135.764 101.094 136.518 100.623Z" fill="white"/>
<path d="M147.259 91.013L141.323 81.1201H137.931C139.91 85.6426 143.98 94.4614 144.432 93.5569C144.884 92.6524 146.505 91.4841 147.259 91.013Z" fill="white"/>
<path d="M128.321 65.8565C129.451 65.8565 131.618 66.7987 132.561 67.2698C133.691 75.8437 135.839 93.6699 135.387 96.3834C134.822 99.7752 126.625 99.7752 122.95 98.9273C119.276 98.0793 120.124 75.7495 119.841 74.3362C119.558 72.9229 126.907 65.8565 128.321 65.8565Z" fill="#295259"/>
<path d="M128.038 67.5525C128.038 67.5525 124.929 71.227 123.233 71.7923C104.107 21.483 48.2378 58.7109 44.6545 90.1649C43.9139 96.666 45.2198 124.084 76.8773 131.998C76.5947 132.846 76.5946 137.086 76.5947 139.912C12.7144 133.411 35.3268 55.9636 76.0293 42.6787C108.591 32.0509 123.045 53.4197 128.038 67.5525Z" fill="#547C83"/>
<path d="M133.409 67.2699C130.243 65.4609 125.494 71.4156 123.516 74.619C123.516 78.5762 131.147 96.6662 133.409 98.0794C135.67 99.4927 149.803 84.512 150.368 82.816C150.933 81.1201 137.366 69.5312 133.409 67.2699Z" fill="#547C83"/>
<path d="M140.577 81.0273L128.985 74.7647L133.268 78.6156L131.24 80.1952L142.104 85.6696L136.636 81.0384L140.577 81.0273Z" fill="#ECDD3C"/>
</svg>
