<svg width="1110" height="207" viewBox="0 0 1110 207" fill="none" xmlns="http://www.w3.org/2000/svg">
<path d="M376.938 40.7708C178.022 -14.4442 44.3484 56.778 0 66.7332V197C0 202.523 4.47715 207 10 207H1100C1105.52 207 1110 202.523 1110 197V42.088C822.205 131.611 626.598 110.072 376.938 40.7708Z" fill="#88A550"/>
<path d="M603.754 159.092L614.277 155.164H623.138L614.277 159.092H632L614.277 171.743L524 174.199L580.492 159.092H603.754Z" fill="url(#paint0_linear)"/>
<path d="M521.754 122.022L532.277 118.094H541.138L532.277 122.022H550L532.277 134.674L442 137.13L498.492 122.022H521.754Z" fill="url(#paint1_linear)"/>
<rect x="612.376" y="124.233" width="10.2482" height="31.4065" fill="#547C83"/>
<rect x="575" y="135.105" width="85" height="1.81191" fill="#547C83"/>
<path d="M588.13 97.0545H646.179L660 135.105H575L588.13 97.0545Z" fill="white"/>
<path d="M590.674 99.4705H643.422L654.574 131.481H580.425L590.674 99.4705Z" fill="#547C83"/>
<path d="M654.092 129.616L643.592 99.0582L594.592 99.0582C588.275 127.835 634.164 130.753 654.092 129.616Z" fill="#C4DCDC"/>
<path d="M606.348 99.4705H609.663L606.348 133.293H599.716L606.348 99.4705Z" fill="white"/>
<path d="M628.351 99.4705H625.036L628.351 133.293H634.982L628.351 99.4705Z" fill="white"/>
<rect x="587.66" y="105.51" width="59.078" height="1.81191" fill="white"/>
<rect x="582.837" y="116.382" width="68.7234" height="1.81191" fill="white"/>
<rect x="530.66" y="91.0219" width="8.68085" height="26.6032" fill="#547C83"/>
<rect x="499" y="100.231" width="72" height="1.5348" fill="#547C83"/>
<path d="M510.122 68H559.293L571 100.231H499L510.122 68Z" fill="white"/>
<path d="M512.277 70.0462H556.957L566.404 97.161H503.596L512.277 70.0462Z" fill="#547C83"/>
<path d="M565.5 94.5499L557.566 70.0039L515.5 70.0038C509.71 91.8045 547.233 95.4113 565.5 94.5499Z" fill="#C4DCDC"/>
<path d="M525.553 70.0462H528.362L525.553 98.6958H519.936L525.553 70.0462Z" fill="white"/>
<path d="M544.192 70.0462H541.383L544.192 98.6958H549.809L544.192 70.0462Z" fill="white"/>
<rect x="509.724" y="75.1623" width="50.0426" height="1.5348" fill="white"/>
<rect x="505.638" y="84.371" width="58.2128" height="1.5348" fill="white"/>
<path d="M147.754 115.022L158.277 111.094H167.138L158.277 115.022H176L158.277 127.674L68 130.13L124.492 115.022H147.754Z" fill="url(#paint2_linear)"/>
<rect x="156.66" y="84.0219" width="8.68085" height="26.6032" fill="#547C83"/>
<rect x="125" y="93.2306" width="72" height="1.5348" fill="#547C83"/>
<path d="M136.122 61H185.293L197 93.2308H125L136.122 61Z" fill="white"/>
<path d="M138.277 63.0462H182.957L192.404 90.161H129.596L138.277 63.0462Z" fill="#547C83"/>
<path d="M191.5 87.5499L183.566 63.0039L141.5 63.0038C135.71 84.8045 173.233 88.4113 191.5 87.5499Z" fill="#C4DCDC"/>
<path d="M151.553 63.0462H154.362L151.553 91.6958H145.936L151.553 63.0462Z" fill="white"/>
<path d="M170.192 63.0462H167.383L170.192 91.6958H175.809L170.192 63.0462Z" fill="white"/>
<rect x="135.724" y="68.1623" width="50.0426" height="1.5348" fill="white"/>
<rect x="131.638" y="77.371" width="58.2128" height="1.5348" fill="white"/>
<path d="M803 152.256H795.552L731 166.282H738.448L803 152.256Z" fill="url(#paint3_linear)"/>
<path d="M753 115.186H748.241L707 124.203H711.759L753 115.186Z" fill="url(#paint4_linear)"/>
<path d="M865 124.203H860.241L819 133.22H823.759L865 124.203Z" fill="url(#paint5_linear)"/>
<path d="M966 124.203H961.241L920 133.22H924.759L966 124.203Z" fill="url(#paint6_linear)"/>
<path d="M919 174.297H909.172L824 193.333H833.828L919 174.297Z" fill="url(#paint7_linear)"/>
<path d="M797.593 64.7479H798.062L800.871 152.256H794.783L797.593 64.7479Z" fill="white"/>
<ellipse cx="797.828" cy="65.9207" rx="1.63916" ry="1.64224" fill="white"/>
<path d="M807.984 30.5538L798.613 64.4693C798.521 63.2676 798.356 60.3827 798.43 58.4563C798.523 56.0483 805.947 31.9381 806.316 31.0664C806.61 30.3689 807.55 30.4341 807.984 30.5538Z" fill="#547C83"/>
<path d="M807.924 30.5383L798.57 64.4583C799.265 63.4743 800.887 61.0836 801.812 59.3923C802.967 57.2782 808.962 32.7726 809.093 31.8353C809.198 31.0855 808.358 30.6582 807.924 30.5383Z" fill="#547C83"/>
<path d="M762.482 75.4249L796.48 66.581C795.487 67.2623 793.076 68.8498 791.374 69.7495C789.246 70.8741 764.696 76.4989 763.759 76.6158C763.009 76.7094 762.595 75.8609 762.482 75.4249Z" fill="#547C83"/>
<path d="M762.498 75.4842L796.495 66.6403C795.297 66.529 792.42 66.3172 790.496 66.3609C788.09 66.4155 763.91 73.467 763.035 73.8217C762.334 74.1055 762.385 75.0483 762.498 75.4842Z" fill="#547C83"/>
<path d="M823.839 92.464L799.196 67.3878C800.281 67.9086 802.859 69.2068 804.488 70.234C806.524 71.5179 823.661 90.0062 824.23 90.7611C824.686 91.365 824.159 92.148 823.839 92.464Z" fill="#547C83"/>
<path d="M823.883 92.4211L799.239 67.3449C799.742 68.4402 800.998 71.0427 801.998 72.6903C803.248 74.7499 821.433 92.204 822.177 92.7865C822.773 93.2525 823.563 92.737 823.883 92.4211Z" fill="#547C83"/>
<ellipse cx="797.828" cy="65.9208" rx="0.702495" ry="0.703817" fill="#547C83"/>
<path d="M860.464 68.9726H860.76L862.534 124.203H858.691L860.464 68.9726Z" fill="white"/>
<ellipse cx="860.613" cy="69.7129" rx="1.03455" ry="1.0365" fill="white"/>
<path d="M867.022 47.3912L861.108 68.7969C861.05 68.0385 860.946 66.2176 860.993 65.0018C861.051 63.482 865.737 48.2649 865.97 47.7147C866.155 47.2746 866.749 47.3157 867.022 47.3912Z" fill="#547C83"/>
<path d="M866.985 47.3814L861.081 68.7899C861.52 68.1689 862.543 66.66 863.127 65.5926C863.856 64.2583 867.639 48.7916 867.722 48.2C867.788 47.7268 867.258 47.4571 866.985 47.3814Z" fill="#547C83"/>
<path d="M838.305 75.7114L859.762 70.1296C859.135 70.5596 857.614 71.5615 856.539 72.1293C855.196 72.8391 839.702 76.3892 839.11 76.463C838.637 76.522 838.376 75.9865 838.305 75.7114Z" fill="#547C83"/>
<path d="M838.314 75.749L859.772 70.1672C859.015 70.097 857.199 69.9633 855.985 69.9909C854.467 70.0253 839.206 74.4758 838.653 74.6997C838.211 74.8788 838.243 75.4739 838.314 75.749Z" fill="#547C83"/>
<path d="M877.029 86.4653L861.476 70.6385C862.161 70.9672 863.788 71.7866 864.816 72.4349C866.101 73.2452 876.916 84.9141 877.276 85.3905C877.564 85.7717 877.231 86.2658 877.029 86.4653Z" fill="#547C83"/>
<path d="M877.057 86.4385L861.504 70.6118C861.821 71.3031 862.613 72.9456 863.245 73.9855C864.033 75.2854 875.511 86.3015 875.981 86.6692C876.357 86.9633 876.855 86.638 877.057 86.4385Z" fill="#547C83"/>
<ellipse cx="860.612" cy="69.713" rx="0.443378" ry="0.444213" fill="#547C83"/>
<path d="M963.464 68.9726H963.76L965.534 124.203H961.691L963.464 68.9726Z" fill="white"/>
<ellipse cx="963.613" cy="69.7129" rx="1.03455" ry="1.0365" fill="white"/>
<path d="M970.022 47.3912L964.108 68.7969C964.05 68.0385 963.946 66.2176 963.993 65.0018C964.051 63.482 968.737 48.2649 968.97 47.7147C969.155 47.2746 969.749 47.3157 970.022 47.3912Z" fill="#547C83"/>
<path d="M969.985 47.3814L964.081 68.7899C964.52 68.1689 965.543 66.66 966.127 65.5926C966.856 64.2583 970.639 48.7916 970.722 48.2C970.788 47.7268 970.258 47.4571 969.985 47.3814Z" fill="#547C83"/>
<path d="M941.305 75.7114L962.762 70.1296C962.136 70.5596 960.614 71.5615 959.539 72.1293C958.196 72.8391 942.702 76.3892 942.11 76.463C941.637 76.522 941.376 75.9865 941.305 75.7114Z" fill="#547C83"/>
<path d="M941.314 75.749L962.772 70.1672C962.015 70.097 960.199 69.9633 958.985 69.9909C957.467 70.0253 942.206 74.4758 941.653 74.6997C941.211 74.8788 941.243 75.4739 941.314 75.749Z" fill="#547C83"/>
<path d="M980.029 86.4653L964.476 70.6385C965.161 70.9672 966.788 71.7866 967.816 72.4349C969.101 73.2452 979.916 84.9141 980.276 85.3905C980.564 85.7717 980.231 86.2658 980.029 86.4653Z" fill="#547C83"/>
<path d="M980.057 86.4385L964.504 70.6118C964.821 71.3031 965.613 72.9456 966.245 73.9855C967.033 75.2854 978.511 86.3015 978.981 86.6692C979.357 86.9633 979.855 86.638 980.057 86.4385Z" fill="#547C83"/>
<ellipse cx="963.612" cy="69.713" rx="0.443378" ry="0.444213" fill="#547C83"/>
<path d="M748.63 74.3014H748.849L750.161 115.186H747.317L748.63 74.3014Z" fill="white"/>
<ellipse cx="748.739" cy="74.8495" rx="0.765835" ry="0.767277" fill="white"/>
<path d="M753.484 58.3254L749.106 74.1712C749.063 73.6098 748.986 72.2619 749.02 71.3619C749.064 70.2368 752.533 58.9722 752.705 58.5649C752.842 58.2391 753.282 58.2695 753.484 58.3254Z" fill="#547C83"/>
<path d="M753.456 58.3184L749.086 74.1663C749.411 73.7066 750.168 72.5896 750.6 71.7994C751.14 70.8117 753.941 59.3623 754.002 58.9244C754.051 58.5741 753.658 58.3745 753.456 58.3184Z" fill="#547C83"/>
<path d="M732.226 79.2898L748.11 75.1578C747.646 75.4761 746.52 76.2178 745.724 76.6381C744.73 77.1636 733.26 79.7915 732.822 79.8462C732.472 79.8899 732.279 79.4935 732.226 79.2898Z" fill="#547C83"/>
<path d="M732.233 79.3174L748.117 75.1854C747.557 75.1334 746.212 75.0345 745.313 75.0549C744.19 75.0804 732.893 78.3749 732.483 78.5407C732.156 78.6732 732.18 79.1137 732.233 79.3174Z" fill="#547C83"/>
<path d="M760.892 87.2504L749.378 75.5345C749.885 75.7778 751.089 76.3844 751.85 76.8643C752.802 77.4642 760.808 86.1021 761.075 86.4548C761.288 86.737 761.041 87.1028 760.892 87.2504Z" fill="#547C83"/>
<path d="M760.913 87.2309L749.399 75.515C749.634 76.0267 750.221 77.2426 750.688 78.0124C751.272 78.9747 759.768 87.1295 760.116 87.4017C760.394 87.6194 760.763 87.3786 760.913 87.2309Z" fill="#547C83"/>
<ellipse cx="748.739" cy="74.8496" rx="0.328215" ry="0.328833" fill="#547C83"/>
<path d="M916.144 61.0144H916.751L920.394 174.462H912.501L916.144 61.0144Z" fill="white"/>
<ellipse cx="916.448" cy="62.5349" rx="2.12505" ry="2.12905" fill="white"/>
<path d="M929.615 16.6839L917.467 60.653C917.347 59.0951 917.133 55.355 917.229 52.8576C917.349 49.7358 926.975 18.4786 927.452 17.3484C927.834 16.4443 929.053 16.5287 929.615 16.6839Z" fill="#547C83"/>
<path d="M929.538 16.6638L917.411 60.6388C918.312 59.3632 920.415 56.2638 921.613 54.0711C923.111 51.3303 930.883 19.5605 931.053 18.3454C931.189 17.3733 930.1 16.8193 929.538 16.6638Z" fill="#547C83"/>
<path d="M870.625 74.8562L914.701 63.3907C913.414 64.2739 910.288 66.332 908.081 67.4984C905.322 68.9563 873.495 76.2485 872.28 76.4001C871.308 76.5214 870.772 75.4214 870.625 74.8562Z" fill="#547C83"/>
<path d="M870.645 74.9331L914.721 63.4676C913.167 63.3233 909.437 63.0488 906.942 63.1054C903.824 63.1761 872.477 72.3179 871.341 72.7778C870.433 73.1457 870.499 74.368 870.645 74.9331Z" fill="#547C83"/>
<path d="M950.169 96.9455L918.221 64.4361C919.628 65.1112 922.97 66.7943 925.081 68.1259C927.721 69.7904 949.938 93.7593 950.677 94.7379C951.268 95.5208 950.585 96.5359 950.169 96.9455Z" fill="#547C83"/>
<path d="M950.228 96.8904L918.279 64.3809C918.931 65.8008 920.559 69.1747 921.855 71.3108C923.475 73.9809 947.051 96.609 948.016 97.3642C948.789 97.9683 949.812 97.3 950.228 96.8904Z" fill="#547C83"/>
<ellipse cx="916.448" cy="62.5349" rx="0.910737" ry="0.912451" fill="#547C83"/>
<rect width="2.91308" height="8.12334" transform="matrix(-1 0 0 1 376.967 154.164)" fill="white"/>
<path d="M366 156.703L375.339 117L384.678 156.703H366Z" fill="#3E5E00"/>
<rect width="5.22874" height="14.5807" transform="matrix(-1 0 0 1 1064.68 157.707)" fill="white"/>
<path d="M1045 162.263L1061.76 91L1078.53 162.263H1045Z" fill="#3E5E00"/>
<rect width="4.252" height="21.8019" transform="matrix(-1 0 0 1 48.0082 106.198)" fill="white"/>
<ellipse rx="15.0001" ry="14.8649" transform="matrix(-1 0 0 1 45.9999 98.8649)" fill="#3E5E00"/>
<rect width="4.15534" height="21.3063" transform="matrix(-1 0 0 1 236.622 21.6937)" fill="white"/>
<ellipse rx="14.6591" ry="14.527" transform="matrix(-1 0 0 1 234.659 14.527)" fill="#3E5E00"/>
<rect width="5.70152" height="29.2342" transform="matrix(-1 0 0 1 291.807 119.766)" fill="white"/>
<ellipse rx="20.1137" ry="19.9324" transform="matrix(-1 0 0 1 289.114 109.932)" fill="#3E5E00"/>
<defs>
<linearGradient id="paint0_linear" x1="617.6" y1="155.164" x2="597.64" y2="204.615" gradientUnits="userSpaceOnUse">
<stop stop-color="#16353A"/>
<stop offset="1" stop-color="#16353A" stop-opacity="0"/>
</linearGradient>
<linearGradient id="paint1_linear" x1="535.6" y1="118.094" x2="515.64" y2="167.545" gradientUnits="userSpaceOnUse">
<stop stop-color="#16353A"/>
<stop offset="1" stop-color="#16353A" stop-opacity="0"/>
</linearGradient>
<linearGradient id="paint2_linear" x1="161.6" y1="111.094" x2="141.64" y2="160.545" gradientUnits="userSpaceOnUse">
<stop stop-color="#16353A"/>
<stop offset="1" stop-color="#16353A" stop-opacity="0"/>
</linearGradient>
<linearGradient id="paint3_linear" x1="787.483" y1="147.505" x2="784.397" y2="172.157" gradientUnits="userSpaceOnUse">
<stop stop-color="#16353A"/>
<stop offset="1" stop-color="#16353A" stop-opacity="0"/>
</linearGradient>
<linearGradient id="paint4_linear" x1="743.086" y1="112.132" x2="741.09" y2="127.977" gradientUnits="userSpaceOnUse">
<stop stop-color="#16353A"/>
<stop offset="1" stop-color="#16353A" stop-opacity="0"/>
</linearGradient>
<linearGradient id="paint5_linear" x1="855.086" y1="121.149" x2="853.09" y2="136.994" gradientUnits="userSpaceOnUse">
<stop stop-color="#16353A"/>
<stop offset="1" stop-color="#16353A" stop-opacity="0"/>
</linearGradient>
<linearGradient id="paint6_linear" x1="956.086" y1="121.149" x2="954.09" y2="136.994" gradientUnits="userSpaceOnUse">
<stop stop-color="#16353A"/>
<stop offset="1" stop-color="#16353A" stop-opacity="0"/>
</linearGradient>
<linearGradient id="paint7_linear" x1="898.526" y1="167.85" x2="894.222" y2="201.277" gradientUnits="userSpaceOnUse">
<stop stop-color="#16353A"/>
<stop offset="1" stop-color="#16353A" stop-opacity="0"/>
</linearGradient>
</defs>
</svg>
