<svg width="409" height="354" viewBox="0 0 409 354" fill="none" xmlns="http://www.w3.org/2000/svg">
<path d="M260.619 13.3272C193.272 -34.211 196.101 61.4327 94.7989 52.0334C-31.4068 48.4161 -11.9437 193.265 40.4674 211.407C84.612 226.688 78.9526 236.119 84.612 248.192C97.0627 271.396 68.7656 384.018 209.685 344.968C350.604 305.918 468.885 207.445 375.505 166.697C282.125 125.949 315.414 52.0049 260.619 13.3272Z" fill="#16353A"/>
<path d="M306.47 115.641C300.826 107.523 299.693 112.93 297.158 117.877C291.557 117.877 293.929 167.822 293.929 167.822C293.929 167.822 295.966 219.665 299.693 219.665C303.42 219.665 306.47 170.533 306.47 170.533C306.47 170.533 312.113 123.759 306.47 115.641Z" fill="#547C83"/>
<path d="M319.362 115.283C313.718 107.165 317.357 117.98 310.05 117.518C301.232 121.67 310.05 174.58 310.05 174.58C310.05 174.58 315.635 218.968 319.362 218.968C323.089 218.968 323.089 167.464 323.089 167.464C323.089 167.464 325.006 123.4 319.362 115.283Z" fill="#547C83"/>
<path d="M339.513 98.6003C340.598 95.6185 323.588 85.9503 314.778 79.2864V94.8731C318.505 95.8896 326.434 98.0582 328.331 98.6003C330.703 99.278 324.604 107.749 321.216 110.799C318.505 113.238 324.717 113.396 326.976 113.509C331.155 111.928 338.429 101.582 339.513 98.6003Z" fill="#C4DCDC"/>
<path d="M300.761 79.5191C303.551 78.8167 304.249 71.6169 304.249 68.1047H310.644C311.225 70.9339 310.644 79.5191 314.132 79.5191C317.522 79.5191 319.397 81.6629 321.399 87.0799C324.448 95.3331 322.852 121.665 321.399 124.299C319.945 126.933 300.761 127.225 296.401 124.299C292.041 121.372 292.332 86.8361 293.494 83.9093C294.657 80.9825 297.273 80.3972 300.761 79.5191Z" fill="#C4DCDC"/>
<ellipse cx="311.417" cy="60.7207" rx="10.5041" ry="14.2313" transform="rotate(15.0846 311.417 60.7207)" fill="white"/>
<path d="M308.914 58.2913C306.951 57.7622 304.172 62.8622 300.103 63.6371C300.345 54.9288 301.907 52.2715 305.645 48.2858C309.585 44.0838 319.292 45.6728 322.117 50.971C325.613 57.5283 320.388 69.1044 319.733 68.928C319.21 68.7869 317.78 61.8509 316.313 58.1801C314.132 57.5922 310.506 58.7204 308.914 58.2913Z" fill="#547C83"/>
<path d="M245.748 147.526L249.402 157.397C260.662 148.489 265.459 142.629 293.638 120.276C304.584 110.222 307.43 119.148 312.576 116.937C325.168 107.596 317.027 92.8511 310.811 93.2521C309.268 94.2532 308.184 95.463 307.497 96.8474C305.779 98.5376 303.897 100.253 302.768 101.247C245.825 147.87 264.943 133.532 245.748 147.526Z" fill="#547C83"/>
<path fill-rule="evenodd" clip-rule="evenodd" d="M340.623 102.117L353.664 107.809L354.57 105.735L344.963 101.541L354.6 100.264L354.302 98.0198L340.951 99.7896L330.662 95.2981L319.434 102.313L310.118 103.149L326.352 93.6357L332.579 79.1447L330.499 78.2509L324.565 92.0586L302.692 104.877L303.837 106.83L306.018 105.552L306.039 105.787L315.187 104.967L310.201 108.082L301.872 107.717L301.773 109.979L306.813 110.2L305.004 111.33L306.203 113.25L310.805 110.375L322.856 110.903L338.893 107.196L338.384 104.991L322.646 108.628L314.194 108.257L320.175 104.52L327.333 103.878L340.623 102.117ZM336.61 100.365L327.084 101.628L324.422 101.866L330.85 97.8502L336.61 100.365Z" fill="white"/>
<path d="M311.548 96.3532C310.15 100.676 307.314 104.363 312.027 115.197L294.595 110.873C303.144 102.737 312.946 92.0299 311.548 96.3532Z" fill="#547C83"/>
<path d="M260.749 76.2067C252.465 61.0194 219.723 87.1471 214.301 98.268L218.367 100.301C221.813 95.195 236.691 76.3293 250.644 80.7091C264.597 85.089 254.223 109.836 247.291 121.662C247.542 130.953 249.457 145.703 255.113 130.368C262.183 111.198 271.105 95.1908 260.749 76.2067Z" fill="#547C83"/>
<path d="M280.893 113.848C279.809 110.595 289.477 91.2587 294.447 81.9971C299.055 81.9971 300.433 91.7105 299.19 96.5673C295.689 101.65 288.686 106.394 288.686 111.476C288.686 116.559 295.463 121.642 290.719 125.03C286.992 127.692 282.248 117.914 280.893 113.848Z" fill="#C4DCDC"/>
<path d="M328.331 112.832C328.331 113.848 324.604 116.559 321.893 113.509C321.215 112.154 322.435 109.985 324.604 109.443C327.315 108.766 328.331 111.815 328.331 112.832Z" fill="white"/>
<path d="M321.554 214.823C321.283 214.281 318.505 214.597 317.149 214.823C316.698 215.726 315.794 217.805 315.794 218.889C315.794 220.244 320.199 220.583 322.232 219.567C324.265 218.55 321.893 215.5 321.554 214.823Z" fill="white"/>
<mask id="mask0" mask-type="alpha" maskUnits="userSpaceOnUse" x="91" y="55" width="230" height="230">
<path fill-rule="evenodd" clip-rule="evenodd" d="M217.034 56.43L229.05 74.2038V102.328H249.72L260.562 128.418L298.513 145.022L301.901 157.22L318.506 148.845C319.84 155.837 320.538 163.054 320.538 170.435C320.538 233.687 269.262 284.963 206.009 284.963C142.757 284.963 91.481 233.687 91.481 170.435C91.481 107.182 142.757 55.9062 206.009 55.9062C209.728 55.9062 213.406 56.0835 217.034 56.43Z" fill="#3E5E00"/>
</mask>
<g mask="url(#mask0)">
<circle cx="206.009" cy="170.435" r="114.528" fill="#88A550"/>
<path d="M243.328 119.608C240.617 120.693 239.488 123.674 239.262 125.03C239.262 128.418 240.956 129.774 243.328 130.112C245.7 130.451 247.733 128.418 249.427 120.625C251.121 112.832 245.7 112.493 243.328 112.832C240.956 113.17 246.716 118.253 243.328 119.608Z" fill="#3E5E00"/>
<path d="M205.038 75.898C193.111 68.579 197.132 66.9752 200.633 67.0881L231.806 57.2617C242.762 65.281 264.877 83.2847 265.691 91.1459C266.707 100.972 259.253 100.972 257.897 100.295C256.542 99.6169 246.038 100.295 244.005 104.022C241.972 107.749 230.79 117.914 234.517 106.733C238.244 95.5508 229.435 93.1789 228.079 93.1789C226.724 93.1789 213.509 102.328 216.22 93.1789C218.93 84.0302 219.947 85.0467 205.038 75.898Z" fill="#3E5E00"/>
<path d="M114.229 97.2449C124.959 98.0355 151.231 101.175 148.791 104.699C145.741 109.104 138.965 112.154 140.998 116.898C143.031 121.641 148.791 124.013 148.791 121.641C148.791 119.27 154.212 116.898 156.584 116.898C158.956 116.898 160.65 111.815 163.022 112.493C165.394 113.17 168.783 113.848 169.799 112.493C170.816 111.137 169.46 119.608 163.022 124.691C156.584 129.774 166.75 124.352 166.411 137.906C166.072 151.46 158.422 149.334 154.212 153.493C150.44 157.22 151.748 165.968 148.791 166.369C145.109 166.867 147.508 163.787 147.017 161.163L146.712 160.269C145.304 157.579 142.098 155.624 140.998 155.864C133.558 157.487 125.753 161.021 124.394 171.112C122.022 188.732 141.675 198.22 139.642 199.575C137.609 200.93 135.576 197.203 133.204 197.542C130.832 197.881 127.105 199.236 125.75 197.542C124.394 195.848 112.196 183.988 112.874 181.955C113.551 179.922 116.94 172.468 112.874 169.079C108.808 165.691 111.518 165.352 110.502 162.98C109.485 160.608 104.403 159.931 104.064 157.22C103.725 154.509 106.097 152.815 104.064 150.104C102.031 147.393 97.9647 142.65 102.031 136.212C106.097 129.774 102.031 131.468 102.031 128.079C102.031 124.691 106.436 118.253 114.229 116.22C120.464 114.594 115.246 108.765 111.857 106.055C109.101 106.055 108.265 100.498 114.229 97.2449Z" fill="#3E5E00"/>
<path d="M191.485 191.104C185.25 192.459 177.367 195.961 174.204 197.542C169.791 199.575 170.816 205.335 172.171 208.385C173.526 211.434 169.121 211.773 164.378 212.79C159.634 213.806 167.088 222.277 167.088 223.633C167.088 224.988 166.411 229.655 168.105 230.071C183.374 233.821 188.435 242.608 192.84 247.352C198.306 253.238 199.956 265.988 199.956 270.732C199.956 275.476 204.7 275.814 206.733 277.509C208.766 279.203 208.427 289.029 210.46 290.046C212.493 291.062 213.51 282.93 214.187 279.203C214.865 275.476 218.931 274.798 220.287 273.442C221.642 272.087 218.931 265.988 222.32 264.971C225.708 263.955 231.807 253.79 233.501 248.368C235.196 242.947 260.609 210.757 246.377 205.335C232.146 199.914 239.6 195.509 228.419 195.848C217.237 196.187 217.576 191.104 206.394 187.377C195.212 183.649 199.278 189.41 191.485 191.104Z" fill="#3E5E00"/>
<path d="M264.675 119.609C275.517 114.187 279.358 107.862 279.922 105.377L299.575 112.832L306.691 140.617L318.889 175.179C317.082 178.228 312.383 184.531 308.046 185.344C302.625 186.361 306.013 179.923 301.608 177.89C297.203 175.856 292.121 178.228 283.65 177.89C275.179 177.551 282.972 159.592 275.179 166.03C267.385 172.468 251.799 166.369 249.427 159.592C247.055 152.815 249.088 148.749 248.41 141.972C247.732 135.196 256.542 136.212 260.27 132.146C263.997 128.08 251.121 126.386 264.675 119.609Z" fill="#3E5E00"/>
</g>
</svg>
