<svg width="416" height="204" viewBox="0 0 416 204" fill="none" xmlns="http://www.w3.org/2000/svg">
<path d="M74.1127 15.4854C18.8712 7.40922 0 41.0598 0 72.0184C0.000167537 92.2088 9.62403 118.595 47.3499 135.281C64.8487 143.021 82.0047 131.58 118.032 177.008C146.053 212.341 193.517 205.487 208.271 197.872C223.025 190.256 234.125 176.696 236.749 166.24C242.239 144.367 237.504 139.993 250.131 119.802C265.914 94.5643 305.298 54.4834 272.433 33.6567C250.131 19.5234 244.298 49.8089 184.939 58.8946C125.58 67.9803 129.354 23.5615 74.1127 15.4854Z" fill="#16353A"/>
<path d="M48.3788 25.2537C48.1043 20.9464 50.3231 20.0939 51.4668 20.2061H71.3675V125.533H55.9273C52.8393 125.533 51.4668 123.514 48.3788 120.148C45.2908 116.783 48.3788 49.4822 48.3788 47.1266C48.3788 45.2422 50.4375 43.8737 51.4668 43.4251C52.6106 41.7425 54.2118 37.9064 51.4668 36.0219C48.0357 33.6664 48.7219 30.6378 48.3788 25.2537Z" fill="#C4DCDC"/>
<path d="M94.0128 25.2537C94.2873 20.9464 92.0685 20.0939 90.9248 20.2061H71.0241V125.533H86.4643C89.5523 125.533 90.9248 123.514 94.0128 120.148C97.1008 116.783 94.0128 49.4822 94.0128 47.1266C94.0128 45.2422 91.9541 43.8737 90.9248 43.4251C89.781 41.7425 88.1798 37.9064 90.9248 36.0219C94.3559 33.6664 93.6697 30.6378 94.0128 25.2537Z" fill="#C4DCDC"/>
<path d="M94.2307 25.1972C94.5302 20.8735 92.1087 20.0177 90.8605 20.1303C90.8605 20.1303 83.7457 12.7082 84.8691 20.1303C85.9925 27.5525 84.8691 125.86 84.8691 125.86H85.9925C89.3627 125.86 90.8605 123.833 94.2307 120.455C97.6008 117.077 94.2307 49.5184 94.2307 47.1538C94.2307 45.2622 91.9839 43.8885 90.8605 43.4381C89.6123 41.7491 87.8648 37.8983 90.8605 36.0066C94.6051 33.6421 93.8562 30.6019 94.2307 25.1972Z" fill="#547C83"/>
<path d="M77.8286 36.4258C77.4793 36.3833 77.2715 36.349 77.2715 36.349C77.2715 36.349 77.4811 36.3758 77.8286 36.4258C79.6688 36.65 85.4356 37.1044 85.4356 33.9935C85.4356 30.292 86.872 37.8835 87.1512 39.7141C87.5002 42.0022 85.4356 47.7902 85.4356 46.4442C85.4356 43.0791 78.7839 43.6901 73.0835 43.4995C73.0835 43.4995 83.3769 43.0791 84.2516 42.3554C85.1262 41.6316 85.4356 39.041 84.2516 38.0651C83.2926 37.2747 79.3089 36.639 77.8286 36.4258Z" fill="#547C83"/>
<path d="M71.0244 20.1966H50.4375V9.21066C50.4375 7.54792 51.4178 7.13224 51.908 7.13224H64.4072C64.7748 7.13224 64.4072 3.27231 64.4072 2.67848C64.4072 2.08465 64.7748 2.67848 63.3043 1.78773C62.1279 1.07513 62.8141 0.303143 63.3043 0.00622559H71.0244V20.1966Z" fill="#3E5E00"/>
<path d="M71.0242 20.1966H91.6111V9.21066C91.6111 7.54792 90.6308 7.13224 90.1406 7.13224H77.6414C77.2738 7.13224 77.6414 3.27231 77.6414 2.67848C77.6414 2.08465 77.2738 2.67848 78.7443 1.78773C79.9207 1.07513 79.2344 0.303143 78.7443 0.00622559H71.0242V20.1966Z" fill="#3E5E00"/>
<path d="M75.8279 3.37122C73.632 3.69426 68.5081 3.50582 66.2207 3.37122C72.2595 4.01731 75.1417 6.33247 75.8279 7.40929V3.37122Z" fill="#88A550"/>
<path d="M89.2097 9.09192H87.4941V18.1776H89.2097V9.09192Z" fill="#88A550"/>
<path d="M129.106 45.5618C131.815 43.7332 130.235 38.8951 129.106 36.7046H144.498V125.276C146.14 125.657 145.852 126.191 131.569 125.276C113.714 124.133 121.718 97.5619 122.333 91.2762C122.949 84.9905 120.794 81.2762 119.255 69.8475C117.716 58.4189 125.72 47.8475 129.106 45.5618Z" fill="#C4DCDC"/>
<path d="M159.761 45.5619C157.052 43.7333 158.633 38.8952 159.761 36.7047H144.369V125.276C142.728 125.657 143.015 126.191 157.299 125.276C175.153 124.134 167.15 97.562 166.534 91.2763C165.918 84.9906 168.073 81.2763 169.612 69.8477C171.151 58.4191 163.148 47.8476 159.761 45.5619Z" fill="#C4DCDC"/>
<path d="M162.27 53.5334H127.261C120.188 59.0955 121.203 65.0303 121.7 71.5282C122.715 84.8085 126.978 87.4147 125.493 96.3936C124.007 105.373 121.815 115.043 125.493 117.66C130.09 120.932 159.087 120.605 163.685 117.66C168.282 114.716 165.453 106.536 163.685 96.3936C161.916 86.2511 165.672 86.7632 167.575 71.5282C169.01 60.0335 165.217 54.8422 162.27 53.5334Z" fill="#547C83"/>
<path d="M122.139 83.562C120.908 80.3619 119.574 71.181 119.061 66.9905H169.854C169.854 70.9905 168.11 78.9905 166.776 83.562H122.139Z" fill="#3E5E00"/>
<path d="M135.213 24.1331C129.24 24.1331 128.742 32.514 129.24 36.7045H144.771V24.1331H135.213Z" fill="#3E5E00"/>
<path d="M153.701 24.1331C159.675 24.1331 160.173 32.514 159.675 36.7045H144.144V24.1331H153.701Z" fill="#3E5E00"/>
<rect x="134.111" y="25.8474" width="0.627083" height="9.71432" fill="#88A550"/>
<rect x="139.127" y="25.8474" width="0.627083" height="9.71432" fill="#88A550"/>
<rect x="136.619" y="25.8474" width="0.627083" height="9.71432" fill="#88A550"/>
<rect x="149.16" y="25.8474" width="0.627083" height="9.71432" fill="#88A550"/>
<rect x="154.177" y="25.8474" width="0.627083" height="9.71432" fill="#88A550"/>
<rect x="151.669" y="25.8474" width="0.627083" height="9.71432" fill="#88A550"/>
<rect x="141.635" y="25.8474" width="0.627083" height="9.71432" fill="#88A550"/>
<rect x="146.652" y="25.8474" width="0.627083" height="9.71432" fill="#88A550"/>
<rect x="144.144" y="25.8474" width="0.627083" height="9.71432" fill="#88A550"/>
<path d="M132.229 35.5618V27.5618C131.728 29.1618 131.602 33.5618 131.602 35.5618H132.229Z" fill="#88A550"/>
<path d="M156.686 35.5618V27.5618C157.188 29.1618 157.313 33.5618 157.313 35.5618H156.686Z" fill="#88A550"/>
<rect x="137.873" y="23.5616" width="13.7958" height="1.14286" rx="0.57143" fill="#3E5E00"/>
<path d="M166.405 32.7041C166.405 24.9327 156.79 23.9424 151.982 24.4186C157.835 23.7519 169.729 24.4756 170.481 32.7041C171.234 40.9327 162.643 42.7994 158.253 42.7042V43.5614L130.662 43.2757V41.8471H158.253C160.971 42.0375 166.405 40.4756 166.405 32.7041Z" fill="#3E5E00"/>
<path d="M126.965 69.1959C124.205 60.053 132.587 52.882 136.371 48.053C129.159 61.4816 127.592 63.4816 129.473 69.1959C131.354 74.9102 134.204 81.1691 133.577 87.7406C133.088 92.8641 130.163 98.0365 128.958 105.659C128.443 108.916 129.141 118.364 127.968 115.758C125.329 109.894 129.321 93.6953 129.948 89.6953C130.575 85.6953 130.414 80.6245 126.965 69.1959Z" fill="#F4FFFF"/>
<path d="M199.063 122.589L195.109 44.3895H218.221V122.589H199.063Z" fill="#C4DCDC"/>
<path d="M237.38 122.589L241.333 44.3895H218.221V122.589H237.38Z" fill="#C4DCDC"/>
<path d="M237.38 122.589C237.38 124.231 228.026 125.86 217.613 125.86C207.2 125.86 199.062 124.231 199.062 122.589C199.062 120.947 207.2 119.913 217.613 119.913C228.026 119.913 237.38 120.947 237.38 122.589Z" fill="#C4DCDC"/>
<path d="M236.024 53.0123C235.774 45.6384 228.632 44.786 225.093 45.2816L239.459 42.6056L234.462 119.616C235.087 100.487 236.274 60.3862 236.024 53.0123Z" fill="#547C83"/>
<path d="M193.86 44.0921V31.3066C219.845 37.4912 237.169 33.8836 242.582 31.3066V44.0921C223.843 47.3628 212.912 47.3628 193.86 44.0921Z" fill="#3E5E00"/>
<ellipse cx="218.221" cy="31.0095" rx="24.3612" ry="4.46004" fill="#3E5E00"/>
<ellipse cx="218.221" cy="31.0095" rx="24.3612" ry="4.46004" fill="#3E5E00"/>
<path fill-rule="evenodd" clip-rule="evenodd" d="M195.578 29.5225C194.469 29.9827 193.86 30.4848 193.86 31.0104C193.86 33.2338 204.767 35.0362 218.221 35.0362C231.675 35.0362 242.582 33.2338 242.582 31.0104C242.582 30.5939 242.199 30.1922 241.489 29.8143C237.908 31.3012 229.12 32.3522 218.846 32.3522C207.912 32.3522 198.66 31.1618 195.578 29.5225Z" fill="#88A550"/>
<path fill-rule="evenodd" clip-rule="evenodd" d="M235.087 16.6576C235.878 16.3364 236.336 15.9559 236.336 15.548C236.336 14.3985 232.701 13.4667 228.216 13.4667C223.731 13.4667 220.095 14.3985 220.095 15.548C220.095 15.9561 220.554 16.3367 221.345 16.658V28.0364V28.3336H221.415C221.891 29.3423 224.755 30.1177 228.216 30.1177C231.678 30.1177 234.542 29.3423 235.018 28.3336H235.087V28.0364V16.6576Z" fill="#88A550"/>
<ellipse cx="228.216" cy="14.9534" rx="6.24645" ry="0.892008" fill="#3E5E00"/>
<path d="M235.087 16.7374C233.838 17.0348 232.588 17.3321 230.402 17.3321V29.8202C232.401 29.8202 234.15 29.2255 235.087 28.3335V16.7374Z" fill="#3E5E00"/>
<path d="M213.832 18.5202C216.356 15.9047 220.258 15.2509 221.893 15.2509L222.594 16.7369C220.842 17.0341 218.355 16.5898 216.285 19.7091C213.131 24.4645 210.327 26.0497 209.626 25.9506C209.042 25.2571 208.224 23.8107 209.626 23.5729C211.379 23.2757 210.678 21.7896 213.832 18.5202Z" fill="#88A550"/>
<path d="M209.789 23.2788C210.538 23.2788 210.309 27.6397 210.101 29.8202H198.858C198.545 29.5229 198.545 26.5495 198.858 25.6575C199.17 24.7655 208.852 23.2788 209.789 23.2788Z" fill="#88A550"/>
<path d="M174.5 141.078C162.094 141.078 152 151.172 152 163.578C152 175.984 162.094 186.078 174.5 186.078C186.906 186.078 197 175.984 197 163.578C197 151.172 186.907 141.078 174.5 141.078ZM174.5 183.646C168.988 183.646 163.988 181.411 160.358 177.802C158.908 176.36 157.678 174.699 156.719 172.873C155.26 170.092 154.432 166.93 154.432 163.578C154.432 152.513 163.435 143.51 174.5 143.51C179.749 143.51 184.532 145.537 188.112 148.847C189.968 150.563 191.5 152.624 192.605 154.928C193.863 157.548 194.568 160.482 194.568 163.578C194.568 174.643 185.565 183.646 174.5 183.646Z" fill="#C4DCDC"/>
<path d="M167.152 160.994C168.496 160.994 169.585 159.905 169.585 158.561C169.585 157.218 168.496 156.129 167.152 156.129C165.809 156.129 164.72 157.218 164.72 158.561C164.72 159.905 165.809 160.994 167.152 160.994Z" fill="#C4DCDC"/>
<path d="M182.203 160.994C183.547 160.994 184.636 159.905 184.636 158.561C184.636 157.218 183.547 156.129 182.203 156.129C180.86 156.129 179.771 157.218 179.771 158.561C179.771 159.905 180.86 160.994 182.203 160.994Z" fill="#C4DCDC"/>
<path d="M174.457 176.044C179.163 176.044 183.673 173.638 186.255 169.642L184.212 168.322C181.841 171.991 177.504 174.039 173.161 173.538C169.776 173.147 166.646 171.197 164.788 168.322L162.745 169.642C164.994 173.122 168.783 175.481 172.882 175.954C173.408 176.015 173.933 176.044 174.457 176.044Z" fill="#C4DCDC"/>
<path d="M383.713 180.896C409.689 186.606 415.732 161.215 415.506 147.805C415.281 134.396 393.183 106.929 391.492 77.4067C387.459 7.00804 328.92 32.637 323.508 56.9684C318.096 81.2997 311.131 87.5206 304.384 99.8563C290.288 125.628 296.868 146.818 315.552 152.537C350.717 163.298 351.243 173.759 383.713 180.896Z" fill="#16353A"/>
<rect x="322.92" y="25.7251" width="16.248" height="6.67049" fill="#C4DCDC"/>
<path d="M331.233 49.0718H311.584C311.584 42.846 319.519 35.1132 323.487 32.025H331.233V49.0718Z" fill="#C4DCDC"/>
<path d="M331.233 49.0718H350.882C350.882 42.846 342.947 35.1132 338.979 32.025H331.233V49.0718Z" fill="#C4DCDC"/>
<path d="M350.882 49.0719H331.233V133.85C331.233 133.85 341.401 133.85 346.667 133.85C351.933 133.85 350.882 127.635 350.882 127.635V49.0719Z" fill="#C4DCDC"/>
<path d="M312.011 49.0717H331.66V133.85C331.66 133.85 321.491 133.85 316.226 133.85C310.96 133.85 312.011 127.635 312.011 127.635V49.0717Z" fill="#C4DCDC"/>
<path d="M331.232 37.769H320.599C315.364 42.0678 313.919 46.3542 313.851 47.9601C313.851 47.9601 313.473 125.412 313.851 129.303C314.229 133.194 331.232 132.268 331.232 132.268L331.232 37.769Z" fill="#547C83"/>
<path d="M331.232 37.7692H341.866C347.101 42.0679 348.546 46.3543 348.614 47.9602C348.614 47.9602 348.992 125.412 348.614 129.303C348.236 133.194 331.232 132.268 331.232 132.268L331.232 37.7692Z" fill="#547C83"/>
<path fill-rule="evenodd" clip-rule="evenodd" d="M348.075 116.703C349.677 116.319 350.501 115.969 350.51 115.424C350.51 115.95 350.546 116.735 350.592 117.77C350.684 119.822 350.82 122.858 350.82 126.821C350.82 132.805 347.269 134.052 345.494 133.927H331.346V133.927H316.888C315.113 134.052 311.562 132.805 311.562 126.821C311.562 122.859 311.698 119.822 311.79 117.771C311.836 116.735 311.871 115.951 311.872 115.424C311.881 115.97 312.705 116.32 314.307 116.703C316.238 117.166 326.86 117.314 331.036 117.264V117.259C331.091 117.26 331.148 117.261 331.206 117.261C331.254 117.261 331.301 117.26 331.346 117.259V117.263C335.522 117.314 346.144 117.166 348.075 116.703Z" fill="#C4DCDC" fill-opacity="0.5"/>
<path fill-rule="evenodd" clip-rule="evenodd" d="M331.028 114.657V114.665C331.147 114.664 331.268 114.662 331.391 114.661C331.527 114.663 331.661 114.664 331.792 114.665V114.656C338.051 114.581 349.354 114.307 349.935 113.738C350.108 113.569 350.272 113.447 350.421 113.337C350.921 112.965 351.258 112.715 351.258 111.144V104.289C351.006 103.918 350.2 103.177 348.99 103.177C348.514 103.177 347.271 103.287 345.568 103.438C341.941 103.759 336.223 104.265 331.369 104.288C326.533 104.259 320.859 103.757 317.252 103.438C315.549 103.287 314.306 103.177 313.831 103.177C312.621 103.177 311.814 103.918 311.562 104.289V111.145C311.562 112.716 311.899 112.966 312.4 113.337C312.549 113.448 312.712 113.569 312.885 113.739C313.466 114.308 324.769 114.581 331.028 114.657Z" fill="#C4DCDC" fill-opacity="0.5"/>
<path fill-rule="evenodd" clip-rule="evenodd" d="M331.028 88.7158V88.7243C331.152 88.723 331.278 88.7217 331.407 88.7202C331.538 88.7217 331.666 88.7231 331.792 88.7243V88.7157C338.051 88.64 349.354 88.3668 349.935 87.7978C350.108 87.628 350.272 87.5067 350.421 87.3963C350.921 87.0248 351.258 86.7748 351.258 85.2037V78.348C351.006 77.9774 350.2 77.2362 348.99 77.2362C348.514 77.2362 347.271 77.3462 345.568 77.497C341.949 77.8172 336.251 78.3216 331.404 78.347C326.56 78.3209 320.868 77.817 317.252 77.497C315.549 77.3462 314.306 77.2363 313.831 77.2363C312.621 77.2363 311.814 77.9774 311.562 78.348V85.2038C311.562 86.7749 311.899 87.0249 312.4 87.3964C312.549 87.5068 312.712 87.628 312.885 87.7979C313.466 88.3668 324.769 88.64 331.028 88.7158Z" fill="#C4DCDC" fill-opacity="0.5"/>
<path fill-rule="evenodd" clip-rule="evenodd" d="M331.028 101.686V101.694C331.149 101.693 331.272 101.692 331.397 101.691C331.531 101.692 331.663 101.693 331.792 101.695V101.686C338.051 101.61 349.354 101.337 349.935 100.768C350.108 100.598 350.272 100.477 350.421 100.367C350.921 99.995 351.258 99.745 351.258 98.174V91.3182C351.006 90.9476 350.2 90.2064 348.99 90.2064C348.514 90.2064 347.271 90.3164 345.568 90.4672C341.944 90.7879 336.234 91.2933 331.383 91.3173C326.543 91.2898 320.863 90.787 317.252 90.4675C315.549 90.3167 314.306 90.2067 313.831 90.2067C312.621 90.2067 311.814 90.9479 311.562 91.3185V98.1742C311.562 99.7453 311.899 99.9953 312.4 100.367C312.549 100.477 312.712 100.598 312.885 100.768C313.466 101.337 324.769 101.61 331.028 101.686Z" fill="#C4DCDC" fill-opacity="0.5"/>
<path fill-rule="evenodd" clip-rule="evenodd" d="M331.043 16.8322V16.8312H337.595C338.752 16.8312 340.679 18.3135 340.679 20.3517V26.6516C340.614 27.1457 340.293 28.134 339.522 28.134H331.043V28.1349H322.564C321.793 28.1349 321.472 27.1467 321.408 26.6526V20.3527C321.408 18.3145 323.335 16.8322 324.491 16.8322H331.043Z" fill="#3E5E00"/>
<rect x="324.505" y="18.3135" width="0.396291" height="8.52336" fill="#88A550"/>
<rect x="327.675" y="18.3135" width="0.396291" height="8.52336" fill="#88A550"/>
<rect x="326.09" y="18.3135" width="0.396291" height="8.52336" fill="#88A550"/>
<rect x="334.015" y="18.3135" width="0.396291" height="8.52336" fill="#88A550"/>
<rect x="337.186" y="18.3135" width="0.396291" height="8.52336" fill="#88A550"/>
<rect x="335.601" y="18.3135" width="0.396291" height="8.52336" fill="#88A550"/>
<rect x="329.26" y="18.3135" width="0.396291" height="8.52336" fill="#88A550"/>
<rect x="332.43" y="18.3135" width="0.396291" height="8.52336" fill="#88A550"/>
<rect x="330.846" y="18.3135" width="0.396291" height="8.52336" fill="#88A550"/>
<path d="M323.316 26.8369V19.8176C322.999 21.2215 322.919 25.0821 322.919 26.8369H323.316Z" fill="#88A550"/>
<path d="M338.771 26.8369V19.8176C339.088 21.2215 339.168 25.0821 339.168 26.8369H338.771Z" fill="#88A550"/>
<path fill-rule="evenodd" clip-rule="evenodd" d="M311.206 49.813V72.6216C311.206 73.1686 311.486 74.2954 312.608 74.4266C314.01 74.5907 327.628 75.9035 331.232 75.5753C334.837 75.9035 348.455 74.5907 349.857 74.4266C350.979 74.2954 351.259 73.1686 351.259 72.6216V49.813H331.232H311.206Z" fill="#3E5E00"/>
<path d="M337.089 34.0632H333.122C339.545 37.9544 341.812 46.4778 341.435 46.4778H345.969C345.969 46.4778 342.379 36.1014 337.089 34.0632Z" fill="#F4FFFF"/>
<path d="M380.369 119C367.962 119 357.869 129.094 357.869 141.5C357.869 153.906 367.962 164 380.369 164C392.775 164 402.869 153.906 402.869 141.5C402.869 129.094 392.775 119 380.369 119ZM380.369 161.568C374.857 161.568 369.857 159.333 366.227 155.724C364.777 154.282 363.546 152.621 362.588 150.795C361.128 148.014 360.301 144.852 360.301 141.5C360.301 130.435 369.303 121.432 380.369 121.432C385.617 121.432 390.401 123.459 393.98 126.769C395.836 128.485 397.369 130.546 398.474 132.85C399.731 135.47 400.436 138.404 400.436 141.5C400.436 152.565 391.434 161.568 380.369 161.568Z" fill="#C4DCDC"/>
<path d="M373.021 138.915C374.364 138.915 375.453 137.826 375.453 136.483C375.453 135.14 374.364 134.051 373.021 134.051C371.677 134.051 370.588 135.14 370.588 136.483C370.588 137.826 371.677 138.915 373.021 138.915Z" fill="#C4DCDC"/>
<path d="M388.072 138.915C389.415 138.915 390.504 137.826 390.504 136.483C390.504 135.14 389.415 134.051 388.072 134.051C386.728 134.051 385.639 135.14 385.639 136.483C385.639 137.826 386.728 138.915 388.072 138.915Z" fill="#C4DCDC"/>
<path d="M380.412 144.859C375.706 144.859 371.196 147.265 368.614 151.261L370.657 152.581C373.028 148.912 377.365 146.865 381.709 147.366C385.093 147.756 388.223 149.706 390.081 152.581L392.124 151.261C389.876 147.781 386.086 145.422 381.987 144.949C381.461 144.888 380.936 144.859 380.412 144.859Z" fill="#C4DCDC"/>
</svg>
