<svg width="448" height="760" viewBox="0 0 448 760" fill="none" xmlns="http://www.w3.org/2000/svg">
<path d="M34.0446 318.369L27.0967 322C27.0967 302.922 28.4863 267.808 34.0446 259.923C40.9925 250.067 67.1278 243.337 81.2902 251.969C89.8014 257.156 97.0388 279.866 97.0967 292.604H89.8014C91.1331 292.258 92.1984 288.454 85.8064 276.004C77.8163 260.442 75.9056 255.6 54.3672 257.156C37.1364 258.401 33.6393 298.483 34.0446 318.369Z" fill="#547C83"/>
<rect x="132.574" y="130.764" width="10.4057" height="234.821" fill="#547C83"/>
<path fill-rule="evenodd" clip-rule="evenodd" d="M180.465 43.7162C180.465 57.6901 173.909 70.1326 163.704 78.1354C162.171 80.7718 160.951 83.7234 160.482 86.825C159.713 91.9114 159.654 96.2692 159.848 99.4542C159.999 101.948 158.062 104.323 155.564 104.323H138.073H135.093H117.602C115.104 104.323 113.167 101.948 113.319 99.4542C113.512 96.2692 113.454 91.9114 112.684 86.825C112.185 83.5245 110.836 80.3938 109.163 77.6321C99.3199 69.6161 93.0325 57.4004 93.0325 43.7162C93.0325 19.5724 112.605 0 136.749 0C160.893 0 180.465 19.5724 180.465 43.7162Z" fill="#ECDD3C"/>
<path fill-rule="evenodd" clip-rule="evenodd" d="M158.276 104.323H136.749V139.263C143.925 139.428 158.276 133.567 158.276 128.665V104.323ZM115.222 104.323H136.749V139.263C129.573 139.429 115.222 133.567 115.222 128.665V104.323Z" fill="#547C83"/>
<path d="M130.661 117.682C130.44 92.2913 132.813 42.8346 125.528 48.4647C120.78 52.1337 133.807 53.7637 136.457 53.7637C151.029 53.7637 150.035 48.4647 147.054 48.4647C140.431 48.4647 142.749 93.9473 141.59 117.682" stroke="#547C83" stroke-width="1.15206"/>
<path d="M154.952 106.973H150.99V130.818C154.435 129.703 155.066 127.669 154.952 126.792V106.973Z" fill="#C4DCDC"/>
<path d="M173.061 34.4432C170.014 22.2557 158.276 14.2528 156.998 14.5722C153.686 15.4002 158.773 20.3679 160.31 22.5206C162.555 25.6636 176.869 49.6777 173.061 34.4432Z" fill="white"/>
<path d="M175.498 42.5573H173.345C172.948 42.5573 173.179 45.0963 173.345 46.3659C173.842 47.249 174.968 48.651 175.498 47.1938C176.028 45.7366 175.719 43.4956 175.498 42.5573Z" fill="white"/>
<path d="M362.117 280.248L304.366 139.598L246.614 280.248H362.117Z" fill="#C4DCDC"/>
<path d="M304.183 279.889V140.318L360.874 279.889H304.183Z" fill="#547C83"/>
<path d="M281.993 193.109L304.295 139.946L325.003 189.972C324.72 193.876 321.552 193.806 320.578 189.972C320.106 188.112 318.455 184.533 315.623 185.091C312.083 185.788 315.269 188.577 310.667 196.77C306.065 204.962 299.339 193.109 298.454 189.972C297.569 186.834 295.091 184.219 291.551 189.972C288.719 194.573 283.999 193.981 281.993 193.109Z" fill="white"/>
<path d="M304.539 256.662L246.787 116.012L189.036 256.662H304.539Z" fill="#C4DCDC"/>
<path d="M246.604 256.303V116.732L303.296 256.303H246.604Z" fill="#547C83"/>
<path d="M224.415 169.523L246.717 116.359L267.425 166.385C267.142 170.29 263.974 170.22 263 166.385C262.528 164.526 260.876 160.947 258.044 161.504C254.504 162.202 257.69 164.991 253.088 173.183C248.486 181.375 241.761 169.523 240.876 166.385C239.991 163.248 237.513 160.633 233.973 166.385C231.141 170.987 226.421 170.394 224.415 169.523Z" fill="white"/>
<path d="M42.6474 410.928L3.26317 334.682L445.984 322.369V353.15L426.329 386.304L383.236 401.064C377.105 416.639 361.89 451.232 350.082 464.998C338.274 478.764 326.274 528.142 321.749 551.11L294.751 585.525L263.971 599.098C257.419 592.126 242.105 574.74 233.264 560.974C224.423 547.208 177.909 532.246 155.757 526.485C142.629 511.75 115.156 478.824 110.29 464.998C105.425 451.173 63.1678 423.191 42.6474 410.928Z" fill="#3E5E00"/>
<path d="M1.5273 335.683C-5.89652 329.237 15.5417 317.764 27.1887 312.834L58.792 288.4L175.335 273.312L267.421 288.4L361.924 303.06C391.089 306.318 448.945 315.105 447.051 324.192C445.158 333.279 408.954 335.638 391.089 335.683H279.163L169.51 348.626L113.453 335.683L61.7403 340.775C43.8436 343.46 8.95113 342.128 1.5273 335.683Z" fill="#88A550"/>
<path d="M177.07 264.119C155.014 281.742 129.595 283.048 117.931 289.345C221.641 326.9 391.315 307.894 383.74 307.092C374.271 306.09 321.988 276.465 302.09 259.576C286.171 246.066 262.523 236.773 252.688 233.815C210.195 233.815 196.953 248.233 177.07 264.119Z" fill="#3E5E00"/>
<path d="M244.595 268.432C221.76 285.034 192.723 301.779 181.059 308.076C214.184 330.022 454.442 326.624 446.867 325.823C437.399 324.821 385.115 295.195 365.217 278.307C349.299 264.796 325.65 255.503 315.816 252.545C301.59 250.923 267.429 251.83 244.595 268.432Z" fill="#88A550"/>
<path d="M59.8316 215.884C59.4153 213.664 58.2707 213.225 57.7504 213.283L55.8427 214.323C57.3458 215.769 60.2478 218.104 59.8316 215.884Z" fill="#547C83"/>
<path d="M66.1709 249.291C63.2824 245.136 55.081 243.626 51.3414 243.39C46.828 245.514 50.334 250.756 52.1393 251.346C55.5396 252.458 62.0444 252.006 61.9155 253.895C61.3813 261.718 62.2367 268.059 62.7955 274.079H64.9267C65.7005 267.548 69.0594 253.446 66.1709 249.291Z" fill="#547C83"/>
<path d="M70.0892 249.018C67.2149 245.056 59.0541 243.615 55.333 243.39C50.842 245.416 54.3306 250.415 56.127 250.978C59.5105 252.038 65.8196 251.231 66.1409 253.01C67.4133 260.057 68.2711 266.917 68.8271 272.659H70.9478C71.7177 266.429 72.9634 252.981 70.0892 249.018Z" fill="#547C83"/>
<path d="M50.955 226.8C53.9218 226.233 56.4586 223.16 55.8566 221.553C56.5016 219.804 58.3297 217.408 57.6625 221.553C56.6864 227.618 60.7583 224.957 61.9192 226.8C62.848 228.275 61.9192 239.044 61.9192 244.243C58.3935 245.803 52.8588 247.131 49.7941 244.243C47.9882 242.542 47.2464 227.509 50.955 226.8Z" fill="#C4DCDC"/>
<ellipse cx="56.1173" cy="218.383" rx="3.55206" ry="5.96746" fill="white"/>
<path d="M64.8496 272.906L62.6681 272.673C62.4118 273.599 62.055 275.466 62.6782 275.532C63.3015 275.599 66.3476 277.631 68.2878 276.131L68.5071 275.552C68.5388 275.255 68.3873 274.607 67.5274 274.395C66.6675 274.183 65.3839 273.314 64.8496 272.906Z" fill="white"/>
<path d="M70.8967 272.338L68.7152 272.105C68.4589 273.03 68.1021 274.898 68.7254 274.964C69.3487 275.031 72.3948 277.063 74.3349 275.563L74.5542 274.984C74.5859 274.687 74.4344 274.039 73.5745 273.827C72.7146 273.615 71.431 272.746 70.8967 272.338Z" fill="white"/>
<path d="M71.1123 242.822C73.1489 243.201 79.8091 245.242 75.2327 242.254C72.0596 239.696 65.5711 234.581 65.0028 234.581C64.2924 234.581 62.7295 226.767 61.5928 226.625C60.6835 226.511 61.2139 233.966 61.5928 237.707L63.1792 237.991C64.8841 238.446 69.1232 239.128 71.1123 242.822Z" fill="#C4DCDC"/>
<ellipse rx="2.32394" ry="6.1356" transform="matrix(0.840364 0.542023 -0.561623 0.827393 77.0408 243.873)" fill="#ECDD3C"/>
<path d="M68.91 233.728L80.4237 238.864L73.7237 248.756L64.2916 241.527C63.8362 237.659 65.4624 235.25 68.91 233.728Z" fill="#ECDD3C"/>
<path d="M68.9728 242.922L68.8436 240.795L71.1127 240.657C72.928 240.547 72.2389 242.012 71.6674 242.759L68.9728 242.922Z" fill="white"/>
<path d="M60.5219 238.701C58.3623 236.2 54.5071 231.218 52.8495 229.039C53.702 232.26 55.5206 239.326 55.9753 241.827C56.4299 244.327 65.1633 243.626 69.4731 242.963V240.406C67.3892 240.88 62.6816 241.202 60.5219 238.701Z" fill="#C4DCDC"/>
<path d="M58.9647 213.803C59.2422 211.861 56.4211 211.491 54.8025 211.722C51.7501 212.277 52.1432 217.618 52.201 220.567C54.8025 218.775 58.6872 215.745 58.9647 213.803Z" fill="#547C83"/>
<path d="M50.1201 208.253C54.9761 204.507 54.9182 209.352 54.2823 212.242L54.1089 214.67C53.5886 215.422 51.5075 218.451 50.1201 221.087C48.7327 223.723 45.1485 222.764 43.5298 221.954C45.7497 222.232 46.6515 219.873 46.825 218.659C45.9 216.751 45.2641 212 50.1201 208.253Z" fill="#547C83"/>
<path d="M125.218 341.4C94.8921 308.076 62.2295 327.515 49.6889 341.4C45.922 342.28 34.0967 358.788 34.0967 368.974V760H141.097V368.974C135.26 350.2 128.079 342.769 125.218 341.4Z" fill="url(#paint0_linear)"/>
<path d="M125.17 332.166C95.0489 324.236 62.6067 328.862 50.1508 332.166C46.4093 332.376 34.6638 336.305 34.6638 338.729V431.792C34.6638 431.792 38.6421 446.142 43.1888 431.792C47.7355 417.441 43.1035 345.775 50.1508 362.598C58.96 383.626 51.1454 454.241 61.2333 450.262C71.3211 446.284 63.5066 397.408 69.6161 386.467C71.2824 383.484 75.7178 381.464 77.0043 386.467C78.2831 391.44 77.0044 434.918 83.5402 434.918C88.7689 434.918 88.7973 391.44 90.2181 369.133C91.0145 356.63 100.846 354.129 104.711 369.133C109.541 387.888 99.7376 457.082 108.547 453.672C117.356 450.262 112.383 401.528 115.935 391.44C119.487 381.352 125.597 369.844 129.575 391.44C133.553 413.037 129.575 450.262 133.979 450.262C138.384 450.262 140.941 447.137 140.941 431.792V342.51C137.646 334.705 128.012 332.492 125.17 332.166Z" fill="#C4DCDC"/>
<path d="M120.908 314.573H54.6976L50.293 332.192C88.3712 324.519 125.881 332.192 125.881 332.192L120.908 314.573Z" fill="white"/>
<path d="M66.4908 320.114L65.3541 329.918C66.6045 329.691 71.1795 329.35 73.3108 329.208V320.114H66.4908Z" fill="#547C83"/>
<path d="M78.1411 320.114V329.006C79.4198 328.923 83.114 328.781 84.9611 328.828V320.114H78.1411Z" fill="#547C83"/>
<path d="M108.263 320.114L109.4 329.918C108.15 329.691 103.575 329.35 101.443 329.208V320.114H108.263Z" fill="#547C83"/>
<path d="M96.6125 320.114V329.006C95.3337 328.923 91.6396 328.781 89.7925 328.828V320.114H96.6125Z" fill="#547C83"/>
<path d="M73.8793 247.795C73.4246 246.885 74.4476 245.569 75.158 244.669C76.5315 244.337 78.124 245.237 78.7101 246.8C79.733 249.528 80.6992 269.147 80.6992 280.616C80.6992 292.551 76.0105 290.277 77.0051 294.682C77.1358 295.261 79.5626 298.518 90.7871 299.655C102.012 300.792 98.8167 305.561 101.301 306.617C106.984 309.032 118.067 307.611 120.482 314.574H54.8402C59.3869 310.311 65.9227 311.448 71.3218 309.032C76.7209 306.617 73.8793 302.354 69.1906 300.223C64.5018 298.092 62.7968 293.83 67.6276 291.13C71.4923 288.97 73.4057 281.895 73.8793 278.627C74.0687 268.728 74.3339 248.704 73.8793 247.795Z" fill="#C4DCDC"/>
<path d="M73.8793 247.795C73.4246 246.885 74.4476 245.569 75.158 244.669C76.5315 244.337 75.5665 245.379 76.1526 246.942C77.1756 249.67 76.1526 266.021 76.1526 277.49C76.1526 289.425 71.0376 291.414 72.0322 295.818C72.1629 296.397 71.3218 300.081 82.5463 301.218C93.7708 302.354 89.013 307.976 91.4975 309.032C97.1808 311.448 118.067 307.611 120.482 314.573H54.8402C59.3869 310.311 65.9227 311.448 71.3218 309.032C76.7209 306.617 73.8793 302.354 69.1906 300.223C64.5018 298.092 62.7968 293.829 67.6276 291.13C71.4923 288.97 73.4057 281.894 73.8793 278.626C74.0687 268.728 74.3339 248.704 73.8793 247.795Z" fill="#547C83"/>
<path d="M63.5105 390.334C67.1003 389.156 64.9325 395.879 64.6467 402.027C63.5029 407.542 60.8447 406.381 61.2083 403.088C61.3116 402.152 60.2537 391.402 63.5105 390.334Z" fill="#547C83"/>
<path d="M135.229 442.455C134.888 440.296 134.045 442.124 133.666 443.308C133.211 448.309 134.234 447.76 134.944 447.144C135.087 446.292 135.57 444.615 135.229 442.455Z" fill="#547C83"/>
<path d="M63.7824 441.486C63.3858 439.269 61.6125 440.911 60.7754 442.009C59.3747 446.885 61.342 446.552 62.7341 446.087C63.0932 445.269 64.179 443.703 63.7824 441.486Z" fill="#547C83"/>
<path d="M118.773 380.162C117.994 381.001 114.963 383.358 115.176 379.322C115.951 371.625 118.893 371.144 120.775 371.583C123.127 372.132 119.16 379.745 118.773 380.162Z" fill="#547C83"/>
<path d="M87.8031 305.48C87.6894 304.003 85.4824 303.349 84.3931 303.207C82.1198 303.207 83.1144 305.935 85.1035 306.333C86.0507 306.522 87.9167 306.958 87.8031 305.48Z" fill="#C4DCDC"/>
<path d="M190.331 216.354L193.638 203.966H200.782L204.487 216.354C200.041 217.756 193.197 216.938 190.331 216.354Z" fill="#547C83"/>
<circle cx="197.408" cy="190.431" r="7.82287" fill="#ECDD3C"/>
<path d="M197.409 221.599C195.34 218.624 194.925 220.605 193.996 222.418C190.082 223.834 194.428 240.473 194.428 240.473C194.428 240.473 193.559 259.72 194.925 259.72C196.291 259.72 198.774 240.721 198.774 240.721C198.774 240.721 199.477 224.574 197.409 221.599Z" fill="#547C83"/>
<path d="M195.863 257.519C195.475 257.037 193.874 257.344 193.874 257.344C193.553 258.664 193.204 261.97 193.769 262.489C194.551 263.207 196.263 263.164 196.303 261.196C196.303 261.196 196.252 258.001 195.863 257.519Z" fill="white"/>
<path d="M202.133 221.467C200.065 218.492 201.398 222.456 198.721 222.287C195.489 223.808 198.721 243.197 198.721 243.197C198.721 243.197 200.767 259.464 202.133 259.464C203.499 259.464 203.499 240.59 203.499 240.59C203.499 240.59 204.201 224.442 202.133 221.467Z" fill="#547C83"/>
<path d="M203.071 257.388C202.683 256.906 201.082 257.213 201.082 257.213C200.761 258.533 200.412 261.839 200.977 262.358C201.759 263.076 203.471 263.033 203.511 261.065C203.511 261.065 203.46 257.87 203.071 257.388Z" fill="white"/>
<path d="M194.176 211.581C196.533 211.176 196.981 208.985 196.502 207.838C197.015 206.591 198.932 204.882 198.402 207.838C197.627 212.164 201.291 210.92 201.755 211.581C202.493 212.633 203.975 216.955 202.887 223.629C199.505 226.225 195.688 226.081 193.254 224.021C191.819 222.807 191.23 212.086 194.176 211.581Z" fill="#C4DCDC"/>
<ellipse cx="197.16" cy="205.456" rx="3.60101" ry="4.22187" fill="white"/>
<path d="M196.415 204.463H193.311C195.174 198.142 200.265 201.059 201.01 204.463L198.278 204.463L197.284 202.883L196.415 204.463Z" fill="#547C83"/>
<path d="M203.955 197.842L202.502 198.31L202.003 196.761C201.604 195.521 202.743 195.739 203.362 196.002L203.955 197.842Z" fill="white"/>
<path d="M190.828 197.842L192.28 198.31L192.779 196.761C193.179 195.521 192.04 195.739 191.421 196.002L190.828 197.842Z" fill="white"/>
<path d="M203.99 206.077C203.617 207.07 202.624 211.664 200.016 211.664C200.223 213.403 201.631 215.886 202.127 215.886C203.245 215.886 206.225 207.815 206.349 206.698C206.473 205.58 204.965 198.407 203.99 197.757C203.617 197.509 202.665 197.592 202.5 198.254C203.907 201.524 204.398 204.988 203.99 206.077Z" fill="#C4DCDC"/>
<path d="M190.709 206.2C191.082 207.194 192.075 211.788 194.683 211.788C194.476 213.527 193.069 216.01 192.572 216.01C191.454 216.01 188.474 207.939 188.35 206.821C188.226 205.704 189.738 198.536 190.709 197.881C191.076 197.633 192.034 197.715 192.199 198.378C190.792 201.647 190.301 205.112 190.709 206.2Z" fill="#C4DCDC"/>
<path d="M159.017 309.97C160.478 310.667 160.843 313.166 160.843 314.328C164.435 314.522 170.706 314.328 170.706 314.328C170.706 314.328 172.289 311.423 173.263 310.261C171.984 310.261 169.756 312.353 170.341 311.423C170.925 310.493 170.828 309.389 170.706 308.953C169.915 309.97 168.149 311.801 167.418 310.987C166.688 310.173 167.479 308.033 167.966 307.064C166.359 307.529 165.105 310.309 165.044 311.423C164.752 310.261 163.218 308.711 162.487 308.081C162.852 309.583 163.364 312.353 162.487 311.423C161.391 310.261 157.191 309.098 159.017 309.97Z" fill="#88A550"/>
<rect x="163.561" y="296.774" width="4.99802" height="15.2881" fill="#547C83"/>
<rect x="145.333" y="302.066" width="41.4542" height="0.882004" fill="#547C83"/>
<path d="M151.737 283.544H180.047L186.788 302.066H145.334L151.737 283.544Z" fill="white"/>
<path d="M152.977 284.72H178.702L184.141 300.302H147.979L152.977 284.72Z" fill="#547C83"/>
<path d="M148.597 298L152.597 284.5L176.097 284.5C179.39 298.141 158.985 298.539 148.597 298Z" fill="#C4DCDC"/>
<path d="M160.621 284.72H162.238L160.621 301.184H157.387L160.621 284.72Z" fill="white"/>
<path d="M171.352 284.72H169.735L171.352 301.184H174.586L171.352 284.72Z" fill="white"/>
<rect x="151.507" y="287.66" width="28.8121" height="0.882004" fill="white"/>
<rect x="149.155" y="292.952" width="33.5162" height="0.882004" fill="white"/>
<path d="M208.996 325.473C210.72 326.296 211.151 329.244 211.151 330.615C215.389 330.844 222.787 330.615 222.787 330.615C222.787 330.615 224.654 327.187 225.804 325.816C224.295 325.816 221.666 328.284 222.356 327.187C223.045 326.09 222.931 324.788 222.787 324.274C221.853 325.473 219.77 327.633 218.908 326.673C218.046 325.713 218.98 323.188 219.555 322.045C217.659 322.594 216.179 325.873 216.107 327.187C215.762 325.816 213.952 323.988 213.091 323.245C213.521 325.016 214.125 328.284 213.091 327.187C211.798 325.816 206.842 324.445 208.996 325.473Z" fill="#88A550"/>
<rect x="214.357" y="309.905" width="5.89654" height="18.0365" fill="#547C83"/>
<rect x="192.852" y="316.149" width="48.9066" height="1.04057" fill="#547C83"/>
<path d="M200.407 294.297H233.807L241.759 316.149H192.853L200.407 294.297Z" fill="white"/>
<path d="M201.87 295.685H232.22L238.637 314.068H195.974L201.87 295.685Z" fill="#547C83"/>
<path d="M196.597 312L201.597 295.5L228.597 295.5C232.481 311.594 208.852 312.636 196.597 312Z" fill="#C4DCDC"/>
<path d="M210.889 295.685H212.796L210.889 315.109H207.073L210.889 295.685Z" fill="white"/>
<path d="M223.549 295.685H221.641L223.549 315.109H227.364L223.549 295.685Z" fill="white"/>
<rect x="200.136" y="299.153" width="33.9918" height="1.04057" fill="white"/>
<rect x="197.361" y="305.396" width="39.5415" height="1.04057" fill="white"/>
<path d="M244.811 287.827C246.026 288.406 246.33 290.484 246.33 291.45C249.316 291.611 254.53 291.45 254.53 291.45C254.53 291.45 255.846 289.035 256.656 288.068C255.593 288.068 253.741 289.808 254.227 289.035C254.713 288.261 254.632 287.343 254.53 286.981C253.872 287.827 252.404 289.349 251.797 288.672C251.189 287.996 251.847 286.216 252.252 285.411C250.916 285.797 249.873 288.108 249.823 289.035C249.58 288.068 248.304 286.78 247.697 286.256C248 287.504 248.426 289.808 247.697 289.035C246.785 288.068 243.293 287.102 244.811 287.827Z" fill="#88A550"/>
<rect x="248.59" y="276.855" width="4.15566" height="12.7114" fill="#547C83"/>
<rect x="233.434" y="281.255" width="34.4675" height="0.733352" fill="#547C83"/>
<path d="M238.758 265.855H262.297L267.901 281.255H233.434L238.758 265.855Z" fill="white"/>
<path d="M239.789 266.833H261.179L265.701 279.788H235.634L239.789 266.833Z" fill="#547C83"/>
<path d="M236.097 278.5L239.597 266.5L258.597 267C261.334 278.343 244.734 278.948 236.097 278.5Z" fill="#C4DCDC"/>
<path d="M246.145 266.833H247.489L246.145 280.522H243.456L246.145 266.833Z" fill="white"/>
<path d="M255.067 266.833H253.723L255.067 280.522H257.756L255.067 266.833Z" fill="white"/>
<rect x="238.567" y="269.277" width="23.9562" height="0.733352" fill="white"/>
<rect x="236.611" y="273.677" width="27.8674" height="0.733352" fill="white"/>
<path d="M403.155 235.331L378.528 242.615C360.491 238.869 347.742 235.331 359.624 215.56L396.564 207.929C378.528 229.419 399.686 229.376 403.155 235.331Z" fill="#ECDD3C"/>
<path d="M406.971 270.016C404.083 265.862 403.503 268.629 402.205 271.161C399.339 271.161 400.553 296.724 400.553 296.724C400.553 296.724 401.595 323.259 403.503 323.259C405.411 323.259 406.971 298.112 406.971 298.112C406.971 298.112 409.86 274.171 406.971 270.016Z" fill="#547C83"/>
<path d="M413.57 269.833C410.682 265.678 412.544 271.213 408.804 270.977C404.291 273.102 408.804 300.183 408.804 300.183C408.804 300.183 411.662 322.902 413.57 322.902C415.478 322.902 415.478 296.541 415.478 296.541C415.478 296.541 416.459 273.988 413.57 269.833Z" fill="#547C83"/>
<path d="M402.567 255.945C404.889 255.969 404.542 251.23 404.542 249.378C405.285 247.625 409.464 246.528 408.696 250.684C407.571 256.765 412.194 255.016 412.866 255.945C413.936 257.423 416.034 261.343 414.456 270.726C414.456 274.566 404.761 276.328 401.23 273.433C399.149 271.726 398.236 255.9 402.567 255.945Z" fill="#C4DCDC"/>
<path d="M398.641 237.908L396.774 238.936L395.677 236.944C394.8 235.351 396.419 235.346 397.338 235.543L398.641 237.908Z" fill="white"/>
<path d="M384.635 242.783L386.571 241.89L385.619 239.826C384.857 238.174 383.892 239.475 383.505 240.331L384.635 242.783Z" fill="white"/>
<path d="M394.848 249.841C395.943 250.878 400.784 255.58 405.031 253.947C405.55 256.3 404.48 260.359 403.671 260.671C401.85 261.371 393.27 252.742 392.271 251.56C391.173 250.258 384.309 243.723 384.909 242.357C385.2 241.694 385.798 241.529 386.487 241.385C389.4 244.094 393.647 248.704 394.848 249.841Z" fill="#C4DCDC"/>
<path d="M405.2 247.643C406.06 248.883 410.785 251.633 414.081 254.408C414.774 255.101 414.914 255.813 414.948 256.489C415.609 269.669 412.693 261.865 411.999 261.171C410.62 259.792 403.165 250.096 402.326 248.796C401.247 247.124 396.218 239.666 396.911 238.279C397.235 237.631 397.778 237.651 398.753 237.651C401.048 240.9 404.258 246.283 405.2 247.643Z" fill="#C4DCDC"/>
<ellipse cx="406.796" cy="244.696" rx="5.20283" ry="6.93711" fill="white"/>
<path d="M403.136 234.432L402.287 241.172C404.834 243.218 409.706 249.482 411.259 248.808C412.811 248.134 413.241 239.126 412.958 235.877L410.776 237.08L409.927 234.432L408.108 235.877L406.774 230.822L404.47 235.877L403.136 234.432Z" fill="#547C83"/>
<path d="M401.974 319.778L404.943 320.242C404.953 321.567 404.762 324.183 403.914 324.051C403.065 323.918 398.313 325.548 396.28 322.858L396.195 322.009C396.259 321.601 396.689 320.791 397.902 320.814C399.115 320.836 401.122 320.133 401.974 319.778Z" fill="white"/>
<path d="M411.888 319.404L414.857 319.868C414.867 321.193 414.676 323.809 413.828 323.677C412.979 323.544 408.227 325.174 406.194 322.484L406.109 321.635C406.173 321.227 406.604 320.417 407.816 320.44C409.029 320.462 411.036 319.759 411.888 319.404Z" fill="white"/>
<path d="M330.553 150.698H331.247L335.409 280.075H326.391L330.553 150.698Z" fill="white"/>
<circle cx="330.9" cy="152.433" r="2.42799" fill="white"/>
<path d="M345.943 100.145L332.087 150.294C331.95 148.517 331.704 144.251 331.812 141.402C331.948 137.841 342.929 102.191 343.473 100.902C343.909 99.8705 345.301 99.9673 345.943 100.145Z" fill="#547C83"/>
<path d="M345.856 100.12L332 150.27C333.03 148.815 335.432 145.28 336.801 142.78C338.513 139.654 347.392 103.423 347.587 102.038C347.742 100.929 346.497 100.297 345.856 100.12Z" fill="#547C83"/>
<path d="M278.545 166.483L328.904 153.408C327.433 154.415 323.862 156.762 321.34 158.092C318.189 159.755 281.824 168.071 280.436 168.244C279.325 168.382 278.713 167.128 278.545 166.483Z" fill="#547C83"/>
<path d="M278.568 166.571L328.927 153.496C327.152 153.331 322.89 153.018 320.04 153.083C316.477 153.164 280.661 163.589 279.363 164.113C278.326 164.533 278.401 165.927 278.568 166.571Z" fill="#547C83"/>
<path d="M369.43 191.675L332.927 154.601C334.535 155.371 338.353 157.29 340.766 158.809C343.782 160.707 369.165 188.042 370.009 189.158C370.685 190.05 369.904 191.208 369.43 191.675Z" fill="#547C83"/>
<path d="M369.494 191.611L332.991 154.537C333.736 156.157 335.596 160.004 337.077 162.44C338.928 165.485 365.865 191.291 366.968 192.152C367.85 192.841 369.02 192.079 369.494 191.611Z" fill="#547C83"/>
<circle cx="330.9" cy="152.432" r="1.04057" fill="#547C83"/>
<path d="M159.961 310.082C161.271 310.707 161.599 312.948 161.599 313.99C164.819 314.164 170.442 313.99 170.442 313.99C170.442 313.99 171.861 311.385 172.734 310.343C171.588 310.343 169.59 312.218 170.114 311.385C170.638 310.551 170.551 309.561 170.442 309.17C169.732 310.082 168.149 311.723 167.494 310.994C166.839 310.264 167.549 308.345 167.985 307.477C166.544 307.894 165.42 310.386 165.365 311.385C165.103 310.343 163.727 308.953 163.072 308.389C163.4 309.735 163.858 312.218 163.072 311.385C162.09 310.343 158.323 309.3 159.961 310.082Z" fill="#3E5E00"/>
<path d="M209.983 325.198C211.534 325.955 211.922 328.667 211.922 329.929C215.736 330.139 222.394 329.929 222.394 329.929C222.394 329.929 224.075 326.775 225.109 325.513C223.752 325.513 221.386 327.784 222.006 326.775C222.627 325.766 222.523 324.567 222.394 324.094C221.554 325.198 219.679 327.185 218.903 326.302C218.128 325.419 218.968 323.096 219.485 322.044C217.779 322.549 216.447 325.566 216.382 326.775C216.072 325.513 214.443 323.831 213.667 323.148C214.055 324.778 214.598 327.784 213.667 326.775C212.504 325.513 208.044 324.252 209.983 325.198Z" fill="#3E5E00"/>
<path d="M246.21 288.238C247.14 288.699 247.373 290.349 247.373 291.117C249.662 291.245 253.656 291.117 253.656 291.117C253.656 291.117 254.665 289.198 255.285 288.43C254.471 288.43 253.051 289.812 253.424 289.198C253.796 288.583 253.734 287.854 253.656 287.566C253.152 288.238 252.027 289.447 251.562 288.91C251.097 288.372 251.601 286.958 251.911 286.318C250.887 286.625 250.088 288.462 250.049 289.198C249.863 288.43 248.886 287.406 248.42 286.99C248.653 287.982 248.979 289.812 248.42 289.198C247.722 288.43 245.046 287.662 246.21 288.238Z" fill="#3E5E00"/>
<path d="M318.208 273.767C320.897 275.083 321.57 279.8 321.57 281.994C328.181 282.36 339.721 281.994 339.721 281.994C339.721 281.994 342.635 276.509 344.427 274.315C342.074 274.315 337.973 278.264 339.049 276.509C340.125 274.754 339.945 272.67 339.721 271.847C338.265 273.767 335.015 277.222 333.671 275.686C332.326 274.151 333.783 270.11 334.679 268.282C331.721 269.16 329.413 274.407 329.301 276.509C328.763 274.315 325.94 271.39 324.595 270.202C325.267 273.036 326.209 278.264 324.595 276.509C322.578 274.315 314.847 272.121 318.208 273.767Z" fill="#3E5E00"/>
<rect x="117.398" y="298.657" width="1.50209" height="5.3506" fill="white"/>
<path d="M123.053 300.329L118.238 274.178L113.422 300.329H123.053Z" fill="#3E5E00"/>
<rect x="102.835" y="283.155" width="2.89206" height="17.6737" fill="white"/>
<ellipse cx="104.201" cy="277.21" rx="10.2026" ry="12.0503" fill="#3E5E00"/>
<rect x="305.394" y="314.613" width="1.50209" height="5.3506" fill="white"/>
<path d="M311.049 316.285L306.233 290.134L301.418 316.285H311.049Z" fill="#3E5E00"/>
<rect x="370.602" y="289.986" width="1.50209" height="5.3506" fill="white"/>
<path d="M376.258 291.658L371.442 265.507L366.627 291.658H376.258Z" fill="#3E5E00"/>
<rect x="290.831" y="299.111" width="2.89206" height="17.6737" fill="white"/>
<ellipse cx="292.196" cy="293.166" rx="10.2026" ry="12.0503" fill="#3E5E00"/>
<rect x="37.2798" y="308.129" width="2.89206" height="17.6737" fill="white"/>
<ellipse cx="38.6449" cy="302.184" rx="10.2026" ry="12.0503" fill="#3E5E00"/>
<path d="M277.459 500.449C277.699 498.879 281.523 496.651 283.405 495.733L284.332 501.988L279.452 513.898L274.626 516.211L274.688 509.65C275.512 507.237 277.219 502.019 277.459 500.449Z" fill="#88A550"/>
<path d="M274.615 510.152L277.473 500.456C307.832 531.375 337.341 561.789 354.762 575.081C362.327 580.854 364.948 577.011 368.811 579.223C377.909 587.738 370.047 603.861 365.175 602.982C364.33 602.286 363.703 601.382 363.269 600.325C361.974 598.69 360.435 596.925 359.547 595.942C318.802 553.978 288.506 522.938 274.615 510.152Z" fill="#547C83"/>
<path d="M366.233 586.879L387.337 588.231L399.879 591.928M364.29 586.306L383.014 591.825C388.555 590.069 391.662 589.085 397.203 587.329" stroke="white" stroke-width="3.07215" stroke-linecap="round"/>
<path d="M365.173 583.312L378.717 582.874L390.896 578.238" stroke="white" stroke-width="3.07215" stroke-linecap="round" stroke-linejoin="round"/>
<path d="M386.518 600.452L375.522 593.594L359.552 588.887M396.613 609.756L377.064 600.016L361.566 593.097M398.329 603.933L378.138 605.575L363.282 587.275M374.117 619.216L373.194 607.011L359.864 591.51" stroke="white" stroke-width="3.07215" stroke-linecap="round"/>
<path d="M366.037 600.6C365.324 597.06 364.004 588.504 368.706 580.375L353.964 587.602C359.979 594.799 366.75 604.14 366.037 600.6Z" fill="#547C83"/>
<path d="M337.317 445.698C337.872 444.033 342.751 442.23 345.121 441.536V448.473L337.317 460.613L331.247 462.347L332.461 455.237C333.848 452.751 336.762 447.363 337.317 445.698Z" fill="#88A550"/>
<path d="M413.279 435.087C414.805 451.32 361.597 448.994 337.317 446.045L332.461 455.41C338.994 457.896 357.526 460.06 378.246 460.06H378.246C402.353 460.06 419.175 460.06 428.02 438.208C436.126 418.181 406.168 405.116 380.501 406.851L377.206 414.828C393.912 415.06 411.752 418.854 413.279 435.087Z" fill="#547C83"/>
<path d="M418.308 428.233L430.101 406.677L427.846 416.809H433.569L418.308 444.831L425.245 423.922L418.308 428.233Z" fill="#ECDD3C"/>
<path d="M422.68 589.508L445.822 593.832L435.544 594.37L436.587 598.843L406.515 593.276L428.142 593.951L422.68 589.508Z" fill="#ECDD3C"/>
<path d="M414.05 599.108L427.813 604.157L421.447 603.424L421.624 606.279L403.735 599.749L416.945 602.401L414.05 599.108Z" fill="#ECDD3C"/>
<defs>
<linearGradient id="paint0_linear" x1="87.0967" y1="486.758" x2="87.0967" y2="745.5" gradientUnits="userSpaceOnUse">
<stop stop-color="#547C83"/>
<stop offset="1" stop-color="#547C83" stop-opacity="0"/>
</linearGradient>
</defs>
</svg>
