<svg width="454" height="760" viewBox="0 0 454 760" fill="none" xmlns="http://www.w3.org/2000/svg">
<path fill-rule="evenodd" clip-rule="evenodd" d="M180.465 43.7162C180.465 57.6901 173.909 70.1326 163.704 78.1354C162.171 80.7718 160.951 83.7234 160.482 86.825C159.713 91.9114 159.654 96.2692 159.848 99.4542C159.999 101.948 158.062 104.323 155.564 104.323H138.073H135.093H117.602C115.104 104.323 113.167 101.948 113.319 99.4542C113.512 96.2692 113.454 91.9114 112.684 86.825C112.185 83.5245 110.836 80.3938 109.163 77.6321C99.3199 69.6161 93.0325 57.4004 93.0325 43.7162C93.0325 19.5724 112.605 0 136.749 0C160.893 0 180.465 19.5724 180.465 43.7162Z" fill="#ECDD3C"/>
<ellipse rx="2.32394" ry="6.1356" transform="matrix(0.840364 0.542023 -0.561623 0.827393 77.0408 243.874)" fill="#ECDD3C"/>
<path d="M68.91 233.728L80.4237 238.864L73.7237 248.756L64.2916 241.527C63.8362 237.659 65.4624 235.25 68.91 233.728Z" fill="#ECDD3C"/>
<circle cx="197.408" cy="190.431" r="7.82287" fill="#ECDD3C"/>
<path d="M403.155 235.331L378.528 242.615C360.491 238.869 347.742 235.331 359.624 215.56L396.564 207.929C378.528 229.419 399.686 229.376 403.155 235.331Z" fill="#ECDD3C"/>
<path d="M438.308 438.233L450.101 416.677L447.846 426.809H453.569L438.308 454.831L445.245 433.922L438.308 438.233Z" fill="#ECDD3C"/>
<path d="M422.68 589.508L445.822 593.832L435.544 594.37L436.587 598.843L406.515 593.276L428.142 593.951L422.68 589.508Z" fill="#ECDD3C"/>
<path d="M414.05 599.108L427.813 604.157L421.447 603.424L421.624 606.279L403.735 599.749L416.945 602.401L414.05 599.108Z" fill="#ECDD3C"/>
</svg>
