<svg width="51" height="51" viewBox="0 0 51 51" fill="none" xmlns="http://www.w3.org/2000/svg">
<circle cx="25.5" cy="25.5" r="25.5" fill="#16353A"/>
<path fill-rule="evenodd" clip-rule="evenodd" d="M19.5272 22.9007C23.6417 18.4787 27.6423 14.0964 24.4949 12.4234L25.4452 12.5041C30.5104 13.0442 32.7066 15.7133 33.6487 18.1437L32.4937 17.7707C32.3311 17.7182 32.2072 17.5853 32.1664 17.4193L31.9844 16.6808C31.928 16.4518 31.7173 16.2947 31.4817 16.3061L29.1881 16.4167C28.9512 16.4281 28.7559 16.6066 28.7233 16.8416L28.6207 17.5809C28.5965 17.7551 28.4813 17.9033 28.3184 17.9698L26.938 18.5331C26.7785 18.5982 26.5967 18.5754 26.4582 18.473L25.9324 18.0839C25.7254 17.9307 25.4354 17.9625 25.2665 18.1569L23.8808 19.7522C23.7273 19.9289 23.7191 20.1892 23.8612 20.3752L24.2753 20.917C24.3806 21.0548 24.4058 21.2378 24.3417 21.3989L23.7585 22.8642C23.7038 23.0017 23.5904 23.1073 23.4494 23.152L22.7517 23.3734C22.5438 23.4394 22.4038 23.634 22.4076 23.8521L22.4435 25.9242C22.4478 26.1748 22.6393 26.3823 22.8887 26.4067L23.514 26.4678C23.6853 26.4846 23.8355 26.5894 23.9103 26.7445L24.5288 28.0272C24.5993 28.1735 24.5933 28.345 24.5128 28.486L24.0897 29.2272C23.9762 29.4261 24.0144 29.677 24.1821 29.833L25.8151 31.352C26.0007 31.5246 26.2871 31.5285 26.4773 31.3608L26.9422 30.9509C27.0957 30.8156 27.3169 30.7891 27.4981 30.8844L28.4115 31.3648C26.9968 31.8519 26.8676 32.6588 26.8676 32.6588L26.8793 34.181C26.8793 34.181 19.8472 34.8904 19.8472 36.1853C19.8472 37.4802 24.635 38.1435 24.635 38.1435C23.8318 38.3089 23.1609 38.4371 22.6011 38.5441L22.601 38.5441C20.2184 38.9995 19.8472 39.0704 19.8472 39.9915C19.8472 41.1289 24.7992 42.2132 24.7992 42.2132C24.7992 42.2132 23.1087 42.2132 23.1087 42.8607V43.5722L25.7996 43.5516C26.3377 43.5474 27.1116 42.9532 27.0958 42.1717C27.0799 41.3901 23.5422 39.9915 23.5422 39.9915C25.8472 39.8216 28.5743 39.5309 28.5743 38.421C28.5743 37.311 23.7131 36.1853 23.7131 36.1853C29.3209 35.6095 28.5743 34.6248 28.5743 34.6248L28.6357 32.6454C31.1655 31.7125 33.1433 29.0334 33.1433 29.0334C37.5554 22.9864 34.1396 16.6844 34.1396 16.6844C31.0873 11.5972 25.9077 11.183 24.0578 11.5047C23.3851 11.6217 22.9715 11.7388 22.7205 11.8441C18.8225 12.934 16.0124 17.2579 16.0124 20.7552C15.7552 17.6681 17.0085 14.104 21.0825 11.5878C18.8094 11.4257 17.0816 12.2058 15.18 13.9106C12.8413 16.3092 11.7853 23.2846 17.718 31.9016C17.832 32.0672 18.0916 31.9539 18.0537 31.7565C17.3397 28.039 17.611 24.9602 19.5272 22.9007ZM30.8274 29.8785C32.5922 28.2478 34.5034 25.4241 34.3218 22.4023C34.3218 22.4023 34.3982 21.5916 34.2361 20.4319C32.6705 19.0264 30.3575 18.607 28.3291 19.5503C25.6158 20.8122 24.4392 24.0347 25.7011 26.748C26.6506 28.7895 28.71 29.961 30.8274 29.8785Z" fill="white"/>
<path d="M22.6393 10.838L26.1533 10.4732C26.2853 10.4595 26.3604 10.3153 26.2958 10.1993L24.1038 6.26113C24.0246 6.11872 23.8132 6.14098 23.7654 6.29677L22.4434 10.5996C22.4044 10.7263 22.5075 10.8516 22.6393 10.838Z" fill="white"/>
<path d="M31.8145 12.7268L28.706 11.048C28.5892 10.9849 28.5749 10.8229 28.6789 10.7404L32.2085 7.93757C32.3361 7.83622 32.5229 7.93748 32.5077 8.09974L32.0865 12.5814C32.0741 12.7133 31.9311 12.7898 31.8145 12.7268Z" fill="white"/>
<path d="M36.2001 24.2897L36.2001 20.7568C36.2001 20.624 36.3358 20.5345 36.4579 20.5868L40.6013 22.3604C40.7511 22.4246 40.7508 22.6371 40.6008 22.7008L36.4574 24.4599C36.3354 24.5117 36.2001 24.4222 36.2001 24.2897Z" fill="white"/>
<path d="M35.6079 17.8766L33.9473 14.7583C33.8849 14.6411 33.9626 14.4983 34.0949 14.487L38.5857 14.105C38.7481 14.0912 38.8477 14.2789 38.7453 14.4056L35.915 17.9059C35.8317 18.009 35.6702 17.9935 35.6079 17.8766Z" fill="white"/>
<path d="M35.2515 27.1866L33.3347 30.1543C33.2626 30.2658 33.3281 30.4146 33.4589 30.437L37.9018 31.1951C38.0624 31.2225 38.1775 31.0438 38.086 30.9089L35.56 27.1832C35.4856 27.0735 35.3234 27.0753 35.2515 27.1866Z" fill="white"/>
</svg>
