<svg width="25" height="25" viewBox="0 0 30 30" fill="none" xmlns="http://www.w3.org/2000/svg">
<path d="M15 0C6.71569 0 0 6.71569 0 15C0 23.2843 6.71569 30 15 30C23.2843 30 30 23.2843 30 15C30 6.71569 23.2843 0 15 0ZM21.6091 8.33333C22.0756 8.33333 22.4538 8.71148 22.4538 9.17796C22.4538 9.94282 22.0401 10.6479 21.3725 11.0211L20.162 11.6978C16.9481 13.4943 13.038 13.5196 9.80118 11.7647L8.41032 11.0106C7.7353 10.6446 7.31486 9.93841 7.31486 9.17056C7.31486 8.70817 7.6897 8.33333 8.15209 8.33333H21.6091ZM22.4538 17.5139C22.4538 18.6185 21.5583 19.5139 20.4538 19.5139H9.31486C8.21029 19.5139 7.31486 18.6185 7.31486 17.5139V15.5306C7.31486 14.0266 8.91255 13.0607 10.2443 13.7596L14.2932 15.8846C14.4803 16.0276 14.7571 16.0992 14.9803 16.0992C15.2088 16.0992 15.4071 16.0242 15.5963 15.8747L19.5135 13.7883C20.8457 13.0787 22.4538 14.0441 22.4538 15.5535V17.5139Z" fill="black"/>
</svg>
