<svg width="134" height="134" viewBox="0 0 134 134" fill="none" xmlns="http://www.w3.org/2000/svg">
<circle cx="67" cy="67" r="67" fill="#88A550"/>
<path d="M48.0499 79.6252C48.8197 79.1812 49.0832 78.1957 48.6392 77.426C48.1945 76.6569 47.2097 76.3927 46.44 76.8367C45.6702 77.2813 45.4061 78.2668 45.8507 79.0359C46.2947 79.8057 47.2801 80.0698 48.0499 79.6252Z" fill="white"/>
<path d="M41.4529 90.7356L49.5605 104.779C51.3101 107.813 55.2457 108.936 58.358 107.137C61.4377 105.357 62.4961 101.422 60.7145 98.3401L55.8846 89.9734L60.0673 87.5585C60.8371 87.1133 61.1012 86.1291 60.6566 85.3593L58.563 81.7332C58.8127 81.6847 60.4541 81.3627 89.3998 75.6845C92.9782 75.4902 95.122 71.5766 93.3146 68.4479L87.9641 59.1807L91.3833 54.0018C91.7191 53.4924 91.7393 52.8377 91.4342 52.3095L88.2144 46.7325C87.9093 46.2043 87.3301 45.8948 86.7233 45.9307L80.5294 46.3024L74.5896 36.0138C73.7292 34.5233 72.1878 33.6209 70.4672 33.5995C70.4465 33.5989 70.4263 33.5989 70.4056 33.5989C68.7428 33.5989 67.2335 34.4265 66.3392 35.8258L45.308 62.6175L31.6354 70.5113C26.2578 73.6149 24.3951 80.5137 27.5106 85.9058C30.3569 90.8363 36.3577 92.7758 41.4529 90.7356ZM57.9266 99.9507C58.8158 101.489 58.2895 103.457 56.7468 104.349C55.1991 105.243 53.2282 104.694 52.349 103.17L44.2993 89.2257L49.8762 86.0058C59.1926 102.144 57.7769 99.6922 57.9266 99.9507ZM54.2747 87.1843L52.6647 84.3959L55.4532 82.7859L57.0631 85.5744L54.2747 87.1843ZM85.9233 49.204L88.1483 53.0579L86.1642 56.0627L82.3292 49.4198L85.9233 49.204ZM69.0321 37.591C69.4641 36.8842 70.1496 36.8112 70.4276 36.8188C70.7024 36.8219 71.3873 36.9074 71.8004 37.6231L90.5261 70.0579C91.1362 71.1138 90.3947 72.4414 89.1715 72.4716C88.952 72.4766 88.8508 72.5162 88.2886 72.6212L68.4806 38.3124C68.8963 37.7778 68.9497 37.7263 69.0321 37.591ZM66.3379 41.0417L84.9486 73.2765L56.8613 78.7856L48.321 63.9935L66.3379 41.0417ZM30.299 84.2959C29.5922 83.0727 29.2186 81.6841 29.2186 80.2792C29.2186 77.4077 30.7619 74.7337 33.2454 73.2998L45.7935 66.055L53.8433 79.9974L41.2951 87.2428C37.4507 89.4615 32.5184 88.1396 30.299 84.2959Z" fill="white"/>
<path d="M43.0629 80.6444C42.6183 79.8747 41.6334 79.6105 40.8637 80.0552L38.0752 81.6651C37.3067 82.1091 36.32 81.8443 35.876 81.0758C35.4314 80.3061 34.4465 80.042 33.6768 80.4866C32.907 80.9312 32.6429 81.916 33.0875 82.6858C34.4126 84.9812 37.3683 85.7906 39.6851 84.4536L42.4736 82.8436C43.2434 82.399 43.5075 81.4148 43.0629 80.6444Z" fill="white"/>
<path d="M106.035 37.0414L97.0642 42.0335C96.2875 42.4662 96.0077 43.4466 96.4404 44.2233C96.8718 44.9994 97.8516 45.2805 98.6301 44.8472L107.601 39.8551C108.378 39.4224 108.657 38.442 108.224 37.6653C107.792 36.888 106.812 36.6088 106.035 37.0414Z" fill="white"/>
<path d="M105.095 53.716L98.8746 52.0494C98.0155 51.8193 97.1326 52.3287 96.9024 53.1877C96.6722 54.0468 97.1823 54.9291 98.0413 55.1593L104.262 56.8258C105.126 57.0579 106.005 56.5403 106.234 55.6875C106.464 54.8285 105.954 53.9455 105.095 53.716Z" fill="white"/>
<path d="M89.4645 31.1936L87.796 37.4145C87.5658 38.2736 88.0752 39.1559 88.9343 39.3867C89.7927 39.6162 90.6757 39.1081 90.9065 38.2484L92.5743 32.0275C92.8045 31.1684 92.2951 30.2855 91.436 30.0553C90.5776 29.8251 89.6946 30.3345 89.4645 31.1936Z" fill="white"/>
</svg>
