<svg width="134" height="134" viewBox="0 0 134 134" fill="none" xmlns="http://www.w3.org/2000/svg">
<circle cx="67" cy="67" r="67" fill="#16353A"/>
<path d="M98.2727 30C93.4596 30 89.5455 33.9142 89.5455 38.7273C89.5455 40.2327 89.928 41.6495 90.6015 42.8873L76.3047 57.184C74.3338 55.6495 71.8669 54.7273 69.1818 54.7273C66.4967 54.7273 64.0298 55.6495 62.0575 57.1825L50.9025 46.0276C51.4145 45.1622 51.7273 44.1673 51.7273 43.0909C51.7273 39.8822 49.1178 37.2727 45.9091 37.2727C42.7004 37.2727 40.0909 39.8822 40.0909 43.0909C40.0909 46.2996 42.7004 48.9091 45.9091 48.9091C46.9855 48.9091 47.9804 48.5964 48.8458 48.0844L60.0007 59.2393C58.4676 61.2116 57.5455 63.6785 57.5455 66.3636C57.5455 69.0487 58.4676 71.5156 60.0007 73.4865L41.5804 91.9084C40.0298 90.5018 37.9804 89.6364 35.7273 89.6364C30.9142 89.6364 27 93.5505 27 98.3636C27 103.177 30.9142 107.091 35.7273 107.091C40.5404 107.091 44.4545 103.177 44.4545 98.3636C44.4545 96.8582 44.072 95.4415 43.3985 94.2036L62.0589 75.5433C63.6676 76.7942 65.608 77.632 67.7287 77.8982V92.6764C63.608 93.3716 60.456 96.9556 60.456 101.273C60.456 106.086 64.3702 110 69.1833 110C73.9964 110 77.9105 106.086 77.9105 101.273C77.9105 96.9571 74.7585 93.3731 70.6378 92.6764V77.8982C72.7585 77.632 74.6989 76.7942 76.3076 75.5433L87.4625 86.6982C86.9491 87.5651 86.6364 88.56 86.6364 89.6364C86.6364 92.8451 89.2458 95.4545 92.4545 95.4545C95.6633 95.4545 98.2727 92.8451 98.2727 89.6364C98.2727 86.4276 95.6633 83.8182 92.4545 83.8182C91.3782 83.8182 90.3833 84.1309 89.5178 84.6429L78.3629 73.488C79.896 71.5156 80.8182 69.0487 80.8182 66.3636C80.8182 63.6785 79.896 61.2116 78.3629 59.2407L92.4211 45.1825C93.9702 46.5891 96.0196 47.4545 98.2727 47.4545C103.086 47.4545 107 43.5404 107 38.7273C107 33.9142 103.086 30 98.2727 30ZM43 43.0909C43 41.4865 44.3047 40.1818 45.9091 40.1818C47.5135 40.1818 48.8182 41.4865 48.8182 43.0909C48.8182 44.6953 47.5135 46 45.9091 46C44.3047 46 43 44.6953 43 43.0909ZM35.7273 104.182C32.5185 104.182 29.9091 101.572 29.9091 98.3636C29.9091 95.1549 32.5185 92.5455 35.7273 92.5455C38.936 92.5455 41.5455 95.1549 41.5455 98.3636C41.5455 101.572 38.936 104.182 35.7273 104.182ZM75 101.273C75 104.481 72.3905 107.091 69.1818 107.091C65.9731 107.091 63.3636 104.481 63.3636 101.273C63.3636 98.064 65.9731 95.4545 69.1818 95.4545C72.3905 95.4545 75 98.064 75 101.273ZM69.1818 75.0909C64.3687 75.0909 60.4545 71.1767 60.4545 66.3636C60.4545 61.5505 64.3687 57.6364 69.1818 57.6364C73.9949 57.6364 77.9091 61.5505 77.9091 66.3636C77.9091 71.1767 73.9949 75.0909 69.1818 75.0909ZM95.3636 89.6364C95.3636 91.2407 94.0589 92.5455 92.4545 92.5455C90.8502 92.5455 89.5455 91.2407 89.5455 89.6364C89.5455 88.032 90.8502 86.7273 92.4545 86.7273C94.0589 86.7273 95.3636 88.032 95.3636 89.6364ZM98.2727 44.5455C95.064 44.5455 92.4545 41.936 92.4545 38.7273C92.4545 35.5185 95.064 32.9091 98.2727 32.9091C101.481 32.9091 104.091 35.5185 104.091 38.7273C104.091 41.936 101.481 44.5455 98.2727 44.5455Z" fill="white"/>
</svg>
