<svg width="100" height="101" viewBox="0 0 100 101" fill="none" xmlns="http://www.w3.org/2000/svg">
<path d="M98.3342 0.854492C98.334 0.854492 98.3335 0.854492 98.3333 0.854492H1.66667C0.746458 0.854284 0.000208333 1.60012 0 2.52033C0 2.52054 0 2.52096 0 2.52116V35.8546H3.33333V4.18784H96.6667V40.8546H38.3333V44.188H98.3333C99.2535 44.1882 99.9998 43.4423 100 42.5221C100 42.5219 100 42.5215 100 42.5213V2.52116C100 1.60095 99.2544 0.854701 98.3342 0.854492Z" fill="#88A550"/>
<path d="M88.3328 9.18784H54.9995V12.5212H88.3328V9.18784Z" fill="#88A550"/>
<path d="M93.3333 19.1879H60V22.5212H93.3333V19.1879Z" fill="#88A550"/>
<path d="M86.6668 29.1882H53.3335V32.5215H86.6668V29.1882Z" fill="#88A550"/>
<path d="M53.2004 15.2241C52.0594 12.4814 48.9111 11.183 46.1686 12.3241C46.1217 12.3437 46.075 12.3637 46.0288 12.3845L32.5146 19.3949C33.0475 18.2903 33.3273 17.0807 33.3333 15.8545C33.3333 11.2522 29.6023 7.52117 25 7.52117C20.3977 7.52117 16.6667 11.2522 16.6667 15.8545C16.6729 17.6635 17.2735 19.4203 18.376 20.8545H18.3067C13.5758 20.8862 9.35271 23.8272 7.6825 28.2537L3.23333 43.5889C2.17417 46.3401 3.54583 49.4293 6.29729 50.4884C7.55188 50.9714 8.9425 50.9632 10.1915 50.4655C11.6265 49.8874 12.7431 48.7199 13.2571 47.2607L15 41.7139V65.8353C13.5658 64.733 11.809 64.1324 10 64.1259C5.40458 64.1191 1.67354 67.8389 1.66667 72.4345C1.66333 74.6851 2.57167 76.8409 4.18479 78.4105C1.62479 79.7184 0.01 82.3468 4.36346e-08 85.2213V99.1878C-0.00020829 100.108 0.745625 100.854 1.66583 100.854C1.66604 100.854 1.66646 100.854 1.66667 100.854H18.3333C19.2535 100.855 19.9998 100.109 20 99.1886C20 99.1884 20 99.188 20 99.1878V85.2213C19.9919 82.859 18.8944 80.6328 17.0258 79.1878H29.641C27.7723 80.6328 26.6748 82.859 26.6669 85.2213V99.1878C26.6667 100.108 27.4125 100.854 28.3327 100.854C28.3329 100.854 28.3333 100.854 28.3336 100.854H45.0002C45.9204 100.855 46.6667 100.109 46.6669 99.1886C46.6669 99.1884 46.6669 99.188 46.6669 99.1878V85.2213C46.6569 82.3468 45.0421 79.7184 42.4821 78.4105C45.7727 75.1986 45.8367 69.9272 42.6248 66.6366C40.6469 64.6101 37.7746 63.7278 35.0002 64.2945V30.2001L50.3004 22.2557C53.0429 21.1149 54.3413 17.9666 53.2004 15.2241ZM25 10.8545C27.7615 10.8545 30 13.093 30 15.8545C30 18.616 27.7615 20.8545 25 20.8545C22.2398 20.8516 20.0029 18.6147 20 15.8545C20 13.093 22.2385 10.8545 25 10.8545ZM10 67.4593C12.7615 67.4593 15 69.6978 15 72.4593C15 75.2207 12.7615 77.4593 10 77.4593C7.23854 77.4593 5 75.2207 5 72.4593C5.00292 69.6991 7.23979 67.4624 10 67.4593ZM16.6667 97.5211H3.33333V85.2213C3.33667 82.8107 5.29021 80.8574 7.70104 80.8545H12.299C14.7096 80.8574 16.6633 82.8107 16.6667 85.2213V97.5211ZM43.3333 85.2213V97.5211H30V85.2213C30.0033 82.8107 31.9569 80.8574 34.3677 80.8545H38.9656C41.3765 80.8574 43.33 82.8107 43.3333 85.2213ZM36.6667 67.4593C39.4269 67.4622 41.6638 69.6991 41.6667 72.4593C41.6667 75.2207 39.4281 77.4593 36.6667 77.4593C33.9052 77.4593 31.6667 75.2207 31.6667 72.4593C31.6667 69.6978 33.9052 67.4593 36.6667 67.4593ZM50.1506 18.0045C49.9275 18.577 49.4694 19.0264 48.8925 19.2382L32.5661 27.7082C32.0136 27.9949 31.6667 28.5655 31.6667 29.1878V65.8353C28.5448 68.1436 27.4633 72.3213 29.0733 75.8545H26.6667V47.5212H23.3333V75.8545H17.5933C18.0675 74.8066 18.3173 73.6711 18.3271 72.5211H18.3333V30.8545C18.3331 29.9339 17.5867 29.1878 16.6663 29.188C15.9385 29.1882 15.295 29.6605 15.0767 30.3549L10.1 46.1914C9.72292 47.2314 8.57396 47.7689 7.53396 47.3916C7.46104 47.3651 7.38959 47.3345 7.32 47.2997C6.35854 46.8028 5.95042 45.6428 6.38917 44.6532L10.8381 29.318C12.0379 26.2368 14.9998 24.2022 18.3065 24.1878H30.1075C30.3746 24.1882 30.6379 24.1239 30.875 24.0007L47.44 15.4022C48.4338 14.9876 49.5792 15.4118 50.0629 16.3739C50.3194 16.881 50.3513 17.4726 50.1506 18.0045Z" fill="#88A550"/>
<path d="M69.1487 78.4106C72.4451 75.199 72.5139 69.923 69.3022 66.6265C66.0906 63.3301 60.8145 63.2613 57.5181 66.473C54.2216 69.6846 54.1529 74.9607 57.3645 78.2571C57.4152 78.309 57.4664 78.3602 57.5183 78.4106C54.9585 79.7185 53.3435 82.3469 53.3335 85.2214V99.1878C53.3333 100.108 54.0791 100.854 54.9993 100.854C54.9995 100.854 55 100.854 55.0002 100.854H71.6668C72.587 100.855 73.3333 100.109 73.3335 99.1887C73.3335 99.1885 73.3335 99.188 73.3335 99.1878V85.2214C73.3235 82.3469 71.7087 79.7185 69.1487 78.4106ZM63.3335 67.4594C66.0949 67.4594 68.3335 69.698 68.3335 72.4594C68.3335 75.2209 66.0949 77.4594 63.3335 77.4594C60.572 77.4594 58.3335 75.2209 58.3335 72.4594C58.3364 69.6992 60.5733 67.4626 63.3335 67.4594ZM70.0001 97.5212H56.6668V85.2214C56.6702 82.8108 58.6237 80.8575 61.0345 80.8546H65.6324C68.0431 80.8575 69.9968 82.8108 70.0001 85.2214V97.5212V97.5212Z" fill="#88A550"/>
<path d="M95.8147 78.4106C99.1112 75.199 99.18 69.923 95.9683 66.6265C92.7566 63.3301 87.4806 63.2613 84.1841 66.473C80.8876 69.6846 80.8189 74.9607 84.0306 78.2571C84.0812 78.309 84.1324 78.3602 84.1843 78.4106C81.6245 79.7185 80.0095 82.3469 79.9995 85.2214V99.1878C79.9993 100.108 80.7451 100.854 81.6653 100.854C81.6656 100.854 81.666 100.854 81.6662 100.854H98.3329C99.2531 100.855 99.9993 100.109 99.9995 99.1887C99.9995 99.1885 99.9995 99.188 99.9995 99.1878V85.2214C99.9895 82.3469 98.3747 79.7185 95.8147 78.4106ZM89.9995 67.4594C92.761 67.4594 94.9995 69.698 94.9995 72.4594C94.9995 75.2209 92.761 77.4594 89.9995 77.4594C87.2381 77.4594 84.9995 75.2209 84.9995 72.4594C85.0024 69.6992 87.2393 67.4626 89.9995 67.4594ZM96.6662 97.5212H83.3329V85.2214C83.3362 82.8108 85.2897 80.8575 87.7006 80.8546H92.2985C94.7091 80.8575 96.6629 82.8108 96.6662 85.2214V97.5212V97.5212Z" fill="#88A550"/>
</svg>
