<svg width="1362" height="325" viewBox="0 0 1362 325" fill="none" xmlns="http://www.w3.org/2000/svg">
<rect x="14.8622" y="308.562" width="5.61468" height="15.657" fill="white"/>
<path d="M36 313.455L18 236.932L0 313.455H36Z" fill="#3E5E00"/>
<rect x="1255.03" y="304.323" width="3.78768" height="10.5622" fill="white"/>
<path d="M1269.29 307.623L1257.14 256L1245 307.623H1269.29Z" fill="#3E5E00"/>
<rect width="4.252" height="21.8019" transform="matrix(-1 0 0 1 101.008 219.198)" fill="white"/>
<ellipse rx="15.0001" ry="14.8649" transform="matrix(-1 0 0 1 98.9999 211.865)" fill="#3E5E00"/>
<rect x="6.00922" y="56.5835" width="2.27016" height="7.77778" fill="white"/>
<path d="M14.5557 59.0139L7.27786 21L0 59.0139H14.5557Z" fill="#3E5E00"/>
<rect width="4.38358" height="25.7658" transform="matrix(-1 0 0 1 79.9159 109.234)" fill="white"/>
<ellipse rx="15.4643" ry="17.5676" transform="matrix(-1 0 0 1 77.8458 100.568)" fill="#3E5E00"/>
<rect width="4.38358" height="25.7658" transform="matrix(-1 0 0 1 521.786 170.234)" fill="white"/>
<ellipse rx="15.4643" ry="17.5676" transform="matrix(-1 0 0 1 519.716 161.568)" fill="#3E5E00"/>
<rect x="1353.45" y="35.5835" width="2.27016" height="7.77778" fill="white"/>
<path d="M1362 38.0139L1354.72 0L1347.44 38.0139H1362Z" fill="#3E5E00"/>
<rect width="4.38358" height="25.7658" transform="matrix(-1 0 0 1 1326.51 118.234)" fill="white"/>
<ellipse rx="15.4643" ry="17.5676" transform="matrix(-1 0 0 1 1324.44 109.568)" fill="#3E5E00"/>
</svg>
