<svg xmlns="http://www.w3.org/2000/svg" viewBox="0 0 22.39 22.39"><defs><style>.cls-1{fill:#010101;}</style></defs><title>Asset 1</title><g id="Layer_2" data-name="Layer 2"><g id="Layer_1-2" data-name="Layer 1"><path class="cls-1" d="M12.75,6.82A2.27,2.27,0,0,0,11.22,9.1l0,.39-.39-.05A6.29,6.29,0,0,1,7.14,7.6l-.52-.51-.13.38A2.26,2.26,0,0,0,7,9.81c.31.33.24.38-.3.18a1.1,1.1,0,0,0-.36-.09A2.67,2.67,0,0,0,6.59,11a2.52,2.52,0,0,0,1.07,1l.38.18H7.59c-.44,0-.45,0-.41.17a2.42,2.42,0,0,0,1.46,1.3l.49.16-.42.26a4.5,4.5,0,0,1-2.1.58A2.71,2.71,0,0,0,6,14.7a6,6,0,0,0,1.51.7,6.61,6.61,0,0,0,5.13-.59,6.85,6.85,0,0,0,2.6-3.06,8,8,0,0,0,.53-2.37c0-.37,0-.42.46-.85a4.27,4.27,0,0,0,.55-.61c.08-.15.07-.15-.33,0-.66.24-.75.21-.43-.15a2.24,2.24,0,0,0,.54-.84s-.12,0-.25.09a6.39,6.39,0,0,1-.69.26l-.42.14-.39-.26a3.6,3.6,0,0,0-.66-.35A2.75,2.75,0,0,0,12.75,6.82ZM11.19,22.39a11.2,11.2,0,1,1,11.2-11.2A11.19,11.19,0,0,1,11.19,22.39Z"/></g></g></svg>